<?xml version="1.0" encoding="UTF-8" standalone="no"?><svg xmlns="http://www.w3.org/2000/svg" xmlns:xlink="http://www.w3.org/1999/xlink" contentStyleType="text/css" height="80%" preserveAspectRatio="none" style="width:1653px;height:710px;" version="1.1" viewBox="0 0 1653 710" width="80%" zoomAndPan="magnify"><defs><linearGradient id="gw1m3iwogme530" x1="50%" x2="50%" y1="0%" y2="100%"><stop offset="0%" stop-color="#33B2E2"/><stop offset="100%" stop-color="#009FDB"/></linearGradient></defs><g><line style="stroke:#C2C2C2;stroke-width:1.0416666666666667;stroke-dasharray:5.0,5.0;" x1="77.0833" x2="77.0833" y1="57.2591" y2="461.1654"/><line style="stroke:#C2C2C2;stroke-width:1.0416666666666667;stroke-dasharray:1.0,4.0;" x1="77.0833" x2="77.0833" y1="461.1654" y2="506.9987"/><line style="stroke:#C2C2C2;stroke-width:1.0416666666666667;stroke-dasharray:5.0,5.0;" x1="77.0833" x2="77.0833" y1="506.9987" y2="654.8177"/><line style="stroke:#C2C2C2;stroke-width:1.0416666666666667;stroke-dasharray:5.0,5.0;" x1="467.7083" x2="467.7083" y1="57.2591" y2="461.1654"/><line style="stroke:#C2C2C2;stroke-width:1.0416666666666667;stroke-dasharray:1.0,4.0;" x1="467.7083" x2="467.7083" y1="461.1654" y2="506.9987"/><line style="stroke:#C2C2C2;stroke-width:1.0416666666666667;stroke-dasharray:5.0,5.0;" x1="467.7083" x2="467.7083" y1="506.9987" y2="654.8177"/><line style="stroke:#C2C2C2;stroke-width:1.0416666666666667;stroke-dasharray:5.0,5.0;" x1="1040.625" x2="1040.625" y1="57.2591" y2="461.1654"/><line style="stroke:#C2C2C2;stroke-width:1.0416666666666667;stroke-dasharray:1.0,4.0;" x1="1040.625" x2="1040.625" y1="461.1654" y2="506.9987"/><line style="stroke:#C2C2C2;stroke-width:1.0416666666666667;stroke-dasharray:5.0,5.0;" x1="1040.625" x2="1040.625" y1="506.9987" y2="654.8177"/><line style="stroke:#C2C2C2;stroke-width:1.0416666666666667;stroke-dasharray:5.0,5.0;" x1="1359.375" x2="1359.375" y1="57.2591" y2="461.1654"/><line style="stroke:#C2C2C2;stroke-width:1.0416666666666667;stroke-dasharray:1.0,4.0;" x1="1359.375" x2="1359.375" y1="461.1654" y2="506.9987"/><line style="stroke:#C2C2C2;stroke-width:1.0416666666666667;stroke-dasharray:5.0,5.0;" x1="1359.375" x2="1359.375" y1="506.9987" y2="654.8177"/><rect fill="url(#gw1m3iwogme530)" height="45.8008" rx="10.4167" ry="10.4167" style="stroke:#33B2E2;stroke-width:1.0416666666666667;" width="61.4583" x="46.875" y="10.4167"/><text fill="#FFFFFF" font-family="&quot;Verdana&quot;" font-size="12.5" lengthAdjust="spacing" textLength="30.2083" x="62.5" y="37.6444">User</text><rect fill="url(#gw1m3iwogme530)" height="45.8008" rx="10.4167" ry="10.4167" style="stroke:#33B2E2;stroke-width:1.0416666666666667;" width="61.4583" x="46.875" y="653.776"/><text fill="#FFFFFF" font-family="&quot;Verdana&quot;" font-size="12.5" lengthAdjust="spacing" textLength="30.2083" x="62.5" y="681.0038">User</text><rect fill="url(#gw1m3iwogme530)" height="45.8008" rx="10.4167" ry="10.4167" style="stroke:#33B2E2;stroke-width:1.0416666666666667;" width="94.7917" x="420.8333" y="10.4167"/><text fill="#FFFFFF" font-family="&quot;Verdana&quot;" font-size="12.5" lengthAdjust="spacing" textLength="63.5417" x="436.4583" y="37.6444">Debugger</text><rect fill="url(#gw1m3iwogme530)" height="45.8008" rx="10.4167" ry="10.4167" style="stroke:#33B2E2;stroke-width:1.0416666666666667;" width="94.7917" x="420.8333" y="653.776"/><text fill="#FFFFFF" font-family="&quot;Verdana&quot;" font-size="12.5" lengthAdjust="spacing" textLength="63.5417" x="436.4583" y="681.0038">Debugger</text><rect fill="url(#gw1m3iwogme530)" height="45.8008" rx="10.4167" ry="10.4167" style="stroke:#33B2E2;stroke-width:1.0416666666666667;" width="71.875" x="1005.2083" y="10.4167"/><text fill="#FFFFFF" font-family="&quot;Verdana&quot;" font-size="12.5" lengthAdjust="spacing" textLength="40.625" x="1020.8333" y="37.6444">Target</text><rect fill="url(#gw1m3iwogme530)" height="45.8008" rx="10.4167" ry="10.4167" style="stroke:#33B2E2;stroke-width:1.0416666666666667;" width="71.875" x="1005.2083" y="653.776"/><text fill="#FFFFFF" font-family="&quot;Verdana&quot;" font-size="12.5" lengthAdjust="spacing" textLength="40.625" x="1020.8333" y="681.0038">Target</text><rect fill="url(#gw1m3iwogme530)" height="45.8008" rx="10.4167" ry="10.4167" style="stroke:#33B2E2;stroke-width:1.0416666666666667;" width="71.875" x="1323.9583" y="10.4167"/><text fill="#FFFFFF" font-family="&quot;Verdana&quot;" font-size="12.5" lengthAdjust="spacing" textLength="40.625" x="1339.5833" y="37.6444">Kernel</text><rect fill="url(#gw1m3iwogme530)" height="45.8008" rx="10.4167" ry="10.4167" style="stroke:#33B2E2;stroke-width:1.0416666666666667;" width="71.875" x="1323.9583" y="653.776"/><text fill="#FFFFFF" font-family="&quot;Verdana&quot;" font-size="12.5" lengthAdjust="spacing" textLength="40.625" x="1339.5833" y="681.0038">Kernel</text><polygon fill="#009FDB" points="455.7292,100.9766,466.1458,105.1432,455.7292,109.3099,459.8958,105.1432" style="stroke:#009FDB;stroke-width:1.0416666666666667;"/><line style="stroke:#009FDB;stroke-width:3.125;" x1="77.6042" x2="461.9792" y1="105.1432" y2="105.1432"/><text fill="#5A5A5A" font-family="&quot;Verdana&quot;" font-size="12.5" lengthAdjust="spacing" textLength="202.0833" x="93.2292" y="91.7786">Requests breakpoint at address</text><polygon fill="#009FDB" points="1028.6458,146.7773,1039.0625,150.944,1028.6458,155.1107,1032.8125,150.944" style="stroke:#009FDB;stroke-width:1.0416666666666667;"/><line style="stroke:#009FDB;stroke-width:3.125;" x1="468.2292" x2="1034.8958" y1="150.944" y2="150.944"/><text fill="#5A5A5A" font-family="&quot;Verdana&quot;" font-size="12.5" lengthAdjust="spacing" textLength="531.25" x="483.8542" y="137.5793">Replaces first byte of instruction at this address with INT 3 (on Intel x86 processors)</text><polygon fill="#009FDB" points="1028.6458,192.5781,1039.0625,196.7448,1028.6458,200.9115,1032.8125,196.7448" style="stroke:#009FDB;stroke-width:1.0416666666666667;"/><line style="stroke:#009FDB;stroke-width:3.125;" x1="468.2292" x2="1034.8958" y1="196.7448" y2="196.7448"/><text fill="#5A5A5A" font-family="&quot;Verdana&quot;" font-size="12.5" lengthAdjust="spacing" textLength="209.375" x="483.8542" y="183.3801">Starts target in separate process</text><line style="stroke:#009FDB;stroke-width:3.125;" x1="1041.1458" x2="1084.8958" y1="242.5456" y2="242.5456"/><line style="stroke:#009FDB;stroke-width:3.125;" x1="1084.8958" x2="1084.8958" y1="242.5456" y2="256.0872"/><line style="stroke:#009FDB;stroke-width:3.125;" x1="1042.1875" x2="1084.8958" y1="256.0872" y2="256.0872"/><polygon fill="#009FDB" points="1052.6042,251.9206,1042.1875,256.0872,1052.6042,260.2539,1048.4375,256.0872" style="stroke:#009FDB;stroke-width:1.0416666666666667;"/><text fill="#5A5A5A" font-family="&quot;Verdana&quot;" font-size="12.5" lengthAdjust="spacing" textLength="161.4583" x="1056.7708" y="229.1809">Executes INT 3 instruction</text><polygon fill="#009FDB" points="1347.3958,297.7214,1357.8125,301.888,1347.3958,306.0547,1351.5625,301.888" style="stroke:#009FDB;stroke-width:1.0416666666666667;"/><line style="stroke:#009FDB;stroke-width:3.125;" x1="1041.1458" x2="1353.6458" y1="301.888" y2="301.888"/><text fill="#5A5A5A" font-family="&quot;Verdana&quot;" font-size="12.5" lengthAdjust="spacing" textLength="160.4167" x="1056.7708" y="288.5234">Interrupt handler is called</text><line style="stroke:#009FDB;stroke-width:3.125;" x1="1359.8958" x2="1403.6458" y1="347.6888" y2="347.6888"/><line style="stroke:#009FDB;stroke-width:3.125;" x1="1403.6458" x2="1403.6458" y1="347.6888" y2="361.2305"/><line style="stroke:#009FDB;stroke-width:3.125;" x1="1360.9375" x2="1403.6458" y1="361.2305" y2="361.2305"/><polygon fill="#009FDB" points="1371.3542,357.0638,1360.9375,361.2305,1371.3542,365.3971,1367.1875,361.2305" style="stroke:#009FDB;stroke-width:1.0416666666666667;"/><text fill="#5A5A5A" font-family="&quot;Verdana&quot;" font-size="12.5" lengthAdjust="spacing" textLength="265.625" x="1375.5208" y="334.3241">Saves target context and suspends target</text><polygon fill="#009FDB" points="479.6875,402.8646,469.2708,407.0313,479.6875,411.1979,475.5208,407.0313" style="stroke:#009FDB;stroke-width:1.0416666666666667;"/><line style="stroke:#009FDB;stroke-width:3.125;" x1="473.4375" x2="1358.8542" y1="407.0313" y2="407.0313"/><text fill="#5A5A5A" font-family="&quot;Verdana&quot;" font-size="12.5" lengthAdjust="spacing" textLength="144.7917" x="494.2708" y="393.6666">Sends signal (SIGTRAP)</text><polygon fill="#009FDB" points="89.0625,448.6654,78.6458,452.832,89.0625,456.9987,84.8958,452.832" style="stroke:#009FDB;stroke-width:1.0416666666666667;"/><line style="stroke:#009FDB;stroke-width:3.125;" x1="82.8125" x2="467.1875" y1="452.832" y2="452.832"/><text fill="#5A5A5A" font-family="&quot;Verdana&quot;" font-size="12.5" lengthAdjust="spacing" textLength="348.9583" x="103.6458" y="439.4674">Presents target state (next instruction, registers, stack)</text><polygon fill="#009FDB" points="455.7292,540.2995,466.1458,544.4661,455.7292,548.6328,459.8958,544.4661" style="stroke:#009FDB;stroke-width:1.0416666666666667;"/><line style="stroke:#009FDB;stroke-width:3.125;" x1="77.6042" x2="461.9792" y1="544.4661" y2="544.4661"/><text fill="#5A5A5A" font-family="&quot;Verdana&quot;" font-size="12.5" lengthAdjust="spacing" textLength="145.8333" x="93.2292" y="531.1015">Asks to continue target</text><polygon fill="#009FDB" points="1347.3958,586.1003,1357.8125,590.2669,1347.3958,594.4336,1351.5625,590.2669" style="stroke:#009FDB;stroke-width:1.0416666666666667;"/><line style="stroke:#009FDB;stroke-width:3.125;" x1="468.2292" x2="1353.6458" y1="590.2669" y2="590.2669"/><text fill="#5A5A5A" font-family="&quot;Verdana&quot;" font-size="12.5" lengthAdjust="spacing" textLength="238.5417" x="483.8542" y="576.9023">Calls ptrace(), e. g. with PTRACE_CONT</text><polygon fill="#009FDB" points="1052.6042,631.901,1042.1875,636.0677,1052.6042,640.2344,1048.4375,636.0677" style="stroke:#009FDB;stroke-width:1.0416666666666667;"/><line style="stroke:#009FDB;stroke-width:3.125;" x1="1046.3542" x2="1358.8542" y1="636.0677" y2="636.0677"/><text fill="#5A5A5A" font-family="&quot;Verdana&quot;" font-size="12.5" lengthAdjust="spacing" textLength="277.0833" x="1067.1875" y="622.703">Restores target context and resumes target</text><!--SRC=[RLB1QiCm3BtdAxHR2bqkWp5w69IkZ3BeIfETXvkeYMdgP9AyjNy_9LbQ3mg-s7fFxpt9TrBX4M5NUop9dACFHeBxPtZ1dIzBf1biySiZ2yEEq1pQnZe1ewSe29cZ4TYHCaCbIaTfQvCZmzuI2-pEWj3imJeMyhdOndKTfB8yje4VAnMirXayGApbbHEiuVJq22qrseaRuibDhLGCgJdfhoe1ZAqXeuf_p6X0Xfpb2NClwcyG37m5u3SaX_MijqBaMu7AkA9MTRMTcxh68Xem8JerttXnapVAFUciN07ikKLNZBM0UXrrsWFObixK4AUhrsmxt_oFtUrd1XkT6RfhR9OkSEmwiI3D50XBo-gVfnqcFqoY94bkB7dE1stMz8wjypYw3AN7Y0lDpj0AwOhZoHGmWJ8P5hXHmulbv-9zdGK1hz-2fQ7Ruz5dVxoKVW40]--></g></svg>