<?xml version="1.0" encoding="UTF-8" standalone="no"?><svg xmlns="http://www.w3.org/2000/svg" xmlns:xlink="http://www.w3.org/1999/xlink" contentStyleType="text/css" height="80%" preserveAspectRatio="none" style="width:1461px;height:796px;" version="1.1" viewBox="0 0 1461 796" width="80%" zoomAndPan="magnify"><defs><linearGradient id="g1xor570hzerwi0" x1="50%" x2="50%" y1="0%" y2="100%"><stop offset="0%" stop-color="#33B2E2"/><stop offset="100%" stop-color="#009FDB"/></linearGradient></defs><g><line style="stroke:#C2C2C2;stroke-width:1.0416666666666667;stroke-dasharray:5.0,5.0;" x1="77.0833" x2="77.0833" y1="57.2591" y2="474.707"/><line style="stroke:#C2C2C2;stroke-width:1.0416666666666667;stroke-dasharray:1.0,4.0;" x1="77.0833" x2="77.0833" y1="474.707" y2="520.5404"/><line style="stroke:#C2C2C2;stroke-width:1.0416666666666667;stroke-dasharray:5.0,5.0;" x1="77.0833" x2="77.0833" y1="520.5404" y2="741.2435"/><line style="stroke:#C2C2C2;stroke-width:1.0416666666666667;stroke-dasharray:5.0,5.0;" x1="467.7083" x2="467.7083" y1="57.2591" y2="474.707"/><line style="stroke:#C2C2C2;stroke-width:1.0416666666666667;stroke-dasharray:1.0,4.0;" x1="467.7083" x2="467.7083" y1="474.707" y2="520.5404"/><line style="stroke:#C2C2C2;stroke-width:1.0416666666666667;stroke-dasharray:5.0,5.0;" x1="467.7083" x2="467.7083" y1="520.5404" y2="741.2435"/><line style="stroke:#C2C2C2;stroke-width:1.0416666666666667;stroke-dasharray:5.0,5.0;" x1="967.7083" x2="967.7083" y1="57.2591" y2="474.707"/><line style="stroke:#C2C2C2;stroke-width:1.0416666666666667;stroke-dasharray:1.0,4.0;" x1="967.7083" x2="967.7083" y1="474.707" y2="520.5404"/><line style="stroke:#C2C2C2;stroke-width:1.0416666666666667;stroke-dasharray:5.0,5.0;" x1="967.7083" x2="967.7083" y1="520.5404" y2="741.2435"/><rect fill="url(#g1xor570hzerwi0)" height="45.8008" rx="10.4167" ry="10.4167" style="stroke:#33B2E2;stroke-width:1.0416666666666667;" width="61.4583" x="46.875" y="10.4167"/><text fill="#FFFFFF" font-family="&quot;Verdana&quot;" font-size="12.5" lengthAdjust="spacing" textLength="30.2083" x="62.5" y="37.6444">User</text><rect fill="url(#g1xor570hzerwi0)" height="45.8008" rx="10.4167" ry="10.4167" style="stroke:#33B2E2;stroke-width:1.0416666666666667;" width="61.4583" x="46.875" y="740.2018"/><text fill="#FFFFFF" font-family="&quot;Verdana&quot;" font-size="12.5" lengthAdjust="spacing" textLength="30.2083" x="62.5" y="767.4296">User</text><rect fill="url(#g1xor570hzerwi0)" height="45.8008" rx="10.4167" ry="10.4167" style="stroke:#33B2E2;stroke-width:1.0416666666666667;" width="94.7917" x="420.8333" y="10.4167"/><text fill="#FFFFFF" font-family="&quot;Verdana&quot;" font-size="12.5" lengthAdjust="spacing" textLength="63.5417" x="436.4583" y="37.6444">Debugger</text><rect fill="url(#g1xor570hzerwi0)" height="45.8008" rx="10.4167" ry="10.4167" style="stroke:#33B2E2;stroke-width:1.0416666666666667;" width="94.7917" x="420.8333" y="740.2018"/><text fill="#FFFFFF" font-family="&quot;Verdana&quot;" font-size="12.5" lengthAdjust="spacing" textLength="63.5417" x="436.4583" y="767.4296">Debugger</text><rect fill="url(#g1xor570hzerwi0)" height="45.8008" rx="10.4167" ry="10.4167" style="stroke:#33B2E2;stroke-width:1.0416666666666667;" width="71.875" x="932.2917" y="10.4167"/><text fill="#FFFFFF" font-family="&quot;Verdana&quot;" font-size="12.5" lengthAdjust="spacing" textLength="40.625" x="947.9167" y="37.6444">Target</text><rect fill="url(#g1xor570hzerwi0)" height="45.8008" rx="10.4167" ry="10.4167" style="stroke:#33B2E2;stroke-width:1.0416666666666667;" width="71.875" x="932.2917" y="740.2018"/><text fill="#FFFFFF" font-family="&quot;Verdana&quot;" font-size="12.5" lengthAdjust="spacing" textLength="40.625" x="947.9167" y="767.4296">Target</text><polygon fill="#009FDB" points="455.7292,100.9766,466.1458,105.1432,455.7292,109.3099,459.8958,105.1432" style="stroke:#009FDB;stroke-width:1.0416666666666667;"/><line style="stroke:#009FDB;stroke-width:3.125;" x1="77.6042" x2="461.9792" y1="105.1432" y2="105.1432"/><text fill="#5A5A5A" font-family="&quot;Verdana&quot;" font-size="12.5" lengthAdjust="spacing" textLength="202.0833" x="93.2292" y="91.7786">Requests breakpoint at address</text><polygon fill="#009FDB" points="955.7292,146.7773,966.1458,150.944,955.7292,155.1107,959.8958,150.944" style="stroke:#009FDB;stroke-width:1.0416666666666667;"/><line style="stroke:#009FDB;stroke-width:3.125;" x1="468.2292" x2="961.9792" y1="150.944" y2="150.944"/><text fill="#5A5A5A" font-family="&quot;Verdana&quot;" font-size="12.5" lengthAdjust="spacing" textLength="397.9167" x="483.8542" y="137.5793">Replaces first two bytes of instruction at this address with TRAP</text><polygon fill="#009FDB" points="955.7292,192.5781,966.1458,196.7448,955.7292,200.9115,959.8958,196.7448" style="stroke:#009FDB;stroke-width:1.0416666666666667;"/><line style="stroke:#009FDB;stroke-width:3.125;" x1="468.2292" x2="961.9792" y1="196.7448" y2="196.7448"/><text fill="#5A5A5A" font-family="&quot;Verdana&quot;" font-size="12.5" lengthAdjust="spacing" textLength="209.375" x="483.8542" y="183.3801">Starts target in separate process</text><line style="stroke:#009FDB;stroke-width:3.125;" x1="968.2292" x2="1011.9792" y1="242.5456" y2="242.5456"/><line style="stroke:#009FDB;stroke-width:3.125;" x1="1011.9792" x2="1011.9792" y1="242.5456" y2="256.0872"/><line style="stroke:#009FDB;stroke-width:3.125;" x1="969.2708" x2="1011.9792" y1="256.0872" y2="256.0872"/><polygon fill="#009FDB" points="979.6875,251.9206,969.2708,256.0872,979.6875,260.2539,975.5208,256.0872" style="stroke:#009FDB;stroke-width:1.0416666666666667;"/><text fill="#5A5A5A" font-family="&quot;Verdana&quot;" font-size="12.5" lengthAdjust="spacing" textLength="159.375" x="983.8542" y="229.1809">Executes TRAP instruction</text><line style="stroke:#009FDB;stroke-width:3.125;" x1="968.2292" x2="1011.9792" y1="301.888" y2="301.888"/><line style="stroke:#009FDB;stroke-width:3.125;" x1="1011.9792" x2="1011.9792" y1="301.888" y2="315.4297"/><line style="stroke:#009FDB;stroke-width:3.125;" x1="969.2708" x2="1011.9792" y1="315.4297" y2="315.4297"/><polygon fill="#009FDB" points="979.6875,311.263,969.2708,315.4297,979.6875,319.5964,975.5208,315.4297" style="stroke:#009FDB;stroke-width:1.0416666666666667;"/><text fill="#5A5A5A" font-family="&quot;Verdana&quot;" font-size="12.5" lengthAdjust="spacing" textLength="168.75" x="983.8542" y="288.5234">Exception handler is called</text><line style="stroke:#009FDB;stroke-width:3.125;" x1="968.2292" x2="1011.9792" y1="361.2305" y2="361.2305"/><line style="stroke:#009FDB;stroke-width:3.125;" x1="1011.9792" x2="1011.9792" y1="361.2305" y2="374.7721"/><line style="stroke:#009FDB;stroke-width:3.125;" x1="969.2708" x2="1011.9792" y1="374.7721" y2="374.7721"/><polygon fill="#009FDB" points="979.6875,370.6055,969.2708,374.7721,979.6875,378.9388,975.5208,374.7721" style="stroke:#009FDB;stroke-width:1.0416666666666667;"/><text fill="#5A5A5A" font-family="&quot;Verdana&quot;" font-size="12.5" lengthAdjust="spacing" textLength="423.9583" x="983.8542" y="347.8658">Exception handler saves context and calls handle_stopped_target()</text><polygon fill="#009FDB" points="479.6875,416.4063,469.2708,420.5729,479.6875,424.7396,475.5208,420.5729" style="stroke:#009FDB;stroke-width:1.0416666666666667;"/><line style="stroke:#009FDB;stroke-width:3.125;" x1="473.4375" x2="967.1875" y1="420.5729" y2="420.5729"/><text fill="#5A5A5A" font-family="&quot;Verdana&quot;" font-size="12.5" lengthAdjust="spacing" textLength="458.3333" x="494.2708" y="407.2083">handle_stopped_target() sends signal and waits for reply (blocks target)</text><polygon fill="#009FDB" points="89.0625,462.207,78.6458,466.3737,89.0625,470.5404,84.8958,466.3737" style="stroke:#009FDB;stroke-width:1.0416666666666667;"/><line style="stroke:#009FDB;stroke-width:3.125;" x1="82.8125" x2="467.1875" y1="466.3737" y2="466.3737"/><text fill="#5A5A5A" font-family="&quot;Verdana&quot;" font-size="12.5" lengthAdjust="spacing" textLength="348.9583" x="103.6458" y="453.009">Presents target state (next instruction, registers, stack)</text><polygon fill="#009FDB" points="455.7292,553.8411,466.1458,558.0078,455.7292,562.1745,459.8958,558.0078" style="stroke:#009FDB;stroke-width:1.0416666666666667;"/><line style="stroke:#009FDB;stroke-width:3.125;" x1="77.6042" x2="461.9792" y1="558.0078" y2="558.0078"/><text fill="#5A5A5A" font-family="&quot;Verdana&quot;" font-size="12.5" lengthAdjust="spacing" textLength="145.8333" x="93.2292" y="544.6431">Asks to continue target</text><polygon fill="#009FDB" points="955.7292,599.6419,966.1458,603.8086,955.7292,607.9753,959.8958,603.8086" style="stroke:#009FDB;stroke-width:1.0416666666666667;"/><line style="stroke:#009FDB;stroke-width:3.125;" x1="468.2292" x2="961.9792" y1="603.8086" y2="603.8086"/><text fill="#5A5A5A" font-family="&quot;Verdana&quot;" font-size="12.5" lengthAdjust="spacing" textLength="80.2083" x="483.8542" y="590.4439">Sends signal</text><line style="stroke:#009FDB;stroke-width:3.125;" x1="968.2292" x2="1011.9792" y1="649.6094" y2="649.6094"/><line style="stroke:#009FDB;stroke-width:3.125;" x1="1011.9792" x2="1011.9792" y1="649.6094" y2="663.151"/><line style="stroke:#009FDB;stroke-width:3.125;" x1="969.2708" x2="1011.9792" y1="663.151" y2="663.151"/><polygon fill="#009FDB" points="979.6875,658.9844,969.2708,663.151,979.6875,667.3177,975.5208,663.151" style="stroke:#009FDB;stroke-width:1.0416666666666667;"/><text fill="#5A5A5A" font-family="&quot;Verdana&quot;" font-size="12.5" lengthAdjust="spacing" textLength="465.625" x="983.8542" y="636.2447">handle_stopped_target() receives signal and returns to exception handler</text><line style="stroke:#009FDB;stroke-width:3.125;" x1="968.2292" x2="1011.9792" y1="708.9518" y2="708.9518"/><line style="stroke:#009FDB;stroke-width:3.125;" x1="1011.9792" x2="1011.9792" y1="708.9518" y2="722.4935"/><line style="stroke:#009FDB;stroke-width:3.125;" x1="969.2708" x2="1011.9792" y1="722.4935" y2="722.4935"/><polygon fill="#009FDB" points="979.6875,718.3268,969.2708,722.4935,979.6875,726.6602,975.5208,722.4935" style="stroke:#009FDB;stroke-width:1.0416666666666667;"/><text fill="#5A5A5A" font-family="&quot;Verdana&quot;" font-size="12.5" lengthAdjust="spacing" textLength="355.2083" x="983.8542" y="695.5872">Exception handler restores context and continues target</text><!--SRC=[ZP91Ry8m38Nl_0hl1XBZ1t2OXBJT4MDdb2QcZUYIp7O6_FivXOeE5GcfbwhFxpr_xeiq-8rGjHbhCkV95oF1wnkyOvNh6ca96_p9oC9G4Pf3YZu867sS8sIUzC8oj3LKevIHr1gB37jFB2372DLPz3tkmGSMobPy3CL66i-z5nozDB3ThDQZhfzYI6j8zwe-m9WC6K5856tfSb4EPpvEQ7D9Bgx3x56jnTJrQanmhOPhDMlQ5jrJQZQ_6cHZ43mfd-2wORv-tx74bD3jBlsdiu7d3VO3hQuQ70FxEfYsipuQhopsaO0KzXccLHljeQSp-mUmt7G9QqMCuGQGfQ2RXb9s06QkXhLdGU9vqTZ3RB9OB4P-Z1MNlDXjx4F6g_7uxGRzHs0-MflGeYzK1viJIgRG9UFz3PwwatAGIFUdkYxHu_a3]--></g></svg>