<?xml version="1.0" encoding="UTF-8" standalone="no"?><svg xmlns="http://www.w3.org/2000/svg" xmlns:xlink="http://www.w3.org/1999/xlink" contentStyleType="text/css" height="80%" preserveAspectRatio="none" style="width:1043px;height:1122px;" version="1.1" viewBox="0 0 1043 1122" width="80%" zoomAndPan="magnify"><defs><linearGradient id="g31u4iar0ucp50" x1="50%" x2="50%" y1="0%" y2="100%"><stop offset="0%" stop-color="#33B2E2"/><stop offset="100%" stop-color="#009FDB"/></linearGradient></defs><g><line style="stroke:#C2C2C2;stroke-width:1.0416666666666667;stroke-dasharray:5.0,5.0;" x1="77.0833" x2="77.0833" y1="57.2591" y2="1066.9922"/><line style="stroke:#C2C2C2;stroke-width:1.0416666666666667;stroke-dasharray:5.0,5.0;" x1="317.1875" x2="317.1875" y1="57.2591" y2="1066.9922"/><line style="stroke:#C2C2C2;stroke-width:1.0416666666666667;stroke-dasharray:5.0,5.0;" x1="503.125" x2="503.125" y1="57.2591" y2="1066.9922"/><line style="stroke:#C2C2C2;stroke-width:1.0416666666666667;stroke-dasharray:5.0,5.0;" x1="692.7083" x2="692.7083" y1="57.2591" y2="1066.9922"/><rect fill="url(#g31u4iar0ucp50)" height="45.8008" rx="10.4167" ry="10.4167" style="stroke:#33B2E2;stroke-width:1.0416666666666667;" width="61.4583" x="46.875" y="10.4167"/><text fill="#FFFFFF" font-family="&quot;Verdana&quot;" font-size="12.5" lengthAdjust="spacing" textLength="30.2083" x="62.5" y="37.6444">User</text><rect fill="url(#g31u4iar0ucp50)" height="45.8008" rx="10.4167" ry="10.4167" style="stroke:#33B2E2;stroke-width:1.0416666666666667;" width="61.4583" x="46.875" y="1065.9505"/><text fill="#FFFFFF" font-family="&quot;Verdana&quot;" font-size="12.5" lengthAdjust="spacing" textLength="30.2083" x="62.5" y="1093.1783">User</text><rect fill="url(#g31u4iar0ucp50)" height="45.8008" rx="10.4167" ry="10.4167" style="stroke:#33B2E2;stroke-width:1.0416666666666667;" width="60.4167" x="286.9792" y="10.4167"/><text fill="#FFFFFF" font-family="&quot;Verdana&quot;" font-size="12.5" lengthAdjust="spacing" textLength="29.1667" x="302.6042" y="37.6444">Host</text><rect fill="url(#g31u4iar0ucp50)" height="45.8008" rx="10.4167" ry="10.4167" style="stroke:#33B2E2;stroke-width:1.0416666666666667;" width="60.4167" x="286.9792" y="1065.9505"/><text fill="#FFFFFF" font-family="&quot;Verdana&quot;" font-size="12.5" lengthAdjust="spacing" textLength="29.1667" x="302.6042" y="1093.1783">Host</text><rect fill="url(#g31u4iar0ucp50)" height="45.8008" rx="10.4167" ry="10.4167" style="stroke:#33B2E2;stroke-width:1.0416666666666667;" width="73.9583" x="466.6667" y="10.4167"/><text fill="#FFFFFF" font-family="&quot;Verdana&quot;" font-size="12.5" lengthAdjust="spacing" textLength="42.7083" x="482.2917" y="37.6444">Server</text><rect fill="url(#g31u4iar0ucp50)" height="45.8008" rx="10.4167" ry="10.4167" style="stroke:#33B2E2;stroke-width:1.0416666666666667;" width="73.9583" x="466.6667" y="1065.9505"/><text fill="#FFFFFF" font-family="&quot;Verdana&quot;" font-size="12.5" lengthAdjust="spacing" textLength="42.7083" x="482.2917" y="1093.1783">Server</text><rect fill="url(#g31u4iar0ucp50)" height="45.8008" rx="10.4167" ry="10.4167" style="stroke:#33B2E2;stroke-width:1.0416666666666667;" width="71.875" x="657.2917" y="10.4167"/><text fill="#FFFFFF" font-family="&quot;Verdana&quot;" font-size="12.5" lengthAdjust="spacing" textLength="40.625" x="672.9167" y="37.6444">Target</text><rect fill="url(#g31u4iar0ucp50)" height="45.8008" rx="10.4167" ry="10.4167" style="stroke:#33B2E2;stroke-width:1.0416666666666667;" width="71.875" x="657.2917" y="1065.9505"/><text fill="#FFFFFF" font-family="&quot;Verdana&quot;" font-size="12.5" lengthAdjust="spacing" textLength="40.625" x="672.9167" y="1093.1783">Target</text><polygon fill="#009FDB" points="304.6875,100.9766,315.1042,105.1432,304.6875,109.3099,308.8542,105.1432" style="stroke:#009FDB;stroke-width:1.0416666666666667;"/><line style="stroke:#009FDB;stroke-width:3.125;" x1="77.6042" x2="310.9375" y1="105.1432" y2="105.1432"/><text fill="#5A5A5A" font-family="&quot;Verdana&quot;" font-size="12.5" lengthAdjust="spacing" textLength="140.625" x="93.2292" y="91.7786">command 'bpoint 0x...'</text><polygon fill="#009FDB" points="491.1458,146.7773,501.5625,150.944,491.1458,155.1107,495.3125,150.944" style="stroke:#009FDB;stroke-width:1.0416666666666667;"/><line style="stroke:#009FDB;stroke-width:3.125;" x1="317.1875" x2="497.3958" y1="150.944" y2="150.944"/><text fill="#5A5A5A" font-family="&quot;Verdana&quot;" font-size="12.5" lengthAdjust="spacing" textLength="78.125" x="332.8125" y="137.5793">MSG_SET_BP</text><polygon fill="#009FDB" points="328.6458,192.5781,318.2292,196.7448,328.6458,200.9115,324.4792,196.7448" style="stroke:#009FDB;stroke-width:1.0416666666666667;"/><line style="stroke:#009FDB;stroke-width:3.125;" x1="322.3958" x2="502.6042" y1="196.7448" y2="196.7448"/><text fill="#5A5A5A" font-family="&quot;Verdana&quot;" font-size="12.5" lengthAdjust="spacing" textLength="59.375" x="343.2292" y="183.3801">MSG_ACK</text><polygon fill="#009FDB" points="304.6875,238.3789,315.1042,242.5456,304.6875,246.7122,308.8542,242.5456" style="stroke:#009FDB;stroke-width:1.0416666666666667;"/><line style="stroke:#009FDB;stroke-width:3.125;" x1="77.6042" x2="310.9375" y1="242.5456" y2="242.5456"/><text fill="#5A5A5A" font-family="&quot;Verdana&quot;" font-size="12.5" lengthAdjust="spacing" textLength="91.6667" x="93.2292" y="229.1809">command 'run'</text><polygon fill="#009FDB" points="491.1458,284.1797,501.5625,288.3464,491.1458,292.513,495.3125,288.3464" style="stroke:#009FDB;stroke-width:1.0416666666666667;"/><line style="stroke:#009FDB;stroke-width:3.125;" x1="317.1875" x2="497.3958" y1="288.3464" y2="288.3464"/><text fill="#5A5A5A" font-family="&quot;Verdana&quot;" font-size="12.5" lengthAdjust="spacing" textLength="59.375" x="332.8125" y="274.9817">MSG_RUN</text><polygon fill="#009FDB" points="328.6458,329.9805,318.2292,334.1471,328.6458,338.3138,324.4792,334.1471" style="stroke:#009FDB;stroke-width:1.0416666666666667;"/><line style="stroke:#009FDB;stroke-width:3.125;" x1="322.3958" x2="502.6042" y1="334.1471" y2="334.1471"/><text fill="#5A5A5A" font-family="&quot;Verdana&quot;" font-size="12.5" lengthAdjust="spacing" textLength="59.375" x="343.2292" y="320.7825">MSG_ACK</text><polygon fill="#009FDB" points="680.7292,375.7813,691.1458,379.9479,680.7292,384.1146,684.8958,379.9479" style="stroke:#009FDB;stroke-width:1.0416666666666667;"/><line style="stroke:#009FDB;stroke-width:3.125;" x1="503.6458" x2="686.9792" y1="379.9479" y2="379.9479"/><text fill="#5A5A5A" font-family="&quot;Verdana&quot;" font-size="12.5" lengthAdjust="spacing" textLength="68.75" x="519.2708" y="366.5833">runs target</text><line style="stroke:#009FDB;stroke-width:3.125;" x1="693.2292" x2="736.9792" y1="425.7487" y2="425.7487"/><line style="stroke:#009FDB;stroke-width:3.125;" x1="736.9792" x2="736.9792" y1="425.7487" y2="439.2904"/><line style="stroke:#009FDB;stroke-width:3.125;" x1="694.2708" x2="736.9792" y1="439.2904" y2="439.2904"/><polygon fill="#009FDB" points="704.6875,435.1237,694.2708,439.2904,704.6875,443.457,700.5208,439.2904" style="stroke:#009FDB;stroke-width:1.0416666666666667;"/><text fill="#5A5A5A" font-family="&quot;Verdana&quot;" font-size="12.5" lengthAdjust="spacing" textLength="322.9167" x="708.8542" y="412.384">target runs until a breakpoint / next instruction is hit</text><polygon fill="#009FDB" points="515.1042,480.9245,504.6875,485.0911,515.1042,489.2578,510.9375,485.0911" style="stroke:#009FDB;stroke-width:1.0416666666666667;"/><line style="stroke:#009FDB;stroke-width:3.125;" x1="508.8542" x2="692.1875" y1="485.0911" y2="485.0911"/><text fill="#5A5A5A" font-family="&quot;Verdana&quot;" font-size="12.5" lengthAdjust="spacing" textLength="147.9167" x="529.6875" y="471.7265">handles stopped target</text><polygon fill="#009FDB" points="328.6458,526.7253,318.2292,530.8919,328.6458,535.0586,324.4792,530.8919" style="stroke:#009FDB;stroke-width:1.0416666666666667;"/><line style="stroke:#009FDB;stroke-width:3.125;" x1="322.3958" x2="502.6042" y1="530.8919" y2="530.8919"/><text fill="#5A5A5A" font-family="&quot;Verdana&quot;" font-size="12.5" lengthAdjust="spacing" textLength="142.7083" x="343.2292" y="517.5273">MSG_TARGET_STOPPED</text><polygon fill="#009FDB" points="491.1458,572.526,501.5625,576.6927,491.1458,580.8594,495.3125,576.6927" style="stroke:#009FDB;stroke-width:1.0416666666666667;"/><line style="stroke:#009FDB;stroke-width:3.125;" x1="317.1875" x2="497.3958" y1="576.6927" y2="576.6927"/><text fill="#5A5A5A" font-family="&quot;Verdana&quot;" font-size="12.5" lengthAdjust="spacing" textLength="59.375" x="332.8125" y="563.328">MSG_ACK</text><polygon fill="#009FDB" points="89.0625,618.3268,78.6458,622.4935,89.0625,626.6602,84.8958,622.4935" style="stroke:#009FDB;stroke-width:1.0416666666666667;"/><line style="stroke:#009FDB;stroke-width:3.125;" x1="82.8125" x2="316.1458" y1="622.4935" y2="622.4935"/><text fill="#5A5A5A" font-family="&quot;Verdana&quot;" font-size="12.5" lengthAdjust="spacing" textLength="197.9167" x="103.6458" y="609.1288">display target infos and prompt</text><polygon fill="#009FDB" points="304.6875,664.1276,315.1042,668.2943,304.6875,672.4609,308.8542,668.2943" style="stroke:#009FDB;stroke-width:1.0416666666666667;"/><line style="stroke:#009FDB;stroke-width:3.125;" x1="77.6042" x2="310.9375" y1="668.2943" y2="668.2943"/><text fill="#5A5A5A" font-family="&quot;Verdana&quot;" font-size="12.5" lengthAdjust="spacing" textLength="171.875" x="93.2292" y="654.9296">command 'continue' / 'step'</text><polygon fill="#009FDB" points="491.1458,709.9284,501.5625,714.0951,491.1458,718.2617,495.3125,714.0951" style="stroke:#009FDB;stroke-width:1.0416666666666667;"/><line style="stroke:#009FDB;stroke-width:3.125;" x1="317.1875" x2="497.3958" y1="714.0951" y2="714.0951"/><text fill="#5A5A5A" font-family="&quot;Verdana&quot;" font-size="12.5" lengthAdjust="spacing" textLength="144.7917" x="332.8125" y="700.7304">MSG_CONT / MSG_STEP</text><polygon fill="#009FDB" points="328.6458,755.7292,318.2292,759.8958,328.6458,764.0625,324.4792,759.8958" style="stroke:#009FDB;stroke-width:1.0416666666666667;"/><line style="stroke:#009FDB;stroke-width:3.125;" x1="322.3958" x2="502.6042" y1="759.8958" y2="759.8958"/><text fill="#5A5A5A" font-family="&quot;Verdana&quot;" font-size="12.5" lengthAdjust="spacing" textLength="59.375" x="343.2292" y="746.5312">MSG_ACK</text><polygon fill="#009FDB" points="680.7292,801.5299,691.1458,805.6966,680.7292,809.8633,684.8958,805.6966" style="stroke:#009FDB;stroke-width:1.0416666666666667;"/><line style="stroke:#009FDB;stroke-width:3.125;" x1="503.6458" x2="686.9792" y1="805.6966" y2="805.6966"/><text fill="#5A5A5A" font-family="&quot;Verdana&quot;" font-size="12.5" lengthAdjust="spacing" textLength="102.0833" x="519.2708" y="792.3319">continues target</text><line style="stroke:#009FDB;stroke-width:3.125;" x1="693.2292" x2="736.9792" y1="851.4974" y2="851.4974"/><line style="stroke:#009FDB;stroke-width:3.125;" x1="736.9792" x2="736.9792" y1="851.4974" y2="865.0391"/><line style="stroke:#009FDB;stroke-width:3.125;" x1="694.2708" x2="736.9792" y1="865.0391" y2="865.0391"/><polygon fill="#009FDB" points="704.6875,860.8724,694.2708,865.0391,704.6875,869.2057,700.5208,865.0391" style="stroke:#009FDB;stroke-width:1.0416666666666667;"/><text fill="#5A5A5A" font-family="&quot;Verdana&quot;" font-size="12.5" lengthAdjust="spacing" textLength="171.875" x="708.8542" y="838.1327">target runs until completion</text><polygon fill="#009FDB" points="515.1042,906.6732,504.6875,910.8398,515.1042,915.0065,510.9375,910.8398" style="stroke:#009FDB;stroke-width:1.0416666666666667;"/><line style="stroke:#009FDB;stroke-width:3.125;" x1="508.8542" x2="692.1875" y1="910.8398" y2="910.8398"/><text fill="#5A5A5A" font-family="&quot;Verdana&quot;" font-size="12.5" lengthAdjust="spacing" textLength="147.9167" x="529.6875" y="897.4752">handles stopped target</text><polygon fill="#009FDB" points="328.6458,952.474,318.2292,956.6406,328.6458,960.8073,324.4792,956.6406" style="stroke:#009FDB;stroke-width:1.0416666666666667;"/><line style="stroke:#009FDB;stroke-width:3.125;" x1="322.3958" x2="502.6042" y1="956.6406" y2="956.6406"/><text fill="#5A5A5A" font-family="&quot;Verdana&quot;" font-size="12.5" lengthAdjust="spacing" textLength="142.7083" x="343.2292" y="943.276">MSG_TARGET_STOPPED</text><polygon fill="#009FDB" points="491.1458,998.2747,501.5625,1002.4414,491.1458,1006.6081,495.3125,1002.4414" style="stroke:#009FDB;stroke-width:1.0416666666666667;"/><line style="stroke:#009FDB;stroke-width:3.125;" x1="317.1875" x2="497.3958" y1="1002.4414" y2="1002.4414"/><text fill="#5A5A5A" font-family="&quot;Verdana&quot;" font-size="12.5" lengthAdjust="spacing" textLength="59.375" x="332.8125" y="989.0767">MSG_ACK</text><polygon fill="#009FDB" points="89.0625,1044.0755,78.6458,1048.2422,89.0625,1052.4089,84.8958,1048.2422" style="stroke:#009FDB;stroke-width:1.0416666666666667;"/><line style="stroke:#009FDB;stroke-width:3.125;" x1="82.8125" x2="316.1458" y1="1048.2422" y2="1048.2422"/><text fill="#5A5A5A" font-family="&quot;Verdana&quot;" font-size="12.5" lengthAdjust="spacing" textLength="197.9167" x="103.6458" y="1034.8775">display target infos and prompt</text><!--SRC=[pP4nRy8m48Nt_8hhbAbfvmn8b4PKge28c1avoK6i9hPbdoluzxMn8XYIWQsZxvtUlVVvXJeS4EhUuTdmQtAmQE1r0L_AKWwD6WOkMqXhhOGaUBzaMPOcGGnB5PfVD3biglMnAjZneqpYwEuGfENgUyxNE3bjjpziPxtkSyRD6RtYRIpGxP74sQCQXRZa98aUEDG6-KyizGOIBmH2MZAk8Q4a20kTUBGQetK-TOyMB2cjiHrlJYLbo_tQCwdOhYoBpycIeSmu3u1oQ8NLFR-EaOKyAGk1b3Pgq3I7iL6-bdIO-ZAf9TJJK5UxBVCRj-zYHVa4uF70KvHzFDrZ0Fh_IFu1]--></g></svg>