<?xml version="1.0" encoding="us-ascii" standalone="no"?><svg xmlns="http://www.w3.org/2000/svg" xmlns:xlink="http://www.w3.org/1999/xlink" contentStyleType="text/css" height="80%" preserveAspectRatio="none" version="1.1" viewBox="0 0 3639 1445" width="80%" zoomAndPan="magnify"><defs/><g><rect fill="#CCCCCC" height="54.9219" rx="12.5" ry="12.5" style="stroke:#AAAAAA;stroke-width:1.5;" width="188" x="1620" y="694.2969"/><text fill="#000000" font-family="Verdana" font-size="30" lengthAdjust="spacing" textLength="168" x="1630" y="732.1436">Kenntnisse</text><rect fill="#80DFFF" height="54.9219" rx="12.5" ry="12.5" style="stroke:#AAAAAA;stroke-width:1.5;" width="354" x="1858" y="432.0703"/><text fill="#000000" font-family="Verdana" font-size="30" lengthAdjust="spacing" textLength="334" x="1868" y="469.917">Software-Entwicklung</text><rect fill="#80DFFF" height="54.9219" rx="12.5" ry="12.5" style="stroke:#AAAAAA;stroke-width:1.5;" width="164" x="2262" y="169.8438"/><text fill="#000000" font-family="Verdana" font-size="30" lengthAdjust="spacing" textLength="144" x="2272" y="207.6904">Sprachen</text><rect fill="#00BFFF" height="54.9219" rx="12.5" ry="12.5" style="stroke:#AAAAAA;stroke-width:1.5;" width="125" x="2476" y="20"/><text fill="#000000" font-family="Verdana" font-size="30" lengthAdjust="spacing" textLength="105" x="2486" y="57.8467">Python</text><path d="M2426,197.3047 L2436,197.3047 C2451,197.3047 2451,47.4609 2466,47.4609 L2476,47.4609 " fill="none" style="stroke:#000000;stroke-width:3.0;"/><rect fill="#80DFFF" height="54.9219" rx="12.5" ry="12.5" style="stroke:#AAAAAA;stroke-width:1.5;" width="80" x="2476" y="94.9219"/><text fill="#000000" font-family="Verdana" font-size="30" lengthAdjust="spacing" textLength="60" x="2486" y="132.7686">SQL</text><path d="M2426,197.3047 L2436,197.3047 C2451,197.3047 2451,122.3828 2466,122.3828 L2476,122.3828 " fill="none" style="stroke:#000000;stroke-width:3.0;"/><rect fill="#80DFFF" height="54.9219" rx="12.5" ry="12.5" style="stroke:#AAAAAA;stroke-width:1.5;" width="41" x="2476" y="169.8438"/><text fill="#000000" font-family="Verdana" font-size="30" lengthAdjust="spacing" textLength="21" x="2486" y="207.6904">C</text><path d="M2426,197.3047 L2436,197.3047 C2451,197.3047 2451,197.3047 2466,197.3047 L2476,197.3047 " fill="none" style="stroke:#000000;stroke-width:3.0;"/><rect fill="#CCF2FF" height="54.9219" rx="12.5" ry="12.5" style="stroke:#AAAAAA;stroke-width:1.5;" width="91" x="2476" y="244.7656"/><text fill="#000000" font-family="Verdana" font-size="30" lengthAdjust="spacing" textLength="71" x="2486" y="282.6123">C++</text><path d="M2426,197.3047 L2436,197.3047 C2451,197.3047 2451,272.2266 2466,272.2266 L2476,272.2266 " fill="none" style="stroke:#000000;stroke-width:3.0;"/><rect fill="#CCF2FF" height="54.9219" rx="12.5" ry="12.5" style="stroke:#AAAAAA;stroke-width:1.5;" width="348" x="2476" y="319.6875"/><text fill="#000000" font-family="Verdana" font-size="30" lengthAdjust="spacing" textLength="328" x="2486" y="357.5342">Assembler (Intel x86)</text><path d="M2426,197.3047 L2436,197.3047 C2451,197.3047 2451,347.1484 2466,347.1484 L2476,347.1484 " fill="none" style="stroke:#000000;stroke-width:3.0;"/><path d="M2212,459.5313 L2222,459.5313 C2237,459.5313 2237,197.3047 2252,197.3047 L2262,197.3047 " fill="none" style="stroke:#000000;stroke-width:3.0;"/><rect fill="#80DFFF" height="54.9219" rx="12.5" ry="12.5" style="stroke:#AAAAAA;stroke-width:1.5;" width="525" x="2262" y="394.6094"/><text fill="#000000" font-family="Verdana" font-size="30" lengthAdjust="spacing" textLength="505" x="2272" y="432.4561">Datenformate: XML, JSON, ASN.1</text><path d="M2212,459.5313 L2222,459.5313 C2237,459.5313 2237,422.0703 2252,422.0703 L2262,422.0703 " fill="none" style="stroke:#000000;stroke-width:3.0;"/><rect fill="#80DFFF" height="54.9219" rx="12.5" ry="12.5" style="stroke:#AAAAAA;stroke-width:1.5;" width="102" x="2262" y="581.9141"/><text fill="#000000" font-family="Verdana" font-size="30" lengthAdjust="spacing" textLength="82" x="2272" y="619.7607">Tools</text><rect fill="#80DFFF" height="54.9219" rx="12.5" ry="12.5" style="stroke:#AAAAAA;stroke-width:1.5;" width="717" x="2414" y="469.5313"/><text fill="#000000" font-family="Verdana" font-size="30" lengthAdjust="spacing" textLength="697" x="2424" y="507.3779">Versionsverwaltung: Git / GitHub, Subversion</text><path d="M2364,609.375 L2374,609.375 C2389,609.375 2389,496.9922 2404,496.9922 L2414,496.9922 " fill="none" style="stroke:#000000;stroke-width:3.0;"/><rect fill="#80DFFF" height="54.9219" rx="12.5" ry="12.5" style="stroke:#AAAAAA;stroke-width:1.5;" width="466" x="2414" y="544.4531"/><text fill="#000000" font-family="Verdana" font-size="30" lengthAdjust="spacing" textLength="446" x="2424" y="582.2998">Build / CI / CD: make, Jenkins</text><path d="M2364,609.375 L2374,609.375 C2389,609.375 2389,571.9141 2404,571.9141 L2414,571.9141 " fill="none" style="stroke:#000000;stroke-width:3.0;"/><rect fill="#80DFFF" height="54.9219" rx="12.5" ry="12.5" style="stroke:#AAAAAA;stroke-width:1.5;" width="749" x="2414" y="619.375"/><text fill="#000000" font-family="Verdana" font-size="30" lengthAdjust="spacing" textLength="729" x="2424" y="657.2217">Dokumentation: Markdown, AsciiDoc, PlantUML</text><path d="M2364,609.375 L2374,609.375 C2389,609.375 2389,646.8359 2404,646.8359 L2414,646.8359 " fill="none" style="stroke:#000000;stroke-width:3.0;"/><rect fill="#80DFFF" height="54.9219" rx="12.5" ry="12.5" style="stroke:#AAAAAA;stroke-width:1.5;" width="892" x="2414" y="694.2969"/><text fill="#000000" font-family="Verdana" font-size="30" lengthAdjust="spacing" textLength="872" x="2424" y="732.1436">Debugging: gdb / pwndbg, strace / ltrace, perf, objdump</text><path d="M2364,609.375 L2374,609.375 C2389,609.375 2389,721.7578 2404,721.7578 L2414,721.7578 " fill="none" style="stroke:#000000;stroke-width:3.0;"/><path d="M2212,459.5313 L2222,459.5313 C2237,459.5313 2237,609.375 2252,609.375 L2262,609.375 " fill="none" style="stroke:#000000;stroke-width:3.0;"/><rect fill="#CCF2FF" height="54.9219" rx="12.5" ry="12.5" style="stroke:#AAAAAA;stroke-width:1.5;" width="680" x="2262" y="769.2188"/><text fill="#000000" font-family="Verdana" font-size="30" lengthAdjust="spacing" textLength="660" x="2272" y="807.0654">Objektorientiertes Design, Design Patterns</text><path d="M2212,459.5313 L2222,459.5313 C2237,459.5313 2237,796.6797 2252,796.6797 L2262,796.6797 " fill="none" style="stroke:#000000;stroke-width:3.0;"/><rect fill="#CCF2FF" height="54.9219" rx="12.5" ry="12.5" style="stroke:#AAAAAA;stroke-width:1.5;" width="657" x="2262" y="844.1406"/><text fill="#000000" font-family="Verdana" font-size="30" lengthAdjust="spacing" textLength="637" x="2272" y="881.9873">Architektur von Enterprise-Anwendungen</text><path d="M2212,459.5313 L2222,459.5313 C2237,459.5313 2237,871.6016 2252,871.6016 L2262,871.6016 " fill="none" style="stroke:#000000;stroke-width:3.0;"/><path d="M1808,721.7578 L1818,721.7578 C1833,721.7578 1833,459.5313 1848,459.5313 L1858,459.5313 " fill="none" style="stroke:#000000;stroke-width:3.0;"/><rect fill="#66CC99" height="54.9219" rx="12.5" ry="12.5" style="stroke:#AAAAAA;stroke-width:1.5;" width="276" x="1858" y="1143.8281"/><text fill="#000000" font-family="Verdana" font-size="30" lengthAdjust="spacing" textLength="256" x="1868" y="1181.6748">Betriebssysteme</text><rect fill="#66CC99" height="54.9219" rx="12.5" ry="12.5" style="stroke:#AAAAAA;stroke-width:1.5;" width="298" x="2184" y="919.0625"/><text fill="#000000" font-family="Verdana" font-size="30" lengthAdjust="spacing" textLength="278" x="2194" y="956.9092">Desgin / Konzepte</text><path d="M2134,1171.2891 L2144,1171.2891 C2159,1171.2891 2159,946.5234 2174,946.5234 L2184,946.5234 " fill="none" style="stroke:#000000;stroke-width:3.0;"/><rect fill="#39AC73" height="54.9219" rx="12.5" ry="12.5" style="stroke:#AAAAAA;stroke-width:1.5;" width="482" x="2184" y="993.9844"/><text fill="#000000" font-family="Verdana" font-size="30" lengthAdjust="spacing" textLength="462" x="2194" y="1031.8311">Unix Power User (Shell, Tools)</text><path d="M2134,1171.2891 L2144,1171.2891 C2159,1171.2891 2159,1021.4453 2174,1021.4453 L2184,1021.4453 " fill="none" style="stroke:#000000;stroke-width:3.0;"/><rect fill="#66CC99" height="54.9219" rx="12.5" ry="12.5" style="stroke:#AAAAAA;stroke-width:1.5;" width="357" x="2184" y="1181.2891"/><text fill="#000000" font-family="Verdana" font-size="30" lengthAdjust="spacing" textLength="337" x="2194" y="1219.1357">Systemadministration</text><rect fill="#39AC73" height="54.9219" rx="12.5" ry="12.5" style="stroke:#AAAAAA;stroke-width:1.5;" width="348" x="2591" y="1068.9063"/><text fill="#000000" font-family="Verdana" font-size="30" lengthAdjust="spacing" textLength="328" x="2601" y="1106.7529">Server: Linux, Solaris</text><path d="M2541,1208.75 L2551,1208.75 C2566,1208.75 2566,1096.3672 2581,1096.3672 L2591,1096.3672 " fill="none" style="stroke:#000000;stroke-width:3.0;"/><rect fill="#39AC73" height="54.9219" rx="12.5" ry="12.5" style="stroke:#AAAAAA;stroke-width:1.5;" width="781" x="2591" y="1143.8281"/><text fill="#000000" font-family="Verdana" font-size="30" lengthAdjust="spacing" textLength="761" x="2601" y="1181.6748">Monitoring: Nagios / Icinga, Prometheus, Grafana</text><path d="M2541,1208.75 L2551,1208.75 C2566,1208.75 2566,1171.2891 2581,1171.2891 L2591,1171.2891 " fill="none" style="stroke:#000000;stroke-width:3.0;"/><rect fill="#66CC99" height="54.9219" rx="12.5" ry="12.5" style="stroke:#AAAAAA;stroke-width:1.5;" width="1036" x="2591" y="1218.75"/><text fill="#000000" font-family="Verdana" font-size="30" lengthAdjust="spacing" textLength="1016" x="2601" y="1256.5967">Container / Container-Plattformen: Docker, Kubernetes, OpenShift</text><path d="M2541,1208.75 L2551,1208.75 C2566,1208.75 2566,1246.2109 2581,1246.2109 L2591,1246.2109 " fill="none" style="stroke:#000000;stroke-width:3.0;"/><rect fill="#66CC99" height="54.9219" rx="12.5" ry="12.5" style="stroke:#AAAAAA;stroke-width:1.5;" width="499" x="2591" y="1293.6719"/><text fill="#000000" font-family="Verdana" font-size="30" lengthAdjust="spacing" textLength="479" x="2601" y="1331.5186">Infrastructure as Code: Ansible</text><path d="M2541,1208.75 L2551,1208.75 C2566,1208.75 2566,1321.1328 2581,1321.1328 L2591,1321.1328 " fill="none" style="stroke:#000000;stroke-width:3.0;"/><path d="M2134,1171.2891 L2144,1171.2891 C2159,1171.2891 2159,1208.75 2174,1208.75 L2184,1208.75 " fill="none" style="stroke:#000000;stroke-width:3.0;"/><rect fill="#9FDFBF" height="54.9219" rx="12.5" ry="12.5" style="stroke:#AAAAAA;stroke-width:1.5;" width="688" x="2184" y="1368.5938"/><text fill="#000000" font-family="Verdana" font-size="30" lengthAdjust="spacing" textLength="668" x="2194" y="1406.4404">Systemnahe Programmierung (unter Linux)</text><path d="M2134,1171.2891 L2144,1171.2891 C2159,1171.2891 2159,1396.0547 2174,1396.0547 L2184,1396.0547 " fill="none" style="stroke:#000000;stroke-width:3.0;"/><path d="M1808,721.7578 L1818,721.7578 C1833,721.7578 1833,1171.2891 1848,1171.2891 L1858,1171.2891 " fill="none" style="stroke:#000000;stroke-width:3.0;"/><rect fill="#C180FF" height="54.9219" rx="12.5" ry="12.5" style="stroke:#AAAAAA;stroke-width:1.5;" width="518" x="1052" y="564.4531"/><text fill="#000000" font-family="Verdana" font-size="30" lengthAdjust="spacing" textLength="498" x="1062" y="602.2998">Netzwerke / Telekommunikation</text><rect fill="#C180FF" height="54.9219" rx="12.5" ry="12.5" style="stroke:#AAAAAA;stroke-width:1.5;" width="660" x="342" y="117.4609"/><text fill="#000000" font-family="Verdana" font-size="30" lengthAdjust="spacing" textLength="640" x="352" y="155.3076">Architektur / Konzepte verteilter Systeme</text><path d="M1052,591.9141 L1042,591.9141 C1027,591.9141 1027,144.9219 1012,144.9219 L1002,144.9219 " fill="none" style="stroke:#000000;stroke-width:3.0;"/><rect fill="#C180FF" height="89.8438" rx="12.5" ry="12.5" style="stroke:#AAAAAA;stroke-width:1.5;" width="639" x="363" y="192.3828"/><text fill="#000000" font-family="Verdana" font-size="30" lengthAdjust="spacing" textLength="603" x="373" y="230.2295">Netzwerk- und Systemarchitekturen im</text><text fill="#000000" font-family="Verdana" font-size="30" lengthAdjust="spacing" textLength="619" x="373" y="265.1514">Telekommunikationsbereich (Mobilfunk)</text><path d="M1052,591.9141 L1042,591.9141 C1027,591.9141 1027,237.3047 1012,237.3047 L1002,237.3047 " fill="none" style="stroke:#000000;stroke-width:3.0;"/><rect fill="#C180FF" height="54.9219" rx="12.5" ry="12.5" style="stroke:#AAAAAA;stroke-width:1.5;" width="175" x="827" y="452.0703"/><text fill="#000000" font-family="Verdana" font-size="30" lengthAdjust="spacing" textLength="155" x="837" y="489.917">Protokolle</text><rect fill="#9C33FF" height="54.9219" rx="12.5" ry="12.5" style="stroke:#AAAAAA;stroke-width:1.5;" width="115" x="662" y="302.2266"/><text fill="#000000" font-family="Verdana" font-size="30" lengthAdjust="spacing" textLength="95" x="672" y="340.0732">TCP/IP</text><path d="M827,479.5313 L817,479.5313 C802,479.5313 802,329.6875 787,329.6875 L777,329.6875 " fill="none" style="stroke:#000000;stroke-width:3.0;"/><rect fill="#9C33FF" height="54.9219" rx="12.5" ry="12.5" style="stroke:#AAAAAA;stroke-width:1.5;" width="141" x="636" y="377.1484"/><text fill="#000000" font-family="Verdana" font-size="30" lengthAdjust="spacing" textLength="121" x="646" y="414.9951">HTTP(S)</text><path d="M827,479.5313 L817,479.5313 C802,479.5313 802,404.6094 787,404.6094 L777,404.6094 " fill="none" style="stroke:#000000;stroke-width:3.0;"/><rect fill="#C180FF" height="54.9219" rx="12.5" ry="12.5" style="stroke:#AAAAAA;stroke-width:1.5;" width="85" x="692" y="452.0703"/><text fill="#000000" font-family="Verdana" font-size="30" lengthAdjust="spacing" textLength="65" x="702" y="489.917">DNS</text><path d="M827,479.5313 L817,479.5313 C802,479.5313 802,479.5313 787,479.5313 L777,479.5313 " fill="none" style="stroke:#000000;stroke-width:3.0;"/><rect fill="#C180FF" height="54.9219" rx="12.5" ry="12.5" style="stroke:#AAAAAA;stroke-width:1.5;" width="163" x="614" y="526.9922"/><text fill="#000000" font-family="Verdana" font-size="30" lengthAdjust="spacing" textLength="143" x="624" y="564.8389">Diameter</text><path d="M827,479.5313 L817,479.5313 C802,479.5313 802,554.4531 787,554.4531 L777,554.4531 " fill="none" style="stroke:#000000;stroke-width:3.0;"/><rect fill="#E6CCFF" height="54.9219" rx="12.5" ry="12.5" style="stroke:#AAAAAA;stroke-width:1.5;" width="99" x="678" y="601.9141"/><text fill="#000000" font-family="Verdana" font-size="30" lengthAdjust="spacing" textLength="79" x="688" y="639.7607">LDAP</text><path d="M827,479.5313 L817,479.5313 C802,479.5313 802,629.375 787,629.375 L777,629.375 " fill="none" style="stroke:#000000;stroke-width:3.0;"/><path d="M1052,591.9141 L1042,591.9141 C1027,591.9141 1027,479.5313 1012,479.5313 L1002,479.5313 " fill="none" style="stroke:#000000;stroke-width:3.0;"/><rect fill="#9C33FF" height="89.8438" rx="12.5" ry="12.5" style="stroke:#AAAAAA;stroke-width:1.5;" width="864" x="138" y="676.8359"/><text fill="#000000" font-family="Verdana" font-size="30" lengthAdjust="spacing" textLength="834" x="148" y="714.6826">Debugging-Tools: tcpdump, Wireshark, netcat / socat,</text><text fill="#000000" font-family="Verdana" font-size="30" lengthAdjust="spacing" textLength="420" x="148" y="749.6045">nmap, curl, mitmproxy, dig</text><path d="M1052,591.9141 L1042,591.9141 C1027,591.9141 1027,721.7578 1012,721.7578 L1002,721.7578 " fill="none" style="stroke:#000000;stroke-width:3.0;"/><rect fill="#C180FF" height="54.9219" rx="12.5" ry="12.5" style="stroke:#AAAAAA;stroke-width:1.5;" width="905" x="97" y="786.6797"/><text fill="#000000" font-family="Verdana" font-size="30" lengthAdjust="spacing" textLength="885" x="107" y="824.5264">Netzwerkprogrammierung (Sockets, CORBA, SOAP, REST)</text><path d="M1052,591.9141 L1042,591.9141 C1027,591.9141 1027,814.1406 1012,814.1406 L1002,814.1406 " fill="none" style="stroke:#000000;stroke-width:3.0;"/><rect fill="#E6CCFF" height="54.9219" rx="12.5" ry="12.5" style="stroke:#AAAAAA;stroke-width:1.5;" width="643" x="359" y="861.6016"/><text fill="#000000" font-family="Verdana" font-size="30" lengthAdjust="spacing" textLength="623" x="369" y="899.4482">Implementierung von Protokoll-Software</text><path d="M1052,591.9141 L1042,591.9141 C1027,591.9141 1027,889.0625 1012,889.0625 L1002,889.0625 " fill="none" style="stroke:#000000;stroke-width:3.0;"/><rect fill="#E6CCFF" height="54.9219" rx="12.5" ry="12.5" style="stroke:#AAAAAA;stroke-width:1.5;" width="992" x="10" y="936.5234"/><text fill="#000000" font-family="Verdana" font-size="30" lengthAdjust="spacing" textLength="972" x="20" y="974.3701">Betrieb von Server Software: Apache, Postfix, Samba / Winbind</text><path d="M1052,591.9141 L1042,591.9141 C1027,591.9141 1027,963.9844 1012,963.9844 L1002,963.9844 " fill="none" style="stroke:#000000;stroke-width:3.0;"/><rect fill="#E6CCFF" height="54.9219" rx="12.5" ry="12.5" style="stroke:#AAAAAA;stroke-width:1.5;" width="697" x="305" y="1011.4453"/><text fill="#000000" font-family="Verdana" font-size="30" lengthAdjust="spacing" textLength="677" x="315" y="1049.292">Benutzerverwaltung mit LDAP und Kerberos</text><path d="M1052,591.9141 L1042,591.9141 C1027,591.9141 1027,1038.9063 1012,1038.9063 L1002,1038.9063 " fill="none" style="stroke:#000000;stroke-width:3.0;"/><path d="M1620,721.7578 L1610,721.7578 C1595,721.7578 1595,591.9141 1580,591.9141 L1570,591.9141 " fill="none" style="stroke:#000000;stroke-width:3.0;"/><rect fill="#FFCC99" height="54.9219" rx="12.5" ry="12.5" style="stroke:#AAAAAA;stroke-width:1.5;" width="213" x="1357" y="1178.75"/><text fill="#000000" font-family="Verdana" font-size="30" lengthAdjust="spacing" textLength="193" x="1367" y="1216.5967">IT-Sicherheit</text><rect fill="#FFCC99" height="89.8438" rx="12.5" ry="12.5" style="stroke:#AAAAAA;stroke-width:1.5;" width="935" x="372" y="1086.3672"/><text fill="#000000" font-family="Verdana" font-size="30" lengthAdjust="spacing" textLength="563" x="382" y="1124.2139">Angriffsmethoden / Angriffsvektoren</text><text fill="#000000" font-family="Verdana" font-size="30" lengthAdjust="spacing" textLength="915" x="382" y="1159.1357">(Puffer&#252;berl&#228;ufe, Use-After-Free, SQL Injection, XSS, DDOS)</text><path d="M1357,1206.2109 L1347,1206.2109 C1332,1206.2109 1332,1131.2891 1317,1131.2891 L1307,1131.2891 " fill="none" style="stroke:#000000;stroke-width:3.0;"/><rect fill="#FFCC99" height="54.9219" rx="12.5" ry="12.5" style="stroke:#AAAAAA;stroke-width:1.5;" width="659" x="648" y="1196.2109"/><text fill="#000000" font-family="Verdana" font-size="30" lengthAdjust="spacing" textLength="639" x="658" y="1234.0576">H&#228;rten von Systemen (unter Unix / Linux)</text><path d="M1357,1206.2109 L1347,1206.2109 C1332,1206.2109 1332,1223.6719 1317,1223.6719 L1307,1223.6719 " fill="none" style="stroke:#000000;stroke-width:3.0;"/><rect fill="#FFCC99" height="54.9219" rx="12.5" ry="12.5" style="stroke:#AAAAAA;stroke-width:1.5;" width="921" x="386" y="1271.1328"/><text fill="#000000" font-family="Verdana" font-size="30" lengthAdjust="spacing" textLength="901" x="396" y="1308.9795">Konzepte / Konfiguration von Firewalls (netfilter / iptables)</text><path d="M1357,1206.2109 L1347,1206.2109 C1332,1206.2109 1332,1298.5938 1317,1298.5938 L1307,1298.5938 " fill="none" style="stroke:#000000;stroke-width:3.0;"/><path d="M1620,721.7578 L1610,721.7578 C1595,721.7578 1595,1206.2109 1580,1206.2109 L1570,1206.2109 " fill="none" style="stroke:#000000;stroke-width:3.0;"/><!--SRC=[xLdDSjis4BxpAT3fHPgGiMorhgt9T29BSUpOijLGJZBJv022ImaH2R00A5dk-6to6BtbnRhWZopIxh4PUMnvB0cBnMAnt_vHUAqDLIRX8anewlnaPf00KH262hJsOZwTcI3Em7cbpIg6tvsISyZfLD64_EqG8cG8-HT2ZgKmFhy1qktW-1R_gL9oMSuISiu5J6QSpGLA9zsSvzPvjLCATrwGCn322AuruEZ5dpyVTC8eYhuGNqPcIHLuRuHPee0u4rDasEH85MKp49QAv4udoCdZbPd9YhZc_UEyGHcKOyQYlNpyuaM3qaUTaY06HLgdma1ChW_ssqvTXo4r82Af4lpiaK-ZSvUyyoylNDBtBrxkDfWdKiQweSO7K9fBeHUWbZGsUCWUUSiDsR7l9rdW4ZyB5WLJO-bHnkCG6GUdzctO8mcT0-uFOiv5Sv-Xd6S924CD2kgH4LNpK2u5AgePvqF9N3AEgJ1NewQXXX1aqoctYat30BTAbo8CfYxH1kqFI8ZpBov9GKKkaS7NC4lIykoLCI-3hp0tKd7KWOCoe56mvbFKeFWaOseCg4Bn3H0Kct63IpD55b8Gz0PGgU8QlBvOWWZHOkW2XU_ixpDsU8YM0OCR1Lglj47tBYHMaxWTdWRLFfFY1b9JJdSFAVkj-uLS2NvDndA9i5zfYxq_WpXs2_0g-2jPVhu13J58k3M7kKEfakU3GlXwDXAoQqHJnXIrRp2DfE3MEDR85tJAfKRzJXcEAUAYP08OfvbsoLj58ofekRnIOu1HI37Ib7M4whk7U1fZVHCGS4Hu3iebPrc0HWQqlqikKn3-Z4Uc8UvKH8hYSJA6LWT2DGeDqRtxGdECXz86Xr4O1L5b0q5dO3MrII91W14MqieiMCN9qNAEvo6kkmSTY-i5c1kqyTpwpmHYcCiaoGIV5oRqDbatNU0EDRAmNiHZkuDVukmzj8D7CX5MIDs90a5uGZwBUvjhD11mDYEjaGnu76LYtdRgel6SHivb7ETRuiGXwtRp21-CTqx73UB9P39k-UsIMiaONlXD2gU8CwYI38Y69PyF- -Do_qhYEYIzt2jxnB3KnfnBFd9CupCCRfSWo8pQHA8bVhfuL85vt2KiK-ZE2JT9gkJroYKXdpvikRG1fszzoA3Z32xV7_NHbo_xOvUyV-DFsavDvTCaZI4f8jskj86xjfbNPVRwcZ9cSzuYPjOb03qljPaUGq5g4t4RHZG9A9xj8nS15gYcA96Pcrn6cLFjSND3vhvm1WenbhfqoIWgtNxY-OWxg1bmKqYiflfYgdWKQHk760esUrIaHPxMaFHPjCPP587w_WzAZxz_ooBK-CecgWXHzOuLu1WB4SRNLs3MrLpooVSn0Gul_NPzmvFltz2xHM6Dmhj55KzvXjgfmggsR1qSUPn4V9eLEIcNSuo-WVQ8DMcXRqH5wEmGdXgAKOsvxJMcqwenS5xN-WHyQQmgARKz0AgZG9fL2eCZokPJ9T6g0nbBHNOf9f6z3TwWmO0bnIbVTqoCAnP3E437fSngPTi7HKEUQNA0NwEgozZTBKSN62gsTeOs6TxMPCKKEusY_sXkpXX3UY1L2AgWK4fpJYkpe7GwdOVsQ2fnPuFZzT9kjtjlvcv5sHfjxf8JZkzljQPlobqJAv6MPZ1eWipSKw8sSQV3cdpAfAZ8jpKi402f_iD-U_HW7_OQ9YmX_o5Mh26DxuOpdcBNidrurttIbeeyulMMQ-h3Nna81aVo-c55eMF_6hgo_FN3rDtGbzkC6Dasz35uB9D9AWLilRzkFE1jgueXnQf5zRQhYT6KRQUE6qfc6jXMcl9_A9gtZLh75zoidjx9TPddovC_qlOdvX7ONvYEDY1QP_prvCCLh6QEm4vJjNeaLKGO9UD7eQjz1ZJRRDRQOmqrJoC9sgsmUMwW08s7kBfrP60VMfzAfgmrG-QHT9UnpCAdLyeKkYKLqtZRMq6DpzLqkfLQFj_rFD_rFD_rFD_rFD_rFD_rFD_rFBsxdgeQaBBuaDsNUvszxilz00pzjNKbvWBhH_xp9SS-o_04saxhxVWS_IrJM1T2cn7jnG8kRZllw8AIztW0vEiHEsfDHctYlwc8cDaNN4bXtSPvzs5KC94JQVnKcfnv_nVl274ilUF3o1b2HBFOu58cmpnvNasElGFd77k_3Fkg7Zw_E0Dig8nQuPp_Bm00]--></g></svg>