<?xml version="1.0" encoding="UTF-8" standalone="no"?><svg xmlns="http://www.w3.org/2000/svg" xmlns:xlink="http://www.w3.org/1999/xlink" contentScriptType="application/ecmascript" contentStyleType="text/css" height="80%" preserveAspectRatio="none" version="1.1" viewBox="0 0 3634 1511" width="80%" zoomAndPan="magnify"><defs><filter height="300%" id="fkvas9mj0n6vj" width="300%" x="-1" y="-1"><feGaussianBlur result="blurOut" stdDeviation="2.0"/><feColorMatrix in="blurOut" result="blurOut2" type="matrix" values="0 0 0 0 0 0 0 0 0 0 0 0 0 0 0 0 0 0 .4 0"/><feOffset dx="4.0" dy="4.0" in="blurOut2" result="blurOut3"/><feBlend in="SourceGraphic" in2="blurOut3" mode="normal"/></filter></defs><g><rect fill="#CCCCCC" filter="url(#fkvas9mj0n6vj)" height="56.46" rx="12.5" ry="12.5" style="stroke:#AAAAAA;stroke-width:1.5;" width="186" x="1619" y="726.3696"/><text fill="#000000" font-family="Verdana" font-size="30" lengthAdjust="spacing" textLength="166" x="1629" y="766.5308">Kenntnisse</text><rect fill="#80DFFF" filter="url(#fkvas9mj0n6vj)" height="56.46" rx="12.5" ry="12.5" style="stroke:#AAAAAA;stroke-width:1.5;" width="352" x="1855" y="458.7598"/><text fill="#000000" font-family="Verdana" font-size="30" lengthAdjust="spacing" textLength="332" x="1865" y="498.9209">Software-Entwicklung</text><rect fill="#80DFFF" filter="url(#fkvas9mj0n6vj)" height="56.46" rx="12.5" ry="12.5" style="stroke:#AAAAAA;stroke-width:1.5;" width="163" x="2257" y="172.9199"/><text fill="#000000" font-family="Verdana" font-size="30" lengthAdjust="spacing" textLength="143" x="2267" y="213.0811">Sprachen</text><rect fill="#00BFFF" filter="url(#fkvas9mj0n6vj)" height="56.46" rx="12.5" ry="12.5" style="stroke:#AAAAAA;stroke-width:1.5;" width="124" x="2470" y="20"/><text fill="#000000" font-family="Verdana" font-size="30" lengthAdjust="spacing" textLength="104" x="2480" y="60.1611">Python</text><path d="M2420,201.1499 L2430,201.1499 C2445,201.1499 2445,48.23 2460,48.23 L2470,48.23 " fill="none" style="stroke:#000000;stroke-width:3.0;"/><rect fill="#00BFFF" filter="url(#fkvas9mj0n6vj)" height="56.46" rx="12.5" ry="12.5" style="stroke:#AAAAAA;stroke-width:1.5;" width="82" x="2470" y="96.46"/><text fill="#000000" font-family="Verdana" font-size="30" lengthAdjust="spacing" textLength="62" x="2480" y="136.6211">SQL</text><path d="M2420,201.1499 L2430,201.1499 C2445,201.1499 2445,124.6899 2460,124.6899 L2470,124.6899 " fill="none" style="stroke:#000000;stroke-width:3.0;"/><rect fill="#80DFFF" filter="url(#fkvas9mj0n6vj)" height="56.46" rx="12.5" ry="12.5" style="stroke:#AAAAAA;stroke-width:1.5;" width="41" x="2470" y="172.9199"/><text fill="#000000" font-family="Verdana" font-size="30" lengthAdjust="spacing" textLength="21" x="2480" y="213.0811">C</text><path d="M2420,201.1499 L2430,201.1499 C2445,201.1499 2445,201.1499 2460,201.1499 L2470,201.1499 " fill="none" style="stroke:#000000;stroke-width:3.0;"/><rect fill="#CCF2FF" filter="url(#fkvas9mj0n6vj)" height="56.46" rx="12.5" ry="12.5" style="stroke:#AAAAAA;stroke-width:1.5;" width="91" x="2470" y="249.3799"/><text fill="#000000" font-family="Verdana" font-size="30" lengthAdjust="spacing" textLength="71" x="2480" y="289.541">C++</text><path d="M2420,201.1499 L2430,201.1499 C2445,201.1499 2445,277.6099 2460,277.6099 L2470,277.6099 " fill="none" style="stroke:#000000;stroke-width:3.0;"/><rect fill="#CCF2FF" filter="url(#fkvas9mj0n6vj)" height="56.46" rx="12.5" ry="12.5" style="stroke:#AAAAAA;stroke-width:1.5;" width="354" x="2470" y="325.8398"/><text fill="#000000" font-family="Verdana" font-size="30" lengthAdjust="spacing" textLength="334" x="2480" y="366.001">Assembler (Intel x86)</text><path d="M2420,201.1499 L2430,201.1499 C2445,201.1499 2445,354.0698 2460,354.0698 L2470,354.0698 " fill="none" style="stroke:#000000;stroke-width:3.0;"/><path d="M2207,486.9897 L2217,486.9897 C2232,486.9897 2232,201.1499 2247,201.1499 L2257,201.1499 " fill="none" style="stroke:#000000;stroke-width:3.0;"/><rect fill="#80DFFF" filter="url(#fkvas9mj0n6vj)" height="56.46" rx="12.5" ry="12.5" style="stroke:#AAAAAA;stroke-width:1.5;" width="536" x="2257" y="402.2998"/><text fill="#000000" font-family="Verdana" font-size="30" lengthAdjust="spacing" textLength="516" x="2267" y="442.4609">Datenformate: XML, JSON, ASN.1</text><path d="M2207,486.9897 L2217,486.9897 C2232,486.9897 2232,430.5298 2247,430.5298 L2257,430.5298 " fill="none" style="stroke:#000000;stroke-width:3.0;"/><rect fill="#80DFFF" filter="url(#fkvas9mj0n6vj)" height="56.46" rx="12.5" ry="12.5" style="stroke:#AAAAAA;stroke-width:1.5;" width="98" x="2257" y="611.6797"/><text fill="#000000" font-family="Verdana" font-size="30" lengthAdjust="spacing" textLength="78" x="2267" y="651.8408">Tools</text><rect fill="#80DFFF" filter="url(#fkvas9mj0n6vj)" height="56.46" rx="12.5" ry="12.5" style="stroke:#AAAAAA;stroke-width:1.5;" width="717" x="2405" y="478.7598"/><text fill="#000000" font-family="Verdana" font-size="30" lengthAdjust="spacing" textLength="697" x="2415" y="518.9209">Versionsverwaltung: Git / GitHub, Subversion</text><path d="M2355,639.9097 L2365,639.9097 C2380,639.9097 2380,506.9897 2395,506.9897 L2405,506.9897 " fill="none" style="stroke:#000000;stroke-width:3.0;"/><rect fill="#80DFFF" filter="url(#fkvas9mj0n6vj)" height="56.46" rx="12.5" ry="12.5" style="stroke:#AAAAAA;stroke-width:1.5;" width="487" x="2405" y="555.2197"/><text fill="#000000" font-family="Verdana" font-size="30" lengthAdjust="spacing" textLength="467" x="2415" y="595.3809">Build / CI / CD: make, Jenkins</text><path d="M2355,639.9097 L2365,639.9097 C2380,639.9097 2380,583.4497 2395,583.4497 L2405,583.4497 " fill="none" style="stroke:#000000;stroke-width:3.0;"/><rect fill="#80DFFF" filter="url(#fkvas9mj0n6vj)" height="56.46" rx="12.5" ry="12.5" style="stroke:#AAAAAA;stroke-width:1.5;" width="740" x="2405" y="631.6797"/><text fill="#000000" font-family="Verdana" font-size="30" lengthAdjust="spacing" textLength="720" x="2415" y="671.8408">Dokumentation: Markdown, AsciiDoc, PlantUML</text><path d="M2355,639.9097 L2365,639.9097 C2380,639.9097 2380,659.9097 2395,659.9097 L2405,659.9097 " fill="none" style="stroke:#000000;stroke-width:3.0;"/><rect fill="#CCF2FF" filter="url(#fkvas9mj0n6vj)" height="92.9199" rx="12.5" ry="12.5" style="stroke:#AAAAAA;stroke-width:1.5;" width="1027" x="2405" y="708.1396"/><text fill="#000000" font-family="Verdana" font-size="30" lengthAdjust="spacing" textLength="996" x="2415" y="748.3008">Debugging / Reverse Engineering: gdb / pwndbg, strace / ltrace,</text><text fill="#000000" font-family="Verdana" font-size="30" lengthAdjust="spacing" textLength="340" x="2415" y="784.7607">objdump, Binary Ninja</text><path d="M2355,639.9097 L2365,639.9097 C2380,639.9097 2380,754.5996 2395,754.5996 L2405,754.5996 " fill="none" style="stroke:#000000;stroke-width:3.0;"/><path d="M2207,486.9897 L2217,486.9897 C2232,486.9897 2232,639.9097 2247,639.9097 L2257,639.9097 " fill="none" style="stroke:#000000;stroke-width:3.0;"/><rect fill="#CCF2FF" filter="url(#fkvas9mj0n6vj)" height="56.46" rx="12.5" ry="12.5" style="stroke:#AAAAAA;stroke-width:1.5;" width="670" x="2257" y="821.0596"/><text fill="#000000" font-family="Verdana" font-size="30" lengthAdjust="spacing" textLength="650" x="2267" y="861.2207">Objektorientiertes Design, Design Patterns</text><path d="M2207,486.9897 L2217,486.9897 C2232,486.9897 2232,849.2896 2247,849.2896 L2257,849.2896 " fill="none" style="stroke:#000000;stroke-width:3.0;"/><rect fill="#CCF2FF" filter="url(#fkvas9mj0n6vj)" height="56.46" rx="12.5" ry="12.5" style="stroke:#AAAAAA;stroke-width:1.5;" width="650" x="2257" y="897.5195"/><text fill="#000000" font-family="Verdana" font-size="30" lengthAdjust="spacing" textLength="630" x="2267" y="937.6807">Architektur von Enterprise-Anwendungen</text><path d="M2207,486.9897 L2217,486.9897 C2232,486.9897 2232,925.7495 2247,925.7495 L2257,925.7495 " fill="none" style="stroke:#000000;stroke-width:3.0;"/><path d="M1805,754.5996 L1815,754.5996 C1830,754.5996 1830,486.9897 1845,486.9897 L1855,486.9897 " fill="none" style="stroke:#000000;stroke-width:3.0;"/><rect fill="#66CC99" filter="url(#fkvas9mj0n6vj)" height="56.46" rx="12.5" ry="12.5" style="stroke:#AAAAAA;stroke-width:1.5;" width="272" x="1855" y="1203.3594"/><text fill="#000000" font-family="Verdana" font-size="30" lengthAdjust="spacing" textLength="252" x="1865" y="1243.5205">Betriebssysteme</text><rect fill="#66CC99" filter="url(#fkvas9mj0n6vj)" height="56.46" rx="12.5" ry="12.5" style="stroke:#AAAAAA;stroke-width:1.5;" width="300" x="2177" y="973.9795"/><text fill="#000000" font-family="Verdana" font-size="30" lengthAdjust="spacing" textLength="280" x="2187" y="1014.1406">Desgin / Konzepte</text><path d="M2127,1231.5894 L2137,1231.5894 C2152,1231.5894 2152,1002.2095 2167,1002.2095 L2177,1002.2095 " fill="none" style="stroke:#000000;stroke-width:3.0;"/><rect fill="#39AC73" filter="url(#fkvas9mj0n6vj)" height="56.46" rx="12.5" ry="12.5" style="stroke:#AAAAAA;stroke-width:1.5;" width="483" x="2177" y="1050.4395"/><text fill="#000000" font-family="Verdana" font-size="30" lengthAdjust="spacing" textLength="463" x="2187" y="1090.6006">Unix Power User (Shell, Tools)</text><path d="M2127,1231.5894 L2137,1231.5894 C2152,1231.5894 2152,1078.6694 2167,1078.6694 L2177,1078.6694 " fill="none" style="stroke:#000000;stroke-width:3.0;"/><rect fill="#66CC99" filter="url(#fkvas9mj0n6vj)" height="56.46" rx="12.5" ry="12.5" style="stroke:#AAAAAA;stroke-width:1.5;" width="351" x="2177" y="1241.5894"/><text fill="#000000" font-family="Verdana" font-size="30" lengthAdjust="spacing" textLength="331" x="2187" y="1281.7505">Systemadministration</text><rect fill="#39AC73" filter="url(#fkvas9mj0n6vj)" height="56.46" rx="12.5" ry="12.5" style="stroke:#AAAAAA;stroke-width:1.5;" width="351" x="2578" y="1126.8994"/><text fill="#000000" font-family="Verdana" font-size="30" lengthAdjust="spacing" textLength="331" x="2588" y="1167.0605">Server: Linux, Solaris</text><path d="M2528,1269.8193 L2538,1269.8193 C2553,1269.8193 2553,1155.1294 2568,1155.1294 L2578,1155.1294 " fill="none" style="stroke:#000000;stroke-width:3.0;"/><rect fill="#39AC73" filter="url(#fkvas9mj0n6vj)" height="56.46" rx="12.5" ry="12.5" style="stroke:#AAAAAA;stroke-width:1.5;" width="778" x="2578" y="1203.3594"/><text fill="#000000" font-family="Verdana" font-size="30" lengthAdjust="spacing" textLength="758" x="2588" y="1243.5205">Monitoring: Nagios / Icinga, Prometheus, Grafana</text><path d="M2528,1269.8193 L2538,1269.8193 C2553,1269.8193 2553,1231.5894 2568,1231.5894 L2578,1231.5894 " fill="none" style="stroke:#000000;stroke-width:3.0;"/><rect fill="#66CC99" filter="url(#fkvas9mj0n6vj)" height="56.46" rx="12.5" ry="12.5" style="stroke:#AAAAAA;stroke-width:1.5;" width="1037" x="2578" y="1279.8193"/><text fill="#000000" font-family="Verdana" font-size="30" lengthAdjust="spacing" textLength="1017" x="2588" y="1319.9805">Container / Container-Plattformen: Docker, Kubernetes, OpenShift</text><path d="M2528,1269.8193 L2538,1269.8193 C2553,1269.8193 2553,1308.0493 2568,1308.0493 L2578,1308.0493 " fill="none" style="stroke:#000000;stroke-width:3.0;"/><rect fill="#66CC99" filter="url(#fkvas9mj0n6vj)" height="56.46" rx="12.5" ry="12.5" style="stroke:#AAAAAA;stroke-width:1.5;" width="498" x="2578" y="1356.2793"/><text fill="#000000" font-family="Verdana" font-size="30" lengthAdjust="spacing" textLength="478" x="2588" y="1396.4404">Infrastructure as Code: Ansible</text><path d="M2528,1269.8193 L2538,1269.8193 C2553,1269.8193 2553,1384.5093 2568,1384.5093 L2578,1384.5093 " fill="none" style="stroke:#000000;stroke-width:3.0;"/><path d="M2127,1231.5894 L2137,1231.5894 C2152,1231.5894 2152,1269.8193 2167,1269.8193 L2177,1269.8193 " fill="none" style="stroke:#000000;stroke-width:3.0;"/><rect fill="#9FDFBF" filter="url(#fkvas9mj0n6vj)" height="56.46" rx="12.5" ry="12.5" style="stroke:#AAAAAA;stroke-width:1.5;" width="684" x="2177" y="1432.7393"/><text fill="#000000" font-family="Verdana" font-size="30" lengthAdjust="spacing" textLength="664" x="2187" y="1472.9004">Systemnahe Programmierung (unter Linux)</text><path d="M2127,1231.5894 L2137,1231.5894 C2152,1231.5894 2152,1460.9692 2167,1460.9692 L2177,1460.9692 " fill="none" style="stroke:#000000;stroke-width:3.0;"/><path d="M1805,754.5996 L1815,754.5996 C1830,754.5996 1830,1231.5894 1845,1231.5894 L1855,1231.5894 " fill="none" style="stroke:#000000;stroke-width:3.0;"/><rect fill="#C180FF" filter="url(#fkvas9mj0n6vj)" height="56.46" rx="12.5" ry="12.5" style="stroke:#AAAAAA;stroke-width:1.5;" width="511" x="1058" y="611.6797"/><text fill="#000000" font-family="Verdana" font-size="30" lengthAdjust="spacing" textLength="491" x="1068" y="651.8408">Netzwerke / Telekommunikation</text><rect fill="#C180FF" filter="url(#fkvas9mj0n6vj)" height="56.46" rx="12.5" ry="12.5" style="stroke:#AAAAAA;stroke-width:1.5;" width="658" x="350" y="154.6899"/><text fill="#000000" font-family="Verdana" font-size="30" lengthAdjust="spacing" textLength="638" x="360" y="194.8511">Architektur / Konzepte verteilter Systeme</text><path d="M1058,639.9097 L1048,639.9097 C1033,639.9097 1033,182.9199 1018,182.9199 L1008,182.9199 " fill="none" style="stroke:#000000;stroke-width:3.0;"/><rect fill="#C180FF" filter="url(#fkvas9mj0n6vj)" height="92.9199" rx="12.5" ry="12.5" style="stroke:#AAAAAA;stroke-width:1.5;" width="631" x="377" y="231.1499"/><text fill="#000000" font-family="Verdana" font-size="30" lengthAdjust="spacing" textLength="600" x="387" y="271.311">Netzwerk- und Systemarchitekturen im</text><text fill="#000000" font-family="Verdana" font-size="30" lengthAdjust="spacing" textLength="606" x="387" y="307.771">Telekommunikationsbereich (Mobilfunk)</text><path d="M1058,639.9097 L1048,639.9097 C1033,639.9097 1033,277.6099 1018,277.6099 L1008,277.6099 " fill="none" style="stroke:#000000;stroke-width:3.0;"/><rect fill="#C180FF" filter="url(#fkvas9mj0n6vj)" height="56.46" rx="12.5" ry="12.5" style="stroke:#AAAAAA;stroke-width:1.5;" width="169" x="839" y="496.9897"/><text fill="#000000" font-family="Verdana" font-size="30" lengthAdjust="spacing" textLength="149" x="849" y="537.1509">Protokolle</text><rect fill="#9C33FF" filter="url(#fkvas9mj0n6vj)" height="56.46" rx="12.5" ry="12.5" style="stroke:#AAAAAA;stroke-width:1.5;" width="122" x="667" y="344.0698"/><text fill="#000000" font-family="Verdana" font-size="30" lengthAdjust="spacing" textLength="102" x="677" y="384.231">TCP/IP</text><path d="M839,525.2197 L829,525.2197 C814,525.2197 814,372.2998 799,372.2998 L789,372.2998 " fill="none" style="stroke:#000000;stroke-width:3.0;"/><rect fill="#C180FF" filter="url(#fkvas9mj0n6vj)" height="56.46" rx="12.5" ry="12.5" style="stroke:#AAAAAA;stroke-width:1.5;" width="86" x="703" y="420.5298"/><text fill="#000000" font-family="Verdana" font-size="30" lengthAdjust="spacing" textLength="66" x="713" y="460.6909">DNS</text><path d="M839,525.2197 L829,525.2197 C814,525.2197 814,448.7598 799,448.7598 L789,448.7598 " fill="none" style="stroke:#000000;stroke-width:3.0;"/><rect fill="#C180FF" filter="url(#fkvas9mj0n6vj)" height="56.46" rx="12.5" ry="12.5" style="stroke:#AAAAAA;stroke-width:1.5;" width="146" x="643" y="496.9897"/><text fill="#000000" font-family="Verdana" font-size="30" lengthAdjust="spacing" textLength="126" x="653" y="537.1509">HTTP(S)</text><path d="M839,525.2197 L829,525.2197 C814,525.2197 814,525.2197 799,525.2197 L789,525.2197 " fill="none" style="stroke:#000000;stroke-width:3.0;"/><rect fill="#C180FF" filter="url(#fkvas9mj0n6vj)" height="56.46" rx="12.5" ry="12.5" style="stroke:#AAAAAA;stroke-width:1.5;" width="159" x="630" y="573.4497"/><text fill="#000000" font-family="Verdana" font-size="30" lengthAdjust="spacing" textLength="139" x="640" y="613.6108">Diameter</text><path d="M839,525.2197 L829,525.2197 C814,525.2197 814,601.6797 799,601.6797 L789,601.6797 " fill="none" style="stroke:#000000;stroke-width:3.0;"/><rect fill="#E6CCFF" filter="url(#fkvas9mj0n6vj)" height="56.46" rx="12.5" ry="12.5" style="stroke:#AAAAAA;stroke-width:1.5;" width="99" x="690" y="649.9097"/><text fill="#000000" font-family="Verdana" font-size="30" lengthAdjust="spacing" textLength="79" x="700" y="690.0708">LDAP</text><path d="M839,525.2197 L829,525.2197 C814,525.2197 814,678.1396 799,678.1396 L789,678.1396 " fill="none" style="stroke:#000000;stroke-width:3.0;"/><path d="M1058,639.9097 L1048,639.9097 C1033,639.9097 1033,525.2197 1018,525.2197 L1008,525.2197 " fill="none" style="stroke:#000000;stroke-width:3.0;"/><rect fill="#9C33FF" filter="url(#fkvas9mj0n6vj)" height="92.9199" rx="12.5" ry="12.5" style="stroke:#AAAAAA;stroke-width:1.5;" width="863" x="145" y="726.3696"/><text fill="#000000" font-family="Verdana" font-size="30" lengthAdjust="spacing" textLength="832" x="155" y="766.5308">Debugging-Tools: tcpdump, Wireshark, netcat / socat,</text><text fill="#000000" font-family="Verdana" font-size="30" lengthAdjust="spacing" textLength="417" x="155" y="802.9907">nmap, curl, mitmproxy, dig</text><path d="M1058,639.9097 L1048,639.9097 C1033,639.9097 1033,772.8296 1018,772.8296 L1008,772.8296 " fill="none" style="stroke:#000000;stroke-width:3.0;"/><rect fill="#C180FF" filter="url(#fkvas9mj0n6vj)" height="56.46" rx="12.5" ry="12.5" style="stroke:#AAAAAA;stroke-width:1.5;" width="911" x="97" y="839.2896"/><text fill="#000000" font-family="Verdana" font-size="30" lengthAdjust="spacing" textLength="891" x="107" y="879.4507">Netzwerkprogrammierung (Sockets, CORBA, SOAP, REST)</text><path d="M1058,639.9097 L1048,639.9097 C1033,639.9097 1033,867.5195 1018,867.5195 L1008,867.5195 " fill="none" style="stroke:#000000;stroke-width:3.0;"/><rect fill="#E6CCFF" filter="url(#fkvas9mj0n6vj)" height="56.46" rx="12.5" ry="12.5" style="stroke:#AAAAAA;stroke-width:1.5;" width="639" x="369" y="915.7495"/><text fill="#000000" font-family="Verdana" font-size="30" lengthAdjust="spacing" textLength="619" x="379" y="955.9106">Implementierung von Protokoll-Software</text><path d="M1058,639.9097 L1048,639.9097 C1033,639.9097 1033,943.9795 1018,943.9795 L1008,943.9795 " fill="none" style="stroke:#000000;stroke-width:3.0;"/><rect fill="#E6CCFF" filter="url(#fkvas9mj0n6vj)" height="56.46" rx="12.5" ry="12.5" style="stroke:#AAAAAA;stroke-width:1.5;" width="998" x="10" y="992.2095"/><text fill="#000000" font-family="Verdana" font-size="30" lengthAdjust="spacing" textLength="978" x="20" y="1032.3706">Betrieb von Server Software: Apache, Postfix, Samba / Winbind</text><path d="M1058,639.9097 L1048,639.9097 C1033,639.9097 1033,1020.4395 1018,1020.4395 L1008,1020.4395 " fill="none" style="stroke:#000000;stroke-width:3.0;"/><rect fill="#E6CCFF" filter="url(#fkvas9mj0n6vj)" height="56.46" rx="12.5" ry="12.5" style="stroke:#AAAAAA;stroke-width:1.5;" width="690" x="318" y="1068.6694"/><text fill="#000000" font-family="Verdana" font-size="30" lengthAdjust="spacing" textLength="670" x="328" y="1108.8306">Benutzerverwaltung mit LDAP und Kerberos</text><path d="M1058,639.9097 L1048,639.9097 C1033,639.9097 1033,1096.8994 1018,1096.8994 L1008,1096.8994 " fill="none" style="stroke:#000000;stroke-width:3.0;"/><path d="M1619,754.5996 L1609,754.5996 C1594,754.5996 1594,639.9097 1579,639.9097 L1569,639.9097 " fill="none" style="stroke:#000000;stroke-width:3.0;"/><rect fill="#FFCC99" filter="url(#fkvas9mj0n6vj)" height="56.46" rx="12.5" ry="12.5" style="stroke:#AAAAAA;stroke-width:1.5;" width="217" x="1352" y="1221.5894"/><text fill="#000000" font-family="Verdana" font-size="30" lengthAdjust="spacing" textLength="197" x="1362" y="1261.7505">IT-Sicherheit</text><rect fill="#FFCC99" filter="url(#fkvas9mj0n6vj)" height="56.46" rx="12.5" ry="12.5" style="stroke:#AAAAAA;stroke-width:1.5;" width="578" x="724" y="1145.1294"/><text fill="#000000" font-family="Verdana" font-size="30" lengthAdjust="spacing" textLength="558" x="734" y="1185.2905">Angriffsmethoden / Angriffsvektoren</text><path d="M1352,1249.8193 L1342,1249.8193 C1327,1249.8193 1327,1173.3594 1312,1173.3594 L1302,1173.3594 " fill="none" style="stroke:#000000;stroke-width:3.0;"/><rect fill="#FFCC99" filter="url(#fkvas9mj0n6vj)" height="56.46" rx="12.5" ry="12.5" style="stroke:#AAAAAA;stroke-width:1.5;" width="666" x="636" y="1221.5894"/><text fill="#000000" font-family="Verdana" font-size="30" lengthAdjust="spacing" textLength="646" x="646" y="1261.7505">Härten von Systemen (unter Unix / Linux)</text><path d="M1352,1249.8193 L1342,1249.8193 C1327,1249.8193 1327,1249.8193 1312,1249.8193 L1302,1249.8193 " fill="none" style="stroke:#000000;stroke-width:3.0;"/><rect fill="#FFCC99" filter="url(#fkvas9mj0n6vj)" height="56.46" rx="12.5" ry="12.5" style="stroke:#AAAAAA;stroke-width:1.5;" width="920" x="382" y="1298.0493"/><text fill="#000000" font-family="Verdana" font-size="30" lengthAdjust="spacing" textLength="900" x="392" y="1338.2104">Konzepte / Konfiguration von Firewalls (netfilter / iptables)</text><path d="M1352,1249.8193 L1342,1249.8193 C1327,1249.8193 1327,1326.2793 1312,1326.2793 L1302,1326.2793 " fill="none" style="stroke:#000000;stroke-width:3.0;"/><path d="M1619,754.5996 L1609,754.5996 C1594,754.5996 1594,1249.8193 1579,1249.8193 L1569,1249.8193 " fill="none" style="stroke:#000000;stroke-width:3.0;"/><!--MD5=[c6cc7042eb793b75cdaad9f22d938302]
@startmindmap
!theme reddress-lightblue
<style>
mindmapDiagram {
  node {
    FontSize 30
  }
  arrow {
      LineThickness 3
  }
}
</style>

+ Kenntnisse

++[#80dfff] Software-Entwicklung
+++[#80dfff] Sprachen
++++[#00bfff] Python
++++[#00bfff] SQL
++++[#80dfff] C
++++[#ccf2ff] C++
++++[#ccf2ff] Assembler (Intel x86)

+++[#80dfff] Datenformate: XML, JSON, ASN.1

+++[#80dfff] Tools
++++[#80dfff] Versionsverwaltung: Git / GitHub, Subversion
++++[#80dfff] Build / CI / CD: make, Jenkins
++++[#80dfff] Dokumentation: Markdown, AsciiDoc, PlantUML
++++[#ccf2ff] Debugging / Reverse Engineering: gdb / pwndbg, strace / ltrace, \nobjdump, Binary Ninja

+++[#ccf2ff] Objektorientiertes Design, Design Patterns
+++[#ccf2ff] Architektur von Enterprise-Anwendungen


++[#66cc99] Betriebssysteme
+++[#66cc99] Desgin / Konzepte
+++[#39ac73] Unix Power User (Shell, Tools)

+++[#66cc99] Systemadministration
++++[#39ac73] Server: Linux, Solaris
++++[#39ac73] Monitoring: Nagios / Icinga, Prometheus, Grafana
++++[#66cc99] Container / Container-Plattformen: Docker, Kubernetes, OpenShift
++++[#66cc99] Infrastructure as Code: Ansible

+++[#9fdfbf] Systemnahe Programmierung (unter Linux)


- -[#c180ff] Netzwerke / Telekommunikation
- - -[#c180ff] Architektur / Konzepte verteilter Systeme
- - -[#c180ff] Netzwerk- und Systemarchitekturen im \nTelekommunikationsbereich (Mobilfunk)

- - -[#c180ff] Protokolle
- - - -[#9c33ff] TCP/IP
- - - -[#c180ff] DNS
- - - -[#c180ff] HTTP(S)
- - - -[#c180ff] Diameter
- - - -[#e6ccff] LDAP

- - -[#9c33ff] Debugging-Tools: tcpdump, Wireshark, netcat / socat, \nnmap, curl, mitmproxy, dig
- - -[#c180ff] Netzwerkprogrammierung (Sockets, CORBA, SOAP, REST)
- - -[#e6ccff] Implementierung von Protokoll-Software
- - -[#e6ccff] Betrieb von Server Software: Apache, Postfix, Samba / Winbind
- - -[#e6ccff] Benutzerverwaltung mit LDAP und Kerberos


- -[#ffcc99] IT-Sicherheit
- - -[#ffcc99] Angriffsmethoden / Angriffsvektoren
- - -[#ffcc99] Härten von Systemen (unter Unix / Linux)
- - -[#ffcc99] Konzepte / Konfiguration von Firewalls (netfilter / iptables)
@endmindmap

@startmindmap



skinparam stereotypeCBackgroundColor 1a66c2
skinparam backgroundColor fff







skinparam circledCharacter {
  radius 8
  fontSize 11
  fontName Verdana
}

skinparam class {
    backgroundColor ccc
  borderColor aaa
    fontColor 000
  fontName Verdana
  fontSize 11
  stereotypeFontColor 333
  stereotypeFontSize 11
    arrowColor 000
  arrowFontName Verdana
  arrowFontColor 333
  arrowFontSize 11

  attributeFontColor 333
  attributeFontSize 11
  attributeIconSize 11
}


skinparam actor {
    backgroundColor 2a86e2
  borderColor 1a66c2
    fontColor 000
  fontName Verdana
  fontSize 11
  stereotypeFontColor 333
  stereotypeFontSize 11
}

skinparam participant {
    backgroundColor ccc
  borderColor aaa
    fontColor 000
  fontName Verdana
  fontSize 11
  stereotypeFontColor 333
  stereotypeFontSize 11
}

skinparam collections {
    backgroundColor ccc
  borderColor aaa
    fontColor 000
  fontName Verdana
  fontSize 11
  stereotypeFontColor 333
  stereotypeFontSize 11
}

skinparam SequenceBox{
    backgroundColor e0e0e0
  borderColor cccccc
    fontColor 000
  fontName Verdana
  fontSize 11
  stereotypeFontColor 333
  stereotypeFontSize 11
}


skinparam interface {
    backgroundColor 2a86e2
  borderColor 1a66c2
    fontColor 000
  fontName Verdana
  fontSize 11
  stereotypeFontColor 333
  stereotypeFontSize 11
}

skinparam component {
    backgroundColor ccc
  borderColor aaa
    fontColor 000
  fontName Verdana
  fontSize 11
  stereotypeFontColor 333
  stereotypeFontSize 11
}

skinparam node {
    backgroundColor ccc
  borderColor aaa
    fontColor 000
  fontName Verdana
  fontSize 11
  stereotypeFontColor 333
  stereotypeFontSize 11
}

skinparam database {
    backgroundColor ccc
  borderColor aaa
    fontColor 000
  fontName Verdana
  fontSize 11
  stereotypeFontColor 333
  stereotypeFontSize 11
}

skinparam queue {
    backgroundColor ccc
  borderColor aaa
    fontColor 000
  fontName Verdana
  fontSize 11
  stereotypeFontColor 333
  stereotypeFontSize 11
}


skinparam usecase {
    backgroundColor ccc
  borderColor aaa
    fontColor 000
  fontName Verdana
  fontSize 11
  stereotypeFontColor 333
  stereotypeFontSize 11
    arrowColor 000
  arrowFontName Verdana
  arrowFontColor 333
  arrowFontSize 11
}

skinparam activity {
    backgroundColor ccc
  borderColor aaa
    fontColor 000
  fontName Verdana
  fontSize 11
  stereotypeFontColor 333
  stereotypeFontSize 11
    arrowColor 000
  arrowFontName Verdana
  arrowFontColor 333
  arrowFontSize 11
}

skinparam sequence {
    fontColor 000
  fontName Verdana
  fontSize 11
  stereotypeFontColor 333
  stereotypeFontSize 11
    arrowColor 000
  arrowFontName Verdana
  arrowFontColor 333
  arrowFontSize 11

  lifeLineBorderColor 2a86e2
  lifeLineBackgroundColor e0e0e0
}

skinparam boundary {
    backgroundColor 2a86e2
  borderColor 1a66c2
    fontColor 000
  fontName Verdana
  fontSize 11
  stereotypeFontColor 333
  stereotypeFontSize 11
}

skinparam control {
    backgroundColor 2a86e2
  borderColor 1a66c2
    fontColor 000
  fontName Verdana
  fontSize 11
  stereotypeFontColor 333
  stereotypeFontSize 11
}

skinparam entity {
    backgroundColor 2a86e2
  borderColor 1a66c2
    fontColor 000
  fontName Verdana
  fontSize 11
  stereotypeFontColor 333
  stereotypeFontSize 11
}


skinparam state {
    backgroundColor ccc
  borderColor aaa
    fontColor 000
  fontName Verdana
  fontSize 11
  stereotypeFontColor 333
  stereotypeFontSize 11
    arrowColor 000
  arrowFontName Verdana
  arrowFontColor 333
  arrowFontSize 11
  startColor 2a86e2
  endColor 1a66c2
}


skinparam object {
    backgroundColor ccc
  borderColor aaa
    fontColor 000
  fontName Verdana
  fontSize 11
  stereotypeFontColor 333
  stereotypeFontSize 11
    arrowColor 000
  arrowFontName Verdana
  arrowFontColor 333
  arrowFontSize 11
}


skinparam note {
    backgroundColor 2a86e2
  borderColor 1a66c2
    fontColor 000
  fontName Verdana
  fontSize 11
  stereotypeFontColor 333
  stereotypeFontSize 11
}

skinparam cloud {
    backgroundColor ccc
  borderColor aaa
    fontColor 000
  fontName Verdana
  fontSize 11
  stereotypeFontColor 333
  stereotypeFontSize 11
    arrowColor 000
  arrowFontName Verdana
  arrowFontColor 333
  arrowFontSize 11
}

skinparam rectangle {
    backgroundColor ccc
  borderColor aaa
    fontColor 000
  fontName Verdana
  fontSize 11
  stereotypeFontColor 333
  stereotypeFontSize 11
}

skinparam storage {
    backgroundColor ccc
  borderColor aaa
    fontColor 000
  fontName Verdana
  fontSize 11
  stereotypeFontColor 333
  stereotypeFontSize 11
}
<style>
mindmapDiagram {
  node {
    FontSize 30
  }
  arrow {
      LineThickness 3
  }
}
</style>

+ Kenntnisse

++[#80dfff] Software-Entwicklung
+++[#80dfff] Sprachen
++++[#00bfff] Python
++++[#00bfff] SQL
++++[#80dfff] C
++++[#ccf2ff] C++
++++[#ccf2ff] Assembler (Intel x86)

+++[#80dfff] Datenformate: XML, JSON, ASN.1

+++[#80dfff] Tools
++++[#80dfff] Versionsverwaltung: Git / GitHub, Subversion
++++[#80dfff] Build / CI / CD: make, Jenkins
++++[#80dfff] Dokumentation: Markdown, AsciiDoc, PlantUML
++++[#ccf2ff] Debugging / Reverse Engineering: gdb / pwndbg, strace / ltrace, \nobjdump, Binary Ninja

+++[#ccf2ff] Objektorientiertes Design, Design Patterns
+++[#ccf2ff] Architektur von Enterprise-Anwendungen


++[#66cc99] Betriebssysteme
+++[#66cc99] Desgin / Konzepte
+++[#39ac73] Unix Power User (Shell, Tools)

+++[#66cc99] Systemadministration
++++[#39ac73] Server: Linux, Solaris
++++[#39ac73] Monitoring: Nagios / Icinga, Prometheus, Grafana
++++[#66cc99] Container / Container-Plattformen: Docker, Kubernetes, OpenShift
++++[#66cc99] Infrastructure as Code: Ansible

+++[#9fdfbf] Systemnahe Programmierung (unter Linux)


- -[#c180ff] Netzwerke / Telekommunikation
- - -[#c180ff] Architektur / Konzepte verteilter Systeme
- - -[#c180ff] Netzwerk- und Systemarchitekturen im \nTelekommunikationsbereich (Mobilfunk)

- - -[#c180ff] Protokolle
- - - -[#9c33ff] TCP/IP
- - - -[#c180ff] DNS
- - - -[#c180ff] HTTP(S)
- - - -[#c180ff] Diameter
- - - -[#e6ccff] LDAP

- - -[#9c33ff] Debugging-Tools: tcpdump, Wireshark, netcat / socat, \nnmap, curl, mitmproxy, dig
- - -[#c180ff] Netzwerkprogrammierung (Sockets, CORBA, SOAP, REST)
- - -[#e6ccff] Implementierung von Protokoll-Software
- - -[#e6ccff] Betrieb von Server Software: Apache, Postfix, Samba / Winbind
- - -[#e6ccff] Benutzerverwaltung mit LDAP und Kerberos


- -[#ffcc99] IT-Sicherheit
- - -[#ffcc99] Angriffsmethoden / Angriffsvektoren
- - -[#ffcc99] Härten von Systemen (unter Unix / Linux)
- - -[#ffcc99] Konzepte / Konfiguration von Firewalls (netfilter / iptables)
@endmindmap

PlantUML version 1.2021.16(Wed Dec 08 18:25:22 CET 2021)
(GPL source distribution)
Java Runtime: Java(TM) SE Runtime Environment
JVM: Java HotSpot(TM) 64-Bit Server VM
Default Encoding: UTF-8
Language: en
Country: DE
--></g></svg>