<?xml version="1.0" encoding="us-ascii" standalone="no"?><svg xmlns="http://www.w3.org/2000/svg" xmlns:xlink="http://www.w3.org/1999/xlink" contentStyleType="text/css" data-diagram-type="MINDMAP" height="90%" preserveAspectRatio="none" version="1.1" viewBox="0 0 3650 1520" width="90%" zoomAndPan="magnify"><defs/><g><rect fill="#CCCCCC" height="54.9219" rx="12.5" ry="12.5" style="stroke:#AAAAAA;stroke-width:1.5;" width="184.9854" x="1586.4844" y="731.7578"/><text fill="#000000" font-family="Verdana" font-size="30" lengthAdjust="spacing" textLength="164.9854" x="1596.4844" y="769.6045">Kenntnisse</text><rect fill="#80DFFF" height="54.9219" rx="12.5" ry="12.5" style="stroke:#AAAAAA;stroke-width:1.5;" width="346.1328" x="1821.4697" y="432.0703"/><text fill="#000000" font-family="Verdana" font-size="30" lengthAdjust="spacing" textLength="326.1328" x="1831.4697" y="469.917">Software-Entwicklung</text><rect fill="#80DFFF" height="54.9219" rx="12.5" ry="12.5" style="stroke:#AAAAAA;stroke-width:1.5;" width="161.7822" x="2217.6025" y="169.8438"/><text fill="#000000" font-family="Verdana" font-size="30" lengthAdjust="spacing" textLength="141.7822" x="2227.6025" y="207.6904">Sprachen</text><rect fill="#00BFFF" height="54.9219" rx="12.5" ry="12.5" style="stroke:#AAAAAA;stroke-width:1.5;" width="123.9893" x="2429.3848" y="20"/><text fill="#000000" font-family="Verdana" font-size="30" lengthAdjust="spacing" textLength="103.9893" x="2439.3848" y="57.8467">Python</text><path d="M2379.3848,197.3047 L2389.3848,197.3047 C2404.3848,197.3047 2404.3848,47.4609 2419.3848,47.4609 L2429.3848,47.4609 " fill="#FFFFFF" fill-opacity="0.00000" style="stroke:#000000;stroke-width:3;"/><rect fill="#80DFFF" height="54.9219" rx="12.5" ry="12.5" style="stroke:#AAAAAA;stroke-width:1.5;" width="79.3701" x="2429.3848" y="94.9219"/><text fill="#000000" font-family="Verdana" font-size="30" lengthAdjust="spacing" textLength="59.3701" x="2439.3848" y="132.7686">SQL</text><path d="M2379.3848,197.3047 L2389.3848,197.3047 C2404.3848,197.3047 2404.3848,122.3828 2419.3848,122.3828 L2429.3848,122.3828 " fill="#FFFFFF" fill-opacity="0.00000" style="stroke:#000000;stroke-width:3;"/><rect fill="#80DFFF" height="54.9219" rx="12.5" ry="12.5" style="stroke:#AAAAAA;stroke-width:1.5;" width="40.9473" x="2429.3848" y="169.8438"/><text fill="#000000" font-family="Verdana" font-size="30" lengthAdjust="spacing" textLength="20.9473" x="2439.3848" y="207.6904">C</text><path d="M2379.3848,197.3047 L2389.3848,197.3047 C2404.3848,197.3047 2404.3848,197.3047 2419.3848,197.3047 L2429.3848,197.3047 " fill="#FFFFFF" fill-opacity="0.00000" style="stroke:#000000;stroke-width:3;"/><rect fill="#CCF2FF" height="54.9219" rx="12.5" ry="12.5" style="stroke:#AAAAAA;stroke-width:1.5;" width="91.2207" x="2429.3848" y="244.7656"/><text fill="#000000" font-family="Verdana" font-size="30" lengthAdjust="spacing" textLength="71.2207" x="2439.3848" y="282.6123">C++</text><path d="M2379.3848,197.3047 L2389.3848,197.3047 C2404.3848,197.3047 2404.3848,272.2266 2419.3848,272.2266 L2429.3848,272.2266 " fill="#FFFFFF" fill-opacity="0.00000" style="stroke:#000000;stroke-width:3;"/><rect fill="#CCF2FF" height="54.9219" rx="12.5" ry="12.5" style="stroke:#AAAAAA;stroke-width:1.5;" width="342.4561" x="2429.3848" y="319.6875"/><text fill="#000000" font-family="Verdana" font-size="30" lengthAdjust="spacing" textLength="322.4561" x="2439.3848" y="357.5342">Assembler (Intel x86)</text><path d="M2379.3848,197.3047 L2389.3848,197.3047 C2404.3848,197.3047 2404.3848,347.1484 2419.3848,347.1484 L2429.3848,347.1484 " fill="#FFFFFF" fill-opacity="0.00000" style="stroke:#000000;stroke-width:3;"/><path d="M2167.6025,459.5313 L2177.6025,459.5313 C2192.6025,459.5313 2192.6025,197.3047 2207.6025,197.3047 L2217.6025,197.3047 " fill="#FFFFFF" fill-opacity="0.00000" style="stroke:#000000;stroke-width:3;"/><rect fill="#80DFFF" height="54.9219" rx="12.5" ry="12.5" style="stroke:#AAAAAA;stroke-width:1.5;" width="515.3076" x="2217.6025" y="394.6094"/><text fill="#000000" font-family="Verdana" font-size="30" lengthAdjust="spacing" textLength="495.3076" x="2227.6025" y="432.4561">Datenformate: XML, JSON, ASN.1</text><path d="M2167.6025,459.5313 L2177.6025,459.5313 C2192.6025,459.5313 2192.6025,422.0703 2207.6025,422.0703 L2217.6025,422.0703 " fill="#FFFFFF" fill-opacity="0.00000" style="stroke:#000000;stroke-width:3;"/><rect fill="#80DFFF" height="54.9219" rx="12.5" ry="12.5" style="stroke:#AAAAAA;stroke-width:1.5;" width="98.999" x="2217.6025" y="581.9141"/><text fill="#000000" font-family="Verdana" font-size="30" lengthAdjust="spacing" textLength="78.999" x="2227.6025" y="619.7607">Tools</text><rect fill="#80DFFF" height="54.9219" rx="12.5" ry="12.5" style="stroke:#AAAAAA;stroke-width:1.5;" width="699.0869" x="2366.6016" y="469.5313"/><text fill="#000000" font-family="Verdana" font-size="30" lengthAdjust="spacing" textLength="679.0869" x="2376.6016" y="507.3779">Versionsverwaltung: Git / GitHub, Subversion</text><path d="M2316.6016,609.375 L2326.6016,609.375 C2341.6016,609.375 2341.6016,496.9922 2356.6016,496.9922 L2366.6016,496.9922 " fill="#FFFFFF" fill-opacity="0.00000" style="stroke:#000000;stroke-width:3;"/><rect fill="#80DFFF" height="54.9219" rx="12.5" ry="12.5" style="stroke:#AAAAAA;stroke-width:1.5;" width="456.333" x="2366.6016" y="544.4531"/><text fill="#000000" font-family="Verdana" font-size="30" lengthAdjust="spacing" textLength="436.333" x="2376.6016" y="582.2998">Build / CI / CD: make, Jenkins</text><path d="M2316.6016,609.375 L2326.6016,609.375 C2341.6016,609.375 2341.6016,571.9141 2356.6016,571.9141 L2366.6016,571.9141 " fill="#FFFFFF" fill-opacity="0.00000" style="stroke:#000000;stroke-width:3;"/><rect fill="#80DFFF" height="54.9219" rx="12.5" ry="12.5" style="stroke:#AAAAAA;stroke-width:1.5;" width="732.2656" x="2366.6016" y="619.375"/><text fill="#000000" font-family="Verdana" font-size="30" lengthAdjust="spacing" textLength="712.2656" x="2376.6016" y="657.2217">Dokumentation: Markdown, AsciiDoc, PlantUML</text><path d="M2316.6016,609.375 L2326.6016,609.375 C2341.6016,609.375 2341.6016,646.8359 2356.6016,646.8359 L2366.6016,646.8359 " fill="#FFFFFF" fill-opacity="0.00000" style="stroke:#000000;stroke-width:3;"/><rect fill="#CCF2FF" height="54.9219" rx="12.5" ry="12.5" style="stroke:#AAAAAA;stroke-width:1.5;" width="867.4414" x="2366.6016" y="694.2969"/><text fill="#000000" font-family="Verdana" font-size="30" lengthAdjust="spacing" textLength="847.4414" x="2376.6016" y="732.1436">Debugging: gdb / pwndbg, strace / ltrace, perf, objdump</text><path d="M2316.6016,609.375 L2326.6016,609.375 C2341.6016,609.375 2341.6016,721.7578 2356.6016,721.7578 L2366.6016,721.7578 " fill="#FFFFFF" fill-opacity="0.00000" style="stroke:#000000;stroke-width:3;"/><path d="M2167.6025,459.5313 L2177.6025,459.5313 C2192.6025,459.5313 2192.6025,609.375 2207.6025,609.375 L2217.6025,609.375 " fill="#FFFFFF" fill-opacity="0.00000" style="stroke:#000000;stroke-width:3;"/><rect fill="#CCF2FF" height="54.9219" rx="12.5" ry="12.5" style="stroke:#AAAAAA;stroke-width:1.5;" width="662.5537" x="2217.6025" y="769.2188"/><text fill="#000000" font-family="Verdana" font-size="30" lengthAdjust="spacing" textLength="642.5537" x="2227.6025" y="807.0654">Objektorientiertes Design, Design Patterns</text><path d="M2167.6025,459.5313 L2177.6025,459.5313 C2192.6025,459.5313 2192.6025,796.6797 2207.6025,796.6797 L2217.6025,796.6797 " fill="#FFFFFF" fill-opacity="0.00000" style="stroke:#000000;stroke-width:3;"/><rect fill="#CCF2FF" height="54.9219" rx="12.5" ry="12.5" style="stroke:#AAAAAA;stroke-width:1.5;" width="641.8701" x="2217.6025" y="844.1406"/><text fill="#000000" font-family="Verdana" font-size="30" lengthAdjust="spacing" textLength="621.8701" x="2227.6025" y="881.9873">Architektur von Enterprise-Anwendungen</text><path d="M2167.6025,459.5313 L2177.6025,459.5313 C2192.6025,459.5313 2192.6025,871.6016 2207.6025,871.6016 L2217.6025,871.6016 " fill="#FFFFFF" fill-opacity="0.00000" style="stroke:#000000;stroke-width:3;"/><path d="M1771.4697,759.2188 L1781.4697,759.2188 C1796.4697,759.2188 1796.4697,459.5313 1811.4697,459.5313 L1821.4697,459.5313 " fill="#FFFFFF" fill-opacity="0.00000" style="stroke:#000000;stroke-width:3;"/><rect fill="#66CC99" height="54.9219" rx="12.5" ry="12.5" style="stroke:#AAAAAA;stroke-width:1.5;" width="271.5137" x="1821.4697" y="1181.2891"/><text fill="#000000" font-family="Verdana" font-size="30" lengthAdjust="spacing" textLength="251.5137" x="1831.4697" y="1219.1357">Betriebssysteme</text><rect fill="#66CC99" height="54.9219" rx="12.5" ry="12.5" style="stroke:#AAAAAA;stroke-width:1.5;" width="293.2666" x="2142.9834" y="919.0625"/><text fill="#000000" font-family="Verdana" font-size="30" lengthAdjust="spacing" textLength="273.2666" x="2152.9834" y="956.9092">Desgin / Konzepte</text><path d="M2092.9834,1208.75 L2102.9834,1208.75 C2117.9834,1208.75 2117.9834,946.5234 2132.9834,946.5234 L2142.9834,946.5234 " fill="#FFFFFF" fill-opacity="0.00000" style="stroke:#000000;stroke-width:3;"/><rect fill="#39AC73" height="54.9219" rx="12.5" ry="12.5" style="stroke:#AAAAAA;stroke-width:1.5;" width="470.4834" x="2142.9834" y="993.9844"/><text fill="#000000" font-family="Verdana" font-size="30" lengthAdjust="spacing" textLength="450.4834" x="2152.9834" y="1031.8311">Unix Power User (Shell, Tools)</text><path d="M2092.9834,1208.75 L2102.9834,1208.75 C2117.9834,1208.75 2117.9834,1021.4453 2132.9834,1021.4453 L2142.9834,1021.4453 " fill="#FFFFFF" fill-opacity="0.00000" style="stroke:#000000;stroke-width:3;"/><rect fill="#66CC99" height="54.9219" rx="12.5" ry="12.5" style="stroke:#AAAAAA;stroke-width:1.5;" width="349.7803" x="2142.9834" y="1218.75"/><text fill="#000000" font-family="Verdana" font-size="30" lengthAdjust="spacing" textLength="329.7803" x="2152.9834" y="1256.5967">Systemadministration</text><rect fill="#39AC73" height="54.9219" rx="12.5" ry="12.5" style="stroke:#AAAAAA;stroke-width:1.5;" width="338.3398" x="2542.7637" y="1068.9063"/><text fill="#000000" font-family="Verdana" font-size="30" lengthAdjust="spacing" textLength="318.3398" x="2552.7637" y="1106.7529">Server: Linux, Solaris</text><path d="M2492.7637,1246.2109 L2502.7637,1246.2109 C2517.7637,1246.2109 2517.7637,1096.3672 2532.7637,1096.3672 L2542.7637,1096.3672 " fill="#FFFFFF" fill-opacity="0.00000" style="stroke:#000000;stroke-width:3;"/><rect fill="#39AC73" height="54.9219" rx="12.5" ry="12.5" style="stroke:#AAAAAA;stroke-width:1.5;" width="907.7832" x="2542.7637" y="1143.8281"/><text fill="#000000" font-family="Verdana" font-size="30" lengthAdjust="spacing" textLength="887.7832" x="2552.7637" y="1181.6748">Monitoring: Nagios / Icinga, Prometheus / Thanos , Grafana</text><path d="M2492.7637,1246.2109 L2502.7637,1246.2109 C2517.7637,1246.2109 2517.7637,1171.2891 2532.7637,1171.2891 L2542.7637,1171.2891 " fill="#FFFFFF" fill-opacity="0.00000" style="stroke:#000000;stroke-width:3;"/><rect fill="#39AC73" height="54.9219" rx="12.5" ry="12.5" style="stroke:#AAAAAA;stroke-width:1.5;" width="484.8096" x="2542.7637" y="1218.75"/><text fill="#000000" font-family="Verdana" font-size="30" lengthAdjust="spacing" textLength="464.8096" x="2552.7637" y="1256.5967">Infrastructure as Code: Ansible</text><path d="M2492.7637,1246.2109 L2502.7637,1246.2109 C2517.7637,1246.2109 2517.7637,1246.2109 2532.7637,1246.2109 L2542.7637,1246.2109 " fill="#FFFFFF" fill-opacity="0.00000" style="stroke:#000000;stroke-width:3;"/><rect fill="#66CC99" height="54.9219" rx="12.5" ry="12.5" style="stroke:#AAAAAA;stroke-width:1.5;" width="1096.0742" x="2542.7637" y="1293.6719"/><text fill="#000000" font-family="Verdana" font-size="30" lengthAdjust="spacing" textLength="1076.0742" x="2552.7637" y="1331.5186">Container / Container-Plattformen: Docker, Kubernetes, OpenShift, Istio</text><path d="M2492.7637,1246.2109 L2502.7637,1246.2109 C2517.7637,1246.2109 2517.7637,1321.1328 2532.7637,1321.1328 L2542.7637,1321.1328 " fill="#FFFFFF" fill-opacity="0.00000" style="stroke:#000000;stroke-width:3;"/><rect fill="#9FDFBF" height="54.9219" rx="12.5" ry="12.5" style="stroke:#AAAAAA;stroke-width:1.5;" width="856.9092" x="2542.7637" y="1368.5938"/><text fill="#000000" font-family="Verdana" font-size="30" lengthAdjust="spacing" textLength="836.9092" x="2552.7637" y="1406.4404">Cloud-Infrastruktur: AWS (EC2, EKS, S3, RDS, Route 53)</text><path d="M2492.7637,1246.2109 L2502.7637,1246.2109 C2517.7637,1246.2109 2517.7637,1396.0547 2532.7637,1396.0547 L2542.7637,1396.0547 " fill="#FFFFFF" fill-opacity="0.00000" style="stroke:#000000;stroke-width:3;"/><path d="M2092.9834,1208.75 L2102.9834,1208.75 C2117.9834,1208.75 2117.9834,1246.2109 2132.9834,1246.2109 L2142.9834,1246.2109 " fill="#FFFFFF" fill-opacity="0.00000" style="stroke:#000000;stroke-width:3;"/><rect fill="#9FDFBF" height="54.9219" rx="12.5" ry="12.5" style="stroke:#AAAAAA;stroke-width:1.5;" width="673.3496" x="2142.9834" y="1443.5156"/><text fill="#000000" font-family="Verdana" font-size="30" lengthAdjust="spacing" textLength="653.3496" x="2152.9834" y="1481.3623">Systemnahe Programmierung (unter Linux)</text><path d="M2092.9834,1208.75 L2102.9834,1208.75 C2117.9834,1208.75 2117.9834,1470.9766 2132.9834,1470.9766 L2142.9834,1470.9766 " fill="#FFFFFF" fill-opacity="0.00000" style="stroke:#000000;stroke-width:3;"/><path d="M1771.4697,759.2188 L1781.4697,759.2188 C1796.4697,759.2188 1796.4697,1208.75 1811.4697,1208.75 L1821.4697,1208.75 " fill="#FFFFFF" fill-opacity="0.00000" style="stroke:#000000;stroke-width:3;"/><rect fill="#C180FF" height="54.9219" rx="12.5" ry="12.5" style="stroke:#AAAAAA;stroke-width:1.5;" width="506.0791" x="1030.4053" y="509.5313"/><text fill="#000000" font-family="Verdana" font-size="30" lengthAdjust="spacing" textLength="486.0791" x="1040.4053" y="547.3779">Netzwerke / Telekommunikation</text><rect fill="#C180FF" height="54.9219" rx="12.5" ry="12.5" style="stroke:#AAAAAA;stroke-width:1.5;" width="644.4775" x="335.9277" y="100"/><text fill="#000000" font-family="Verdana" font-size="30" lengthAdjust="spacing" textLength="624.4775" x="345.9277" y="137.8467">Architektur / Konzepte verteilter Systeme</text><path d="M1030.4053,536.9922 L1020.4053,536.9922 C1005.4053,536.9922 1005.4053,127.4609 990.4053,127.4609 L980.4053,127.4609 " fill="#FFFFFF" fill-opacity="0.00000" style="stroke:#000000;stroke-width:3;"/><rect fill="#C180FF" height="89.8438" rx="12.5" ry="12.5" style="stroke:#AAAAAA;stroke-width:1.5;" width="623.9551" x="356.4502" y="174.9219"/><text fill="#000000" font-family="Verdana" font-size="30" lengthAdjust="spacing" textLength="589.7754" x="366.4502" y="212.7686">Netzwerk- und Systemarchitekturen im</text><text fill="#000000" font-family="Verdana" font-size="30" lengthAdjust="spacing" textLength="603.9551" x="366.4502" y="247.6904">Telekommunikationsbereich (Mobilfunk)</text><path d="M1030.4053,536.9922 L1020.4053,536.9922 C1005.4053,536.9922 1005.4053,219.8438 990.4053,219.8438 L980.4053,219.8438 " fill="#FFFFFF" fill-opacity="0.00000" style="stroke:#000000;stroke-width:3;"/><rect fill="#C180FF" height="54.9219" rx="12.5" ry="12.5" style="stroke:#AAAAAA;stroke-width:1.5;" width="169.751" x="810.6543" y="434.6094"/><text fill="#000000" font-family="Verdana" font-size="30" lengthAdjust="spacing" textLength="149.751" x="820.6543" y="472.4561">Protokolle</text><rect fill="#9C33FF" height="54.9219" rx="12.5" ry="12.5" style="stroke:#AAAAAA;stroke-width:1.5;" width="114.4092" x="646.2451" y="284.7656"/><text fill="#000000" font-family="Verdana" font-size="30" lengthAdjust="spacing" textLength="94.4092" x="656.2451" y="322.6123">TCP/IP</text><path d="M810.6543,462.0703 L800.6543,462.0703 C785.6543,462.0703 785.6543,312.2266 770.6543,312.2266 L760.6543,312.2266 " fill="#FFFFFF" fill-opacity="0.00000" style="stroke:#000000;stroke-width:3;"/><rect fill="#9C33FF" height="54.9219" rx="12.5" ry="12.5" style="stroke:#AAAAAA;stroke-width:1.5;" width="139.751" x="620.9033" y="359.6875"/><text fill="#000000" font-family="Verdana" font-size="30" lengthAdjust="spacing" textLength="119.751" x="630.9033" y="397.5342">HTTP(S)</text><path d="M810.6543,462.0703 L800.6543,462.0703 C785.6543,462.0703 785.6543,387.1484 770.6543,387.1484 L760.6543,387.1484 " fill="#FFFFFF" fill-opacity="0.00000" style="stroke:#000000;stroke-width:3;"/><rect fill="#9C33FF" height="54.9219" rx="12.5" ry="12.5" style="stroke:#AAAAAA;stroke-width:1.5;" width="84.585" x="676.0693" y="434.6094"/><text fill="#000000" font-family="Verdana" font-size="30" lengthAdjust="spacing" textLength="64.585" x="686.0693" y="472.4561">DNS</text><path d="M810.6543,462.0703 L800.6543,462.0703 C785.6543,462.0703 785.6543,462.0703 770.6543,462.0703 L760.6543,462.0703 " fill="#FFFFFF" fill-opacity="0.00000" style="stroke:#000000;stroke-width:3;"/><rect fill="#C180FF" height="54.9219" rx="12.5" ry="12.5" style="stroke:#AAAAAA;stroke-width:1.5;" width="160.0537" x="600.6006" y="509.5313"/><text fill="#000000" font-family="Verdana" font-size="30" lengthAdjust="spacing" textLength="140.0537" x="610.6006" y="547.3779">Diameter</text><path d="M810.6543,462.0703 L800.6543,462.0703 C785.6543,462.0703 785.6543,536.9922 770.6543,536.9922 L760.6543,536.9922 " fill="#FFFFFF" fill-opacity="0.00000" style="stroke:#000000;stroke-width:3;"/><rect fill="#E6CCFF" height="54.9219" rx="12.5" ry="12.5" style="stroke:#AAAAAA;stroke-width:1.5;" width="98.4277" x="662.2266" y="584.4531"/><text fill="#000000" font-family="Verdana" font-size="30" lengthAdjust="spacing" textLength="78.4277" x="672.2266" y="622.2998">LDAP</text><path d="M810.6543,462.0703 L800.6543,462.0703 C785.6543,462.0703 785.6543,611.9141 770.6543,611.9141 L760.6543,611.9141 " fill="#FFFFFF" fill-opacity="0.00000" style="stroke:#000000;stroke-width:3;"/><path d="M1030.4053,536.9922 L1020.4053,536.9922 C1005.4053,536.9922 1005.4053,462.0703 990.4053,462.0703 L980.4053,462.0703 " fill="#FFFFFF" fill-opacity="0.00000" style="stroke:#000000;stroke-width:3;"/><rect fill="#9C33FF" height="89.8438" rx="12.5" ry="12.5" style="stroke:#AAAAAA;stroke-width:1.5;" width="841.6016" x="138.8037" y="659.375"/><text fill="#000000" font-family="Verdana" font-size="30" lengthAdjust="spacing" textLength="812.0654" x="148.8037" y="697.2217">Debugging-Tools: tcpdump, Wireshark, netcat / socat,</text><text fill="#000000" font-family="Verdana" font-size="30" lengthAdjust="spacing" textLength="409.2627" x="148.8037" y="732.1436">nmap, curl, mitmproxy, dig</text><path d="M1030.4053,536.9922 L1020.4053,536.9922 C1005.4053,536.9922 1005.4053,704.2969 990.4053,704.2969 L980.4053,704.2969 " fill="#FFFFFF" fill-opacity="0.00000" style="stroke:#000000;stroke-width:3;"/><rect fill="#C180FF" height="54.9219" rx="12.5" ry="12.5" style="stroke:#AAAAAA;stroke-width:1.5;" width="887.4658" x="92.9395" y="769.2188"/><text fill="#000000" font-family="Verdana" font-size="30" lengthAdjust="spacing" textLength="867.4658" x="102.9395" y="807.0654">Netzwerkprogrammierung (Sockets, CORBA, SOAP, REST)</text><path d="M1030.4053,536.9922 L1020.4053,536.9922 C1005.4053,536.9922 1005.4053,796.6797 990.4053,796.6797 L980.4053,796.6797 " fill="#FFFFFF" fill-opacity="0.00000" style="stroke:#000000;stroke-width:3;"/><rect fill="#E6CCFF" height="54.9219" rx="12.5" ry="12.5" style="stroke:#AAAAAA;stroke-width:1.5;" width="628.3057" x="352.0996" y="844.1406"/><text fill="#000000" font-family="Verdana" font-size="30" lengthAdjust="spacing" textLength="608.3057" x="362.0996" y="881.9873">Implementierung von Protokoll-Software</text><path d="M1030.4053,536.9922 L1020.4053,536.9922 C1005.4053,536.9922 1005.4053,871.6016 990.4053,871.6016 L980.4053,871.6016 " fill="#FFFFFF" fill-opacity="0.00000" style="stroke:#000000;stroke-width:3;"/><rect fill="#E6CCFF" height="54.9219" rx="12.5" ry="12.5" style="stroke:#AAAAAA;stroke-width:1.5;" width="970.4053" x="10" y="919.0625"/><text fill="#000000" font-family="Verdana" font-size="30" lengthAdjust="spacing" textLength="950.4053" x="20" y="956.9092">Betrieb von Server Software: Apache, Postfix, Samba / Winbind</text><path d="M1030.4053,536.9922 L1020.4053,536.9922 C1005.4053,536.9922 1005.4053,946.5234 990.4053,946.5234 L980.4053,946.5234 " fill="#FFFFFF" fill-opacity="0.00000" style="stroke:#000000;stroke-width:3;"/><path d="M1586.4844,759.2188 L1576.4844,759.2188 C1561.4844,759.2188 1561.4844,536.9922 1546.4844,536.9922 L1536.4844,536.9922 " fill="#FFFFFF" fill-opacity="0.00000" style="stroke:#000000;stroke-width:3;"/><rect fill="#FFCC99" height="54.9219" rx="12.5" ry="12.5" style="stroke:#AAAAAA;stroke-width:1.5;" width="209.2432" x="1327.2412" y="1178.75"/><text fill="#000000" font-family="Verdana" font-size="30" lengthAdjust="spacing" textLength="189.2432" x="1337.2412" y="1216.5967">IT-Sicherheit</text><rect fill="#FFCC99" height="124.7656" rx="12.5" ry="12.5" style="stroke:#AAAAAA;stroke-width:1.5;" width="736.8945" x="540.3467" y="993.9844"/><text fill="#000000" font-family="Verdana" font-size="30" lengthAdjust="spacing" textLength="548.0127" x="550.3467" y="1031.8311">Angriffsmethoden / Angriffsvektoren</text><text fill="#000000" font-family="Verdana" font-size="30" lengthAdjust="spacing" textLength="707.3584" x="550.3467" y="1066.7529">(Puffer&#252;berl&#228;ufe, Use-After-Free, SQL Injection,</text><text fill="#000000" font-family="Verdana" font-size="30" lengthAdjust="spacing" textLength="678.6768" x="550.3467" y="1101.6748">Cross Site Scripting, DDOS, Cache Poisoning)</text><path d="M1327.2412,1206.2109 L1317.2412,1206.2109 C1302.2412,1206.2109 1302.2412,1056.3672 1287.2412,1056.3672 L1277.2412,1056.3672 " fill="#FFFFFF" fill-opacity="0.00000" style="stroke:#000000;stroke-width:3;"/><rect fill="#FFCC99" height="54.9219" rx="12.5" ry="12.5" style="stroke:#AAAAAA;stroke-width:1.5;" width="769.3555" x="507.8857" y="1138.75"/><text fill="#000000" font-family="Verdana" font-size="30" lengthAdjust="spacing" textLength="749.3555" x="517.8857" y="1176.5967">Verwalten von Geheimnissen mit HashiCorp Vault</text><path d="M1327.2412,1206.2109 L1317.2412,1206.2109 C1302.2412,1206.2109 1302.2412,1166.2109 1287.2412,1166.2109 L1277.2412,1166.2109 " fill="#FFFFFF" fill-opacity="0.00000" style="stroke:#000000;stroke-width:3;"/><rect fill="#FFCC99" height="54.9219" rx="12.5" ry="12.5" style="stroke:#AAAAAA;stroke-width:1.5;" width="646.1768" x="631.0645" y="1213.6719"/><text fill="#000000" font-family="Verdana" font-size="30" lengthAdjust="spacing" textLength="626.1768" x="641.0645" y="1251.5186">H&#228;rten von Systemen (unter Unix / Linux)</text><path d="M1327.2412,1206.2109 L1317.2412,1206.2109 C1302.2412,1206.2109 1302.2412,1241.1328 1287.2412,1241.1328 L1277.2412,1241.1328 " fill="#FFFFFF" fill-opacity="0.00000" style="stroke:#000000;stroke-width:3;"/><rect fill="#FFCC99" height="54.9219" rx="12.5" ry="12.5" style="stroke:#AAAAAA;stroke-width:1.5;" width="897.793" x="379.4482" y="1288.5938"/><text fill="#000000" font-family="Verdana" font-size="30" lengthAdjust="spacing" textLength="877.793" x="389.4482" y="1326.4404">Konzepte / Konfiguration von Firewalls (netfilter / iptables)</text><path d="M1327.2412,1206.2109 L1317.2412,1206.2109 C1302.2412,1206.2109 1302.2412,1316.0547 1287.2412,1316.0547 L1277.2412,1316.0547 " fill="#FFFFFF" fill-opacity="0.00000" style="stroke:#000000;stroke-width:3;"/><rect fill="#FFCC99" height="54.9219" rx="12.5" ry="12.5" style="stroke:#AAAAAA;stroke-width:1.5;" width="908.6475" x="368.5938" y="1363.5156"/><text fill="#000000" font-family="Verdana" font-size="30" lengthAdjust="spacing" textLength="888.6475" x="378.5938" y="1401.3623">Benutzerverwaltung (LDAP, Kerberos, OAuth / OIDC, SAML)</text><path d="M1327.2412,1206.2109 L1317.2412,1206.2109 C1302.2412,1206.2109 1302.2412,1390.9766 1287.2412,1390.9766 L1277.2412,1390.9766 " fill="#FFFFFF" fill-opacity="0.00000" style="stroke:#000000;stroke-width:3;"/><path d="M1586.4844,759.2188 L1576.4844,759.2188 C1561.4844,759.2188 1561.4844,1206.2109 1546.4844,1206.2109 L1536.4844,1206.2109 " fill="#FFFFFF" fill-opacity="0.00000" style="stroke:#000000;stroke-width:3;"/><!--SRC=[xLdRSjiu4dtdLs1gNkGA5SlMZjTMJMr5bk94yKqRoivMpSm3I3ObH2J01K1VikM_cS-Oj_pO7l0YIupdSQRaYkKoHJOQtOtkqzsWyCPOhcqcP9pntFl1BYWZfYcEDHdJJSLyOSEq8EzdO-zJ-fTNSuu5dskUiVzvZ4aLKtd3s8cIDX1VYFLxU7x0FzTQtTQZZ9q9IRE5Y9OIqbc_v7dmVjwjXNkls2b9QQKmXl3qwfSV3tjnaYI_iK0bzfPhwhwLzXO2qaBEmR3EaMiUBKWwAiYzNbYIf_TseHhYYlVVPotAg7wEecI_V7xrgaKPmgOiJ4cppaHQIjdTuS6Ejsd3c5kIYT8PlWViF-TdFliGN5xuR1XSlDvhCS-KIatBZ6lIHYXfRaZVyjHYaGFsJbYswwxlYz1dGH7UL4ojgSU5I6CmZYRkCXwmZ2y9-aakXMph6QjbaP6qt4BGW9rplOpLhOIX9X9Yh2AVJLCkxTNvMSiDOmgB-Lmum-Pn25NvhOp3kS-CXVy9XBIyyLbEEl6P2Z_7HPRNQs-aN8QVQMcL5h11aBPa8DY8EIoeljcKMqkwCdmj23fQ28kfXMOtIZAWWNIkXQ7kKDwIZE4nGA32pi5151qTmJDaeIWqvjvOmBkIs0n27LO3iq-L_4AvhOVxHppwP_ytTYN57PkgMuJzohZO1mjAKxyANXF-HbPGAk0naaGuTzZ7A3No0j88ty1bGd67QAgKm_eMqxcImZd7EVc2puKoi6yIuPaZBbfbX3mj776su1AZFdkdUS8bRmcQo4HpM594S1WnRjW8oJfWGsa4e5npD-QFaBqS6QeTW9hxBd1WhSCq0IX0nfAqpqwB4C4XnCrdbpd9O24IwxE9mP9hgKT9d8Gkar9LnDsL9IvqCE1Jm3flH_i-UtiQm0rzdtqSu-QZAYond_gDPniXbMSbNv1Rloiz6M23OBDEuI1G-HEpl6uNQDaxx3cqN93zWiWj7IfdbD9IPLaXnR8AJ7UTTHrOZrXWDmwR8dKQWXeztQSqT5aXuoR-Zw98Cf6nN-KtoWtSHo9QiCwv2aMQ57AvussAnZgjMgeqBLLYu2ZgzykwCPhkJgOjullPRDe9TbhKyKLGKngfADn03-cQJ0Yz8v-DXzDQ_sfka-ZT4ki3PgFSPRBFFWaqXmLAXiy0WOYxycGKldqiLQ8x-2mgD98a4pRBjRgxzraivazxBc-5Ct08iu3LwFBZyH3Gk1nEWOktmMp7sp1vakKfPLNzS3DTELZvhDlqYyqvTIKeUQjCN3KMO39t_GC9fenDX4jEdeKSQ_iaP8YsLuChIQficSow0I98Ua72LcgQeQ6SQv4ankKfyirLbuPqKvOza7wLdMcH9AI__W4if5z_BnBeldA5B45ykYUQy8n6XIJ-J943ZNFlI2jqpW3uOa6aHMuH8DJCyIMIP-JiX_d2e7x8-SwcKTTLIu5gj_ft1BEpij5A5oVsdfk562cTisjUfAq5lV_wksvcrdaWcymhA-Hkau0RqrPfL6PK8kP5LHDBEIT04GnA3Ui0HKcLPBiCI-8eJQObwfXaOR-K8QiR8-iuqA8KaOO3bIj4my8k8E9oCXx1TSFpintl3Nf2ixlntcniTl0nQ8qvTniPh4cJilSvZOvvj9nhXOGUgLHfjiTH8FVNUCCM0pggLtyUcIAXevJY4VA4HsvfRW-aUInGjmzncpHRfRsz-ka2cUcY5Biw_h0XA-K8UhM9QYkFeWZqKEcOT4NXd9USJcP5wVLwJ-be6_7eWvFLr7w__yt8uunwVxUkfIISVAjgHL-Nko8s8XtD8aT3j85lcDS77crOaIUHaWtvOICM283IV-A_VNvuGFij5zOX_rkyk15fNAs8H8wjr_R5UnEJhZELPSbikQK1_RSW6T6nkdlQKEgvlvQjKVdvsynTirUuifgulVHpG6oaibn9sdgyhhsbRgk9CKVhusRRpKGs5TjfuvgHXQ5eArtv5pJDXrQl4pV2tdz_ApTrdQzN_aotFwb8oFrCThmMebN5Nmq-tS4st16wOQxldqaNaLQhz5dOwbuvxJQxTUErXjllemWwLTWyjw90hPUuJU-eqBrPVo-LScCpP9_9xjBzUFZzjJ8DM78vJxTzAsZmNitdMsdbou7Lou7Lou7Lou7Lou7Lou7Lou7Lou7LipomQbeQgpiestkztzl_wVLUI9RtErToAT44ozzW1JQBLcIqutNUJSy0xqAZkSMkhBlJ4KpUyJxm6yu-mWlW6vHbyCFuj26WDTq8hQH3gFVX-loHuU0VtMCulCRVzRatfiIv73CY5PT5_sfsqZtqph1dBR0V7E2zonjX8sZrFSQ2_mC0]--></g></svg>