<?xml version="1.0" encoding="us-ascii" standalone="no"?><svg xmlns="http://www.w3.org/2000/svg" xmlns:xlink="http://www.w3.org/1999/xlink" contentStyleType="text/css" height="90%" preserveAspectRatio="none" version="1.1" viewBox="0 0 3639 1445" width="90%" zoomAndPan="magnify"><defs/><g><rect fill="#CCCCCC" height="54.9219" rx="12.5" ry="12.5" style="stroke:#AAAAAA;stroke-width:1.5;" width="188" x="1620" y="694.2969"/><text fill="#000000" font-family="Verdana" font-size="30" lengthAdjust="spacing" textLength="168" x="1630" y="732.1436">Kenntnisse</text><rect fill="#80DFFF" height="54.9219" rx="12.5" ry="12.5" style="stroke:#AAAAAA;stroke-width:1.5;" width="354" x="1858" y="432.0703"/><text fill="#000000" font-family="Verdana" font-size="30" lengthAdjust="spacing" textLength="334" x="1868" y="469.917">Software-Entwicklung</text><rect fill="#80DFFF" height="54.9219" rx="12.5" ry="12.5" style="stroke:#AAAAAA;stroke-width:1.5;" width="164" x="2262" y="169.8438"/><text fill="#000000" font-family="Verdana" font-size="30" lengthAdjust="spacing" textLength="144" x="2272" y="207.6904">Sprachen</text><rect fill="#00BFFF" height="54.9219" rx="12.5" ry="12.5" style="stroke:#AAAAAA;stroke-width:1.5;" width="125" x="2476" y="20"/><text fill="#000000" font-family="Verdana" font-size="30" lengthAdjust="spacing" textLength="105" x="2486" y="57.8467">Python</text><path d="M2426,197.3047 L2436,197.3047 C2451,197.3047 2451,47.4609 2466,47.4609 L2476,47.4609 " fill="none" style="stroke:#000000;stroke-width:3.0;"/><rect fill="#80DFFF" height="54.9219" rx="12.5" ry="12.5" style="stroke:#AAAAAA;stroke-width:1.5;" width="80" x="2476" y="94.9219"/><text fill="#000000" font-family="Verdana" font-size="30" lengthAdjust="spacing" textLength="60" x="2486" y="132.7686">SQL</text><path d="M2426,197.3047 L2436,197.3047 C2451,197.3047 2451,122.3828 2466,122.3828 L2476,122.3828 " fill="none" style="stroke:#000000;stroke-width:3.0;"/><rect fill="#80DFFF" height="54.9219" rx="12.5" ry="12.5" style="stroke:#AAAAAA;stroke-width:1.5;" width="41" x="2476" y="169.8438"/><text fill="#000000" font-family="Verdana" font-size="30" lengthAdjust="spacing" textLength="21" x="2486" y="207.6904">C</text><path d="M2426,197.3047 L2436,197.3047 C2451,197.3047 2451,197.3047 2466,197.3047 L2476,197.3047 " fill="none" style="stroke:#000000;stroke-width:3.0;"/><rect fill="#CCF2FF" height="54.9219" rx="12.5" ry="12.5" style="stroke:#AAAAAA;stroke-width:1.5;" width="91" x="2476" y="244.7656"/><text fill="#000000" font-family="Verdana" font-size="30" lengthAdjust="spacing" textLength="71" x="2486" y="282.6123">C++</text><path d="M2426,197.3047 L2436,197.3047 C2451,197.3047 2451,272.2266 2466,272.2266 L2476,272.2266 " fill="none" style="stroke:#000000;stroke-width:3.0;"/><rect fill="#CCF2FF" height="54.9219" rx="12.5" ry="12.5" style="stroke:#AAAAAA;stroke-width:1.5;" width="348" x="2476" y="319.6875"/><text fill="#000000" font-family="Verdana" font-size="30" lengthAdjust="spacing" textLength="328" x="2486" y="357.5342">Assembler (Intel x86)</text><path d="M2426,197.3047 L2436,197.3047 C2451,197.3047 2451,347.1484 2466,347.1484 L2476,347.1484 " fill="none" style="stroke:#000000;stroke-width:3.0;"/><path d="M2212,459.5313 L2222,459.5313 C2237,459.5313 2237,197.3047 2252,197.3047 L2262,197.3047 " fill="none" style="stroke:#000000;stroke-width:3.0;"/><rect fill="#80DFFF" height="54.9219" rx="12.5" ry="12.5" style="stroke:#AAAAAA;stroke-width:1.5;" width="525" x="2262" y="394.6094"/><text fill="#000000" font-family="Verdana" font-size="30" lengthAdjust="spacing" textLength="505" x="2272" y="432.4561">Datenformate: XML, JSON, ASN.1</text><path d="M2212,459.5313 L2222,459.5313 C2237,459.5313 2237,422.0703 2252,422.0703 L2262,422.0703 " fill="none" style="stroke:#000000;stroke-width:3.0;"/><rect fill="#80DFFF" height="54.9219" rx="12.5" ry="12.5" style="stroke:#AAAAAA;stroke-width:1.5;" width="102" x="2262" y="581.9141"/><text fill="#000000" font-family="Verdana" font-size="30" lengthAdjust="spacing" textLength="82" x="2272" y="619.7607">Tools</text><rect fill="#80DFFF" height="54.9219" rx="12.5" ry="12.5" style="stroke:#AAAAAA;stroke-width:1.5;" width="717" x="2414" y="469.5313"/><text fill="#000000" font-family="Verdana" font-size="30" lengthAdjust="spacing" textLength="697" x="2424" y="507.3779">Versionsverwaltung: Git / GitHub, Subversion</text><path d="M2364,609.375 L2374,609.375 C2389,609.375 2389,496.9922 2404,496.9922 L2414,496.9922 " fill="none" style="stroke:#000000;stroke-width:3.0;"/><rect fill="#80DFFF" height="54.9219" rx="12.5" ry="12.5" style="stroke:#AAAAAA;stroke-width:1.5;" width="466" x="2414" y="544.4531"/><text fill="#000000" font-family="Verdana" font-size="30" lengthAdjust="spacing" textLength="446" x="2424" y="582.2998">Build / CI / CD: make, Jenkins</text><path d="M2364,609.375 L2374,609.375 C2389,609.375 2389,571.9141 2404,571.9141 L2414,571.9141 " fill="none" style="stroke:#000000;stroke-width:3.0;"/><rect fill="#80DFFF" height="54.9219" rx="12.5" ry="12.5" style="stroke:#AAAAAA;stroke-width:1.5;" width="749" x="2414" y="619.375"/><text fill="#000000" font-family="Verdana" font-size="30" lengthAdjust="spacing" textLength="729" x="2424" y="657.2217">Dokumentation: Markdown, AsciiDoc, PlantUML</text><path d="M2364,609.375 L2374,609.375 C2389,609.375 2389,646.8359 2404,646.8359 L2414,646.8359 " fill="none" style="stroke:#000000;stroke-width:3.0;"/><rect fill="#80DFFF" height="54.9219" rx="12.5" ry="12.5" style="stroke:#AAAAAA;stroke-width:1.5;" width="892" x="2414" y="694.2969"/><text fill="#000000" font-family="Verdana" font-size="30" lengthAdjust="spacing" textLength="872" x="2424" y="732.1436">Debugging: gdb / pwndbg, strace / ltrace, perf, objdump</text><path d="M2364,609.375 L2374,609.375 C2389,609.375 2389,721.7578 2404,721.7578 L2414,721.7578 " fill="none" style="stroke:#000000;stroke-width:3.0;"/><path d="M2212,459.5313 L2222,459.5313 C2237,459.5313 2237,609.375 2252,609.375 L2262,609.375 " fill="none" style="stroke:#000000;stroke-width:3.0;"/><rect fill="#CCF2FF" height="54.9219" rx="12.5" ry="12.5" style="stroke:#AAAAAA;stroke-width:1.5;" width="680" x="2262" y="769.2188"/><text fill="#000000" font-family="Verdana" font-size="30" lengthAdjust="spacing" textLength="660" x="2272" y="807.0654">Objektorientiertes Design, Design Patterns</text><path d="M2212,459.5313 L2222,459.5313 C2237,459.5313 2237,796.6797 2252,796.6797 L2262,796.6797 " fill="none" style="stroke:#000000;stroke-width:3.0;"/><rect fill="#CCF2FF" height="54.9219" rx="12.5" ry="12.5" style="stroke:#AAAAAA;stroke-width:1.5;" width="657" x="2262" y="844.1406"/><text fill="#000000" font-family="Verdana" font-size="30" lengthAdjust="spacing" textLength="637" x="2272" y="881.9873">Architektur von Enterprise-Anwendungen</text><path d="M2212,459.5313 L2222,459.5313 C2237,459.5313 2237,871.6016 2252,871.6016 L2262,871.6016 " fill="none" style="stroke:#000000;stroke-width:3.0;"/><path d="M1808,721.7578 L1818,721.7578 C1833,721.7578 1833,459.5313 1848,459.5313 L1858,459.5313 " fill="none" style="stroke:#000000;stroke-width:3.0;"/><rect fill="#66CC99" height="54.9219" rx="12.5" ry="12.5" style="stroke:#AAAAAA;stroke-width:1.5;" width="276" x="1858" y="1143.8281"/><text fill="#000000" font-family="Verdana" font-size="30" lengthAdjust="spacing" textLength="256" x="1868" y="1181.6748">Betriebssysteme</text><rect fill="#66CC99" height="54.9219" rx="12.5" ry="12.5" style="stroke:#AAAAAA;stroke-width:1.5;" width="298" x="2184" y="919.0625"/><text fill="#000000" font-family="Verdana" font-size="30" lengthAdjust="spacing" textLength="278" x="2194" y="956.9092">Desgin / Konzepte</text><path d="M2134,1171.2891 L2144,1171.2891 C2159,1171.2891 2159,946.5234 2174,946.5234 L2184,946.5234 " fill="none" style="stroke:#000000;stroke-width:3.0;"/><rect fill="#39AC73" height="54.9219" rx="12.5" ry="12.5" style="stroke:#AAAAAA;stroke-width:1.5;" width="482" x="2184" y="993.9844"/><text fill="#000000" font-family="Verdana" font-size="30" lengthAdjust="spacing" textLength="462" x="2194" y="1031.8311">Unix Power User (Shell, Tools)</text><path d="M2134,1171.2891 L2144,1171.2891 C2159,1171.2891 2159,1021.4453 2174,1021.4453 L2184,1021.4453 " fill="none" style="stroke:#000000;stroke-width:3.0;"/><rect fill="#66CC99" height="54.9219" rx="12.5" ry="12.5" style="stroke:#AAAAAA;stroke-width:1.5;" width="357" x="2184" y="1181.2891"/><text fill="#000000" font-family="Verdana" font-size="30" lengthAdjust="spacing" textLength="337" x="2194" y="1219.1357">Systemadministration</text><rect fill="#39AC73" height="54.9219" rx="12.5" ry="12.5" style="stroke:#AAAAAA;stroke-width:1.5;" width="348" x="2591" y="1068.9063"/><text fill="#000000" font-family="Verdana" font-size="30" lengthAdjust="spacing" textLength="328" x="2601" y="1106.7529">Server: Linux, Solaris</text><path d="M2541,1208.75 L2551,1208.75 C2566,1208.75 2566,1096.3672 2581,1096.3672 L2591,1096.3672 " fill="none" style="stroke:#000000;stroke-width:3.0;"/><rect fill="#39AC73" height="54.9219" rx="12.5" ry="12.5" style="stroke:#AAAAAA;stroke-width:1.5;" width="781" x="2591" y="1143.8281"/><text fill="#000000" font-family="Verdana" font-size="30" lengthAdjust="spacing" textLength="761" x="2601" y="1181.6748">Monitoring: Nagios / Icinga, Prometheus, Grafana</text><path d="M2541,1208.75 L2551,1208.75 C2566,1208.75 2566,1171.2891 2581,1171.2891 L2591,1171.2891 " fill="none" style="stroke:#000000;stroke-width:3.0;"/><rect fill="#66CC99" height="54.9219" rx="12.5" ry="12.5" style="stroke:#AAAAAA;stroke-width:1.5;" width="1036" x="2591" y="1218.75"/><text fill="#000000" font-family="Verdana" font-size="30" lengthAdjust="spacing" textLength="1016" x="2601" y="1256.5967">Container / Container-Plattformen: Docker, Kubernetes, OpenShift</text><path d="M2541,1208.75 L2551,1208.75 C2566,1208.75 2566,1246.2109 2581,1246.2109 L2591,1246.2109 " fill="none" style="stroke:#000000;stroke-width:3.0;"/><rect fill="#66CC99" height="54.9219" rx="12.5" ry="12.5" style="stroke:#AAAAAA;stroke-width:1.5;" width="499" x="2591" y="1293.6719"/><text fill="#000000" font-family="Verdana" font-size="30" lengthAdjust="spacing" textLength="479" x="2601" y="1331.5186">Infrastructure as Code: Ansible</text><path d="M2541,1208.75 L2551,1208.75 C2566,1208.75 2566,1321.1328 2581,1321.1328 L2591,1321.1328 " fill="none" style="stroke:#000000;stroke-width:3.0;"/><path d="M2134,1171.2891 L2144,1171.2891 C2159,1171.2891 2159,1208.75 2174,1208.75 L2184,1208.75 " fill="none" style="stroke:#000000;stroke-width:3.0;"/><rect fill="#9FDFBF" height="54.9219" rx="12.5" ry="12.5" style="stroke:#AAAAAA;stroke-width:1.5;" width="688" x="2184" y="1368.5938"/><text fill="#000000" font-family="Verdana" font-size="30" lengthAdjust="spacing" textLength="668" x="2194" y="1406.4404">Systemnahe Programmierung (unter Linux)</text><path d="M2134,1171.2891 L2144,1171.2891 C2159,1171.2891 2159,1396.0547 2174,1396.0547 L2184,1396.0547 " fill="none" style="stroke:#000000;stroke-width:3.0;"/><path d="M1808,721.7578 L1818,721.7578 C1833,721.7578 1833,1171.2891 1848,1171.2891 L1858,1171.2891 " fill="none" style="stroke:#000000;stroke-width:3.0;"/><rect fill="#C180FF" height="54.9219" rx="12.5" ry="12.5" style="stroke:#AAAAAA;stroke-width:1.5;" width="518" x="1052" y="526.9922"/><text fill="#000000" font-family="Verdana" font-size="30" lengthAdjust="spacing" textLength="498" x="1062" y="564.8389">Netzwerke / Telekommunikation</text><rect fill="#C180FF" height="54.9219" rx="12.5" ry="12.5" style="stroke:#AAAAAA;stroke-width:1.5;" width="660" x="342" y="117.4609"/><text fill="#000000" font-family="Verdana" font-size="30" lengthAdjust="spacing" textLength="640" x="352" y="155.3076">Architektur / Konzepte verteilter Systeme</text><path d="M1052,554.4531 L1042,554.4531 C1027,554.4531 1027,144.9219 1012,144.9219 L1002,144.9219 " fill="none" style="stroke:#000000;stroke-width:3.0;"/><rect fill="#C180FF" height="89.8438" rx="12.5" ry="12.5" style="stroke:#AAAAAA;stroke-width:1.5;" width="639" x="363" y="192.3828"/><text fill="#000000" font-family="Verdana" font-size="30" lengthAdjust="spacing" textLength="603" x="373" y="230.2295">Netzwerk- und Systemarchitekturen im</text><text fill="#000000" font-family="Verdana" font-size="30" lengthAdjust="spacing" textLength="619" x="373" y="265.1514">Telekommunikationsbereich (Mobilfunk)</text><path d="M1052,554.4531 L1042,554.4531 C1027,554.4531 1027,237.3047 1012,237.3047 L1002,237.3047 " fill="none" style="stroke:#000000;stroke-width:3.0;"/><rect fill="#C180FF" height="54.9219" rx="12.5" ry="12.5" style="stroke:#AAAAAA;stroke-width:1.5;" width="175" x="827" y="452.0703"/><text fill="#000000" font-family="Verdana" font-size="30" lengthAdjust="spacing" textLength="155" x="837" y="489.917">Protokolle</text><rect fill="#9C33FF" height="54.9219" rx="12.5" ry="12.5" style="stroke:#AAAAAA;stroke-width:1.5;" width="115" x="662" y="302.2266"/><text fill="#000000" font-family="Verdana" font-size="30" lengthAdjust="spacing" textLength="95" x="672" y="340.0732">TCP/IP</text><path d="M827,479.5313 L817,479.5313 C802,479.5313 802,329.6875 787,329.6875 L777,329.6875 " fill="none" style="stroke:#000000;stroke-width:3.0;"/><rect fill="#9C33FF" height="54.9219" rx="12.5" ry="12.5" style="stroke:#AAAAAA;stroke-width:1.5;" width="141" x="636" y="377.1484"/><text fill="#000000" font-family="Verdana" font-size="30" lengthAdjust="spacing" textLength="121" x="646" y="414.9951">HTTP(S)</text><path d="M827,479.5313 L817,479.5313 C802,479.5313 802,404.6094 787,404.6094 L777,404.6094 " fill="none" style="stroke:#000000;stroke-width:3.0;"/><rect fill="#C180FF" height="54.9219" rx="12.5" ry="12.5" style="stroke:#AAAAAA;stroke-width:1.5;" width="85" x="692" y="452.0703"/><text fill="#000000" font-family="Verdana" font-size="30" lengthAdjust="spacing" textLength="65" x="702" y="489.917">DNS</text><path d="M827,479.5313 L817,479.5313 C802,479.5313 802,479.5313 787,479.5313 L777,479.5313 " fill="none" style="stroke:#000000;stroke-width:3.0;"/><rect fill="#C180FF" height="54.9219" rx="12.5" ry="12.5" style="stroke:#AAAAAA;stroke-width:1.5;" width="163" x="614" y="526.9922"/><text fill="#000000" font-family="Verdana" font-size="30" lengthAdjust="spacing" textLength="143" x="624" y="564.8389">Diameter</text><path d="M827,479.5313 L817,479.5313 C802,479.5313 802,554.4531 787,554.4531 L777,554.4531 " fill="none" style="stroke:#000000;stroke-width:3.0;"/><rect fill="#E6CCFF" height="54.9219" rx="12.5" ry="12.5" style="stroke:#AAAAAA;stroke-width:1.5;" width="99" x="678" y="601.9141"/><text fill="#000000" font-family="Verdana" font-size="30" lengthAdjust="spacing" textLength="79" x="688" y="639.7607">LDAP</text><path d="M827,479.5313 L817,479.5313 C802,479.5313 802,629.375 787,629.375 L777,629.375 " fill="none" style="stroke:#000000;stroke-width:3.0;"/><path d="M1052,554.4531 L1042,554.4531 C1027,554.4531 1027,479.5313 1012,479.5313 L1002,479.5313 " fill="none" style="stroke:#000000;stroke-width:3.0;"/><rect fill="#9C33FF" height="89.8438" rx="12.5" ry="12.5" style="stroke:#AAAAAA;stroke-width:1.5;" width="864" x="138" y="676.8359"/><text fill="#000000" font-family="Verdana" font-size="30" lengthAdjust="spacing" textLength="834" x="148" y="714.6826">Debugging-Tools: tcpdump, Wireshark, netcat / socat,</text><text fill="#000000" font-family="Verdana" font-size="30" lengthAdjust="spacing" textLength="420" x="148" y="749.6045">nmap, curl, mitmproxy, dig</text><path d="M1052,554.4531 L1042,554.4531 C1027,554.4531 1027,721.7578 1012,721.7578 L1002,721.7578 " fill="none" style="stroke:#000000;stroke-width:3.0;"/><rect fill="#C180FF" height="54.9219" rx="12.5" ry="12.5" style="stroke:#AAAAAA;stroke-width:1.5;" width="905" x="97" y="786.6797"/><text fill="#000000" font-family="Verdana" font-size="30" lengthAdjust="spacing" textLength="885" x="107" y="824.5264">Netzwerkprogrammierung (Sockets, CORBA, SOAP, REST)</text><path d="M1052,554.4531 L1042,554.4531 C1027,554.4531 1027,814.1406 1012,814.1406 L1002,814.1406 " fill="none" style="stroke:#000000;stroke-width:3.0;"/><rect fill="#E6CCFF" height="54.9219" rx="12.5" ry="12.5" style="stroke:#AAAAAA;stroke-width:1.5;" width="643" x="359" y="861.6016"/><text fill="#000000" font-family="Verdana" font-size="30" lengthAdjust="spacing" textLength="623" x="369" y="899.4482">Implementierung von Protokoll-Software</text><path d="M1052,554.4531 L1042,554.4531 C1027,554.4531 1027,889.0625 1012,889.0625 L1002,889.0625 " fill="none" style="stroke:#000000;stroke-width:3.0;"/><rect fill="#E6CCFF" height="54.9219" rx="12.5" ry="12.5" style="stroke:#AAAAAA;stroke-width:1.5;" width="992" x="10" y="936.5234"/><text fill="#000000" font-family="Verdana" font-size="30" lengthAdjust="spacing" textLength="972" x="20" y="974.3701">Betrieb von Server Software: Apache, Postfix, Samba / Winbind</text><path d="M1052,554.4531 L1042,554.4531 C1027,554.4531 1027,963.9844 1012,963.9844 L1002,963.9844 " fill="none" style="stroke:#000000;stroke-width:3.0;"/><path d="M1620,721.7578 L1610,721.7578 C1595,721.7578 1595,554.4531 1580,554.4531 L1570,554.4531 " fill="none" style="stroke:#000000;stroke-width:3.0;"/><rect fill="#FFCC99" height="54.9219" rx="12.5" ry="12.5" style="stroke:#AAAAAA;stroke-width:1.5;" width="213" x="1357" y="1141.2891"/><text fill="#000000" font-family="Verdana" font-size="30" lengthAdjust="spacing" textLength="193" x="1367" y="1179.1357">IT-Sicherheit</text><rect fill="#FFCC99" height="89.8438" rx="12.5" ry="12.5" style="stroke:#AAAAAA;stroke-width:1.5;" width="1177" x="130" y="1011.4453"/><text fill="#000000" font-family="Verdana" font-size="30" lengthAdjust="spacing" textLength="563" x="140" y="1049.292">Angriffsmethoden / Angriffsvektoren</text><text fill="#000000" font-family="Verdana" font-size="30" lengthAdjust="spacing" textLength="1157" x="140" y="1084.2139">(Puffer&#252;berl&#228;ufe, Use-After-Free, SQL Injection, Cross Site Scripting, DDOS)</text><path d="M1357,1168.75 L1347,1168.75 C1332,1168.75 1332,1056.3672 1317,1056.3672 L1307,1056.3672 " fill="none" style="stroke:#000000;stroke-width:3.0;"/><rect fill="#FFCC99" height="54.9219" rx="12.5" ry="12.5" style="stroke:#AAAAAA;stroke-width:1.5;" width="659" x="648" y="1121.2891"/><text fill="#000000" font-family="Verdana" font-size="30" lengthAdjust="spacing" textLength="639" x="658" y="1159.1357">H&#228;rten von Systemen (unter Unix / Linux)</text><path d="M1357,1168.75 L1347,1168.75 C1332,1168.75 1332,1148.75 1317,1148.75 L1307,1148.75 " fill="none" style="stroke:#000000;stroke-width:3.0;"/><rect fill="#FFCC99" height="54.9219" rx="12.5" ry="12.5" style="stroke:#AAAAAA;stroke-width:1.5;" width="921" x="386" y="1196.2109"/><text fill="#000000" font-family="Verdana" font-size="30" lengthAdjust="spacing" textLength="901" x="396" y="1234.0576">Konzepte / Konfiguration von Firewalls (netfilter / iptables)</text><path d="M1357,1168.75 L1347,1168.75 C1332,1168.75 1332,1223.6719 1317,1223.6719 L1307,1223.6719 " fill="none" style="stroke:#000000;stroke-width:3.0;"/><rect fill="#FFCC99" height="54.9219" rx="12.5" ry="12.5" style="stroke:#AAAAAA;stroke-width:1.5;" width="927" x="380" y="1271.1328"/><text fill="#000000" font-family="Verdana" font-size="30" lengthAdjust="spacing" textLength="907" x="390" y="1308.9795">Benutzerverwaltung (LDAP, Kerberos, OAuth / OIDC, SAML)</text><path d="M1357,1168.75 L1347,1168.75 C1332,1168.75 1332,1298.5938 1317,1298.5938 L1307,1298.5938 " fill="none" style="stroke:#000000;stroke-width:3.0;"/><path d="M1620,721.7578 L1610,721.7578 C1595,721.7578 1595,1168.75 1580,1168.75 L1570,1168.75 " fill="none" style="stroke:#000000;stroke-width:3.0;"/><!--SRC=[xLdRSjis47tdLw3J5sb2nRBLkhQdquainOaJorP3EUrCsmUGN4g8I805G5_IyT_aC_gM7-i1BxB4k8_jo1FBOqbOB7ONU_O22Y-CvTfcGiOPpxrlx88oOfhYM9CnlLJC5pPC2_9-DFOsfP-ycdCi-5ppZFtbCIPLJEKNnawKj87uI6pGn_WE_rnhTLtFCdOc9CqM8bfAI6U3akVE-t6d5kuzOsz9IYk5COJHiz- -FUZ7IPBymGALs6kkgVTIsci8I0iv1yCwHwvvj23fg23t-s59djxQXMg8AzwVprgKKJsEecIl73zxrg8COLCMfgHPvrHQIjdDmNxNsxHXp2t9HEaCdqVirycPpzu45-S-6mRdptTRp3EbKjCouprf8vGqLwIlUMgnoIFsIbYsuzvV5w7FWYAygfXQIuyBaSPW79swj_4Ho_YIe9_aKiYsdh5Q5Xb9ooq47R49ryjONKiOQY8XnYhosJJbqbvEseuQKrZCvy8PDez3gCglPHpEVMOi_4yWfEKNd-Ma4v-fy4DSP7czzyQP5-47Mbgb1MmGf2qP23PY3WkgJpRbrfAk35y3GKSBOR6qqEnAIOPe89rhOQWtbDSaOtWC8L35plv-51qUmZDaeIWqvjPOX7SbiPc4Ekm6PhzLyYFbjfuU7FBeXy4Vx5AA6pPLru3zqZZiWmMbgL-1ry3Vo0fA1Jn6aWZd3dkFKYCl80tuZbmc53T0KwKSrhUO9aeAvnpdv7C-5yh0ljC8OmvSjCe8ULeOdxtIFE6IryiRCqR8GevCqouGckyzu6cjYqq2u41uITfdRuiGJYRutsSNESbW8HBR4dSg4ysndIA2rubn0w4nmdieZK0-r3uuJE8aJ1eVIBuWPwah4Xa01YoiKpYmgft3Srwl1rnt3_eErtEo7-7ZfOkV6QMqL5bMIB6iNDXRPrqFWNlKs9MB8f4w3K6DS-yX3JrMoBX1wbuKIIOozhlyGhc1WqX42zQPg52aII6NNMzJDFPfrLAbQQaI4uVHO51c-6YwSpfj4L_FPjDEqAsfZOpnUT2c20wSITTa0XgEV3OUJclzZSHLIlRAg3nYDifTpldi5u4ola1o-mmWHzmL4gFmwMEh4dNSPr6X4SwPi5ckrSsjps8nVzXpUGlEmCMGHU2CBjuT3n7B5yEfpzwz36PTRyFaqonFAQiotQrqYRloMQ-fx9jhwfmjUQkSMRK0H5xkAZrIGHcR29T6F0ivzlQBa24QL1rSIL87yAmN047I2nAsKjDC3ULSYoGnBgCGrAuEDAIhia21zBliJ8ia8VtvRyH2-lbJaK3tfIiv2V3fdMZ262q5cVA18XSqy8bMw701eei5aHQv1JoeRUEBeBjfmUlFdn2uijfe5RYoIPMo-Emq6REnR1NtPGeaObvKvQQKSmBOqJvImpg0FQcoOeV12ew4DIrHnoGB-x7qSTrpMCT56Qe3QUnOkTemBEm28YvEnoFiTJWvwtelK6wRWuFtOkCSWPT1rycvEoDWJvgKlSrfTCoZvLmhPE18fKgpNOuYixV66xOOq7Ay-dNF50aTfHIF4DWySbjpnmlDOr4OTe2lINCAsTsjH-T89TTROrSixpPafHmuLUUJjl8eYa0FbOv9LnJEUSdfP5QKVh__a8ws4VS-E5aj7Gm6NypShwYFJkjQIiB9bwfMz7MvAs8Zqj4iaYeix1T6R4pSsx0YdqPADkIx3Im0WDB_uhyzVh1FUoqNrf3_BrxSG1hlLaGYnwbc-_3UZ4dNIiewOhRSqe3-B4X6TAnk7ZQK-kwlPMjKllutSzVi5Qwi9kwO-XWYDb9PhYHjVRokFG1kguanH-lZPjlDH3OLssdZcf65eMWhNVaVDCsxLgyJLyBUVdqxDtMThtV-I8y_gKZ8_G9rl0RHgkAl9X_kO1lk2DqqrxUFf8j8grNwA6nrpuXsczswyLZ3xTTH19qg79vRA53h8MxJEofqZy9VIwNSE0pPHtAwJ5KHVtsjJ2CikPodstuKD7YkvlEjjFBfBkZfBkZfBkZfBkZfBkZfBkZfBkZfBgXz5zHq2rOt9xRxVA-_DtY-7vBbttSkvLAYlvG_RmgSmwp8gEjrNatF48-5Hj-8NSLq5mzOtFNUy2lEti4Bu3jYRjIPJReiUDaGKVclX5RIXPNtvlsaOcAlbGroPKlc_UzwnsYTTVIydtXZIdYHMYoDL5mMrylPIU_0EyFPiC2vwmZFDzu81owhRp4N_0C0]--></g></svg>