<?xml version="1.0" encoding="UTF-8" standalone="no"?><svg xmlns="http://www.w3.org/2000/svg" xmlns:xlink="http://www.w3.org/1999/xlink" contentScriptType="application/ecmascript" contentStyleType="text/css" height="1474px" preserveAspectRatio="none" style="width:3634px;height:1474px;background:#FFFFFF;" version="1.1" viewBox="0 0 3634 1474" width="3634px" zoomAndPan="magnify"><defs><filter height="300%" id="fazeoo9rv5jzv" width="300%" x="-1" y="-1"><feGaussianBlur result="blurOut" stdDeviation="2.0"/><feColorMatrix in="blurOut" result="blurOut2" type="matrix" values="0 0 0 0 0 0 0 0 0 0 0 0 0 0 0 0 0 0 .4 0"/><feOffset dx="4.0" dy="4.0" in="blurOut2" result="blurOut3"/><feBlend in="SourceGraphic" in2="blurOut3" mode="normal"/></filter></defs><g><rect fill="#CCCCCC" filter="url(#fazeoo9rv5jzv)" height="56.46" rx="12.5" ry="12.5" style="stroke:#AAAAAA;stroke-width:1.5;" width="186" x="1619" y="708.1396"/><text fill="#000000" font-family="Verdana" font-size="30" lengthAdjust="spacing" textLength="166" x="1629" y="748.3008">Kenntnisse</text><rect fill="#80DFFF" filter="url(#fazeoo9rv5jzv)" height="56.46" rx="12.5" ry="12.5" style="stroke:#AAAAAA;stroke-width:1.5;" width="352" x="1855" y="440.5298"/><text fill="#000000" font-family="Verdana" font-size="30" lengthAdjust="spacing" textLength="332" x="1865" y="480.6909">Software-Entwicklung</text><rect fill="#CCF2FF" filter="url(#fazeoo9rv5jzv)" height="56.46" rx="12.5" ry="12.5" style="stroke:#AAAAAA;stroke-width:1.5;" width="670" x="2257" y="20"/><text fill="#000000" font-family="Verdana" font-size="30" lengthAdjust="spacing" textLength="650" x="2267" y="60.1611">Objektorientiertes Design, Design Patterns</text><path d="M2207,468.7598 L2217,468.7598 C2232,468.7598 2232,48.23 2247,48.23 L2257,48.23 " fill="none" style="stroke:#000000;stroke-width:3.0;"/><rect fill="#CCF2FF" filter="url(#fazeoo9rv5jzv)" height="56.46" rx="12.5" ry="12.5" style="stroke:#AAAAAA;stroke-width:1.5;" width="650" x="2257" y="96.46"/><text fill="#000000" font-family="Verdana" font-size="30" lengthAdjust="spacing" textLength="630" x="2267" y="136.6211">Architektur von Enterprise-Anwendungen</text><path d="M2207,468.7598 L2217,468.7598 C2232,468.7598 2232,124.6899 2247,124.6899 L2257,124.6899 " fill="none" style="stroke:#000000;stroke-width:3.0;"/><rect fill="#80DFFF" filter="url(#fazeoo9rv5jzv)" height="56.46" rx="12.5" ry="12.5" style="stroke:#AAAAAA;stroke-width:1.5;" width="163" x="2257" y="325.8398"/><text fill="#000000" font-family="Verdana" font-size="30" lengthAdjust="spacing" textLength="143" x="2267" y="366.001">Sprachen</text><rect fill="#00BFFF" filter="url(#fazeoo9rv5jzv)" height="56.46" rx="12.5" ry="12.5" style="stroke:#AAAAAA;stroke-width:1.5;" width="124" x="2470" y="172.9199"/><text fill="#000000" font-family="Verdana" font-size="30" lengthAdjust="spacing" textLength="104" x="2480" y="213.0811">Python</text><path d="M2420,354.0698 L2430,354.0698 C2445,354.0698 2445,201.1499 2460,201.1499 L2470,201.1499 " fill="none" style="stroke:#000000;stroke-width:3.0;"/><rect fill="#00BFFF" filter="url(#fazeoo9rv5jzv)" height="56.46" rx="12.5" ry="12.5" style="stroke:#AAAAAA;stroke-width:1.5;" width="82" x="2470" y="249.3799"/><text fill="#000000" font-family="Verdana" font-size="30" lengthAdjust="spacing" textLength="62" x="2480" y="289.541">SQL</text><path d="M2420,354.0698 L2430,354.0698 C2445,354.0698 2445,277.6099 2460,277.6099 L2470,277.6099 " fill="none" style="stroke:#000000;stroke-width:3.0;"/><rect fill="#80DFFF" filter="url(#fazeoo9rv5jzv)" height="56.46" rx="12.5" ry="12.5" style="stroke:#AAAAAA;stroke-width:1.5;" width="41" x="2470" y="325.8398"/><text fill="#000000" font-family="Verdana" font-size="30" lengthAdjust="spacing" textLength="21" x="2480" y="366.001">C</text><path d="M2420,354.0698 L2430,354.0698 C2445,354.0698 2445,354.0698 2460,354.0698 L2470,354.0698 " fill="none" style="stroke:#000000;stroke-width:3.0;"/><rect fill="#CCF2FF" filter="url(#fazeoo9rv5jzv)" height="56.46" rx="12.5" ry="12.5" style="stroke:#AAAAAA;stroke-width:1.5;" width="91" x="2470" y="402.2998"/><text fill="#000000" font-family="Verdana" font-size="30" lengthAdjust="spacing" textLength="71" x="2480" y="442.4609">C++</text><path d="M2420,354.0698 L2430,354.0698 C2445,354.0698 2445,430.5298 2460,430.5298 L2470,430.5298 " fill="none" style="stroke:#000000;stroke-width:3.0;"/><rect fill="#CCF2FF" filter="url(#fazeoo9rv5jzv)" height="56.46" rx="12.5" ry="12.5" style="stroke:#AAAAAA;stroke-width:1.5;" width="354" x="2470" y="478.7598"/><text fill="#000000" font-family="Verdana" font-size="30" lengthAdjust="spacing" textLength="334" x="2480" y="518.9209">Assembler (Intel x86)</text><path d="M2420,354.0698 L2430,354.0698 C2445,354.0698 2445,506.9897 2460,506.9897 L2470,506.9897 " fill="none" style="stroke:#000000;stroke-width:3.0;"/><path d="M2207,468.7598 L2217,468.7598 C2232,468.7598 2232,354.0698 2247,354.0698 L2257,354.0698 " fill="none" style="stroke:#000000;stroke-width:3.0;"/><rect fill="#80DFFF" filter="url(#fazeoo9rv5jzv)" height="56.46" rx="12.5" ry="12.5" style="stroke:#AAAAAA;stroke-width:1.5;" width="536" x="2257" y="555.2197"/><text fill="#000000" font-family="Verdana" font-size="30" lengthAdjust="spacing" textLength="516" x="2267" y="595.3809">Datenformate: XML, JSON, ASN.1</text><path d="M2207,468.7598 L2217,468.7598 C2232,468.7598 2232,583.4497 2247,583.4497 L2257,583.4497 " fill="none" style="stroke:#000000;stroke-width:3.0;"/><rect fill="#80DFFF" filter="url(#fazeoo9rv5jzv)" height="56.46" rx="12.5" ry="12.5" style="stroke:#AAAAAA;stroke-width:1.5;" width="98" x="2257" y="746.3696"/><text fill="#000000" font-family="Verdana" font-size="30" lengthAdjust="spacing" textLength="78" x="2267" y="786.5308">Tools</text><rect fill="#80DFFF" filter="url(#fazeoo9rv5jzv)" height="56.46" rx="12.5" ry="12.5" style="stroke:#AAAAAA;stroke-width:1.5;" width="717" x="2405" y="631.6797"/><text fill="#000000" font-family="Verdana" font-size="30" lengthAdjust="spacing" textLength="697" x="2415" y="671.8408">Versionsverwaltung: Git / GitHub, Subversion</text><path d="M2355,774.5996 L2365,774.5996 C2380,774.5996 2380,659.9097 2395,659.9097 L2405,659.9097 " fill="none" style="stroke:#000000;stroke-width:3.0;"/><rect fill="#80DFFF" filter="url(#fazeoo9rv5jzv)" height="56.46" rx="12.5" ry="12.5" style="stroke:#AAAAAA;stroke-width:1.5;" width="487" x="2405" y="708.1396"/><text fill="#000000" font-family="Verdana" font-size="30" lengthAdjust="spacing" textLength="467" x="2415" y="748.3008">Build / CI / CD: make, Jenkins</text><path d="M2355,774.5996 L2365,774.5996 C2380,774.5996 2380,736.3696 2395,736.3696 L2405,736.3696 " fill="none" style="stroke:#000000;stroke-width:3.0;"/><rect fill="#80DFFF" filter="url(#fazeoo9rv5jzv)" height="56.46" rx="12.5" ry="12.5" style="stroke:#AAAAAA;stroke-width:1.5;" width="740" x="2405" y="784.5996"/><text fill="#000000" font-family="Verdana" font-size="30" lengthAdjust="spacing" textLength="720" x="2415" y="824.7607">Dokumentation: Markdown, AsciiDoc, PlantUML</text><path d="M2355,774.5996 L2365,774.5996 C2380,774.5996 2380,812.8296 2395,812.8296 L2405,812.8296 " fill="none" style="stroke:#000000;stroke-width:3.0;"/><rect fill="#CCF2FF" filter="url(#fazeoo9rv5jzv)" height="56.46" rx="12.5" ry="12.5" style="stroke:#AAAAAA;stroke-width:1.5;" width="657" x="2405" y="861.0596"/><text fill="#000000" font-family="Verdana" font-size="30" lengthAdjust="spacing" textLength="637" x="2415" y="901.2207">Debugging: gdb / pwndbg, strace / ltrace</text><path d="M2355,774.5996 L2365,774.5996 C2380,774.5996 2380,889.2896 2395,889.2896 L2405,889.2896 " fill="none" style="stroke:#000000;stroke-width:3.0;"/><path d="M2207,468.7598 L2217,468.7598 C2232,468.7598 2232,774.5996 2247,774.5996 L2257,774.5996 " fill="none" style="stroke:#000000;stroke-width:3.0;"/><path d="M1805,736.3696 L1815,736.3696 C1830,736.3696 1830,468.7598 1845,468.7598 L1855,468.7598 " fill="none" style="stroke:#000000;stroke-width:3.0;"/><rect fill="#66CC99" filter="url(#fazeoo9rv5jzv)" height="56.46" rx="12.5" ry="12.5" style="stroke:#AAAAAA;stroke-width:1.5;" width="272" x="1855" y="1166.8994"/><text fill="#000000" font-family="Verdana" font-size="30" lengthAdjust="spacing" textLength="252" x="1865" y="1207.0605">Betriebssysteme</text><rect fill="#66CC99" filter="url(#fazeoo9rv5jzv)" height="56.46" rx="12.5" ry="12.5" style="stroke:#AAAAAA;stroke-width:1.5;" width="300" x="2177" y="937.5195"/><text fill="#000000" font-family="Verdana" font-size="30" lengthAdjust="spacing" textLength="280" x="2187" y="977.6807">Desgin / Konzepte</text><path d="M2127,1195.1294 L2137,1195.1294 C2152,1195.1294 2152,965.7495 2167,965.7495 L2177,965.7495 " fill="none" style="stroke:#000000;stroke-width:3.0;"/><rect fill="#39AC73" filter="url(#fazeoo9rv5jzv)" height="56.46" rx="12.5" ry="12.5" style="stroke:#AAAAAA;stroke-width:1.5;" width="483" x="2177" y="1013.9795"/><text fill="#000000" font-family="Verdana" font-size="30" lengthAdjust="spacing" textLength="463" x="2187" y="1054.1406">Unix Power User (Shell, Tools)</text><path d="M2127,1195.1294 L2137,1195.1294 C2152,1195.1294 2152,1042.2095 2167,1042.2095 L2177,1042.2095 " fill="none" style="stroke:#000000;stroke-width:3.0;"/><rect fill="#66CC99" filter="url(#fazeoo9rv5jzv)" height="56.46" rx="12.5" ry="12.5" style="stroke:#AAAAAA;stroke-width:1.5;" width="351" x="2177" y="1205.1294"/><text fill="#000000" font-family="Verdana" font-size="30" lengthAdjust="spacing" textLength="331" x="2187" y="1245.2905">Systemadministration</text><rect fill="#39AC73" filter="url(#fazeoo9rv5jzv)" height="56.46" rx="12.5" ry="12.5" style="stroke:#AAAAAA;stroke-width:1.5;" width="351" x="2578" y="1090.4395"/><text fill="#000000" font-family="Verdana" font-size="30" lengthAdjust="spacing" textLength="331" x="2588" y="1130.6006">Server: Linux, Solaris</text><path d="M2528,1233.3594 L2538,1233.3594 C2553,1233.3594 2553,1118.6694 2568,1118.6694 L2578,1118.6694 " fill="none" style="stroke:#000000;stroke-width:3.0;"/><rect fill="#39AC73" filter="url(#fazeoo9rv5jzv)" height="56.46" rx="12.5" ry="12.5" style="stroke:#AAAAAA;stroke-width:1.5;" width="778" x="2578" y="1166.8994"/><text fill="#000000" font-family="Verdana" font-size="30" lengthAdjust="spacing" textLength="758" x="2588" y="1207.0605">Monitoring: Nagios / Icinga, Prometheus, Grafana</text><path d="M2528,1233.3594 L2538,1233.3594 C2553,1233.3594 2553,1195.1294 2568,1195.1294 L2578,1195.1294 " fill="none" style="stroke:#000000;stroke-width:3.0;"/><rect fill="#66CC99" filter="url(#fazeoo9rv5jzv)" height="56.46" rx="12.5" ry="12.5" style="stroke:#AAAAAA;stroke-width:1.5;" width="1037" x="2578" y="1243.3594"/><text fill="#000000" font-family="Verdana" font-size="30" lengthAdjust="spacing" textLength="1017" x="2588" y="1283.5205">Container / Container-Plattformen: Docker, Kubernetes, OpenShift</text><path d="M2528,1233.3594 L2538,1233.3594 C2553,1233.3594 2553,1271.5894 2568,1271.5894 L2578,1271.5894 " fill="none" style="stroke:#000000;stroke-width:3.0;"/><rect fill="#66CC99" filter="url(#fazeoo9rv5jzv)" height="56.46" rx="12.5" ry="12.5" style="stroke:#AAAAAA;stroke-width:1.5;" width="498" x="2578" y="1319.8193"/><text fill="#000000" font-family="Verdana" font-size="30" lengthAdjust="spacing" textLength="478" x="2588" y="1359.9805">Infrastructure as Code: Ansible</text><path d="M2528,1233.3594 L2538,1233.3594 C2553,1233.3594 2553,1348.0493 2568,1348.0493 L2578,1348.0493 " fill="none" style="stroke:#000000;stroke-width:3.0;"/><path d="M2127,1195.1294 L2137,1195.1294 C2152,1195.1294 2152,1233.3594 2167,1233.3594 L2177,1233.3594 " fill="none" style="stroke:#000000;stroke-width:3.0;"/><rect fill="#9FDFBF" filter="url(#fazeoo9rv5jzv)" height="56.46" rx="12.5" ry="12.5" style="stroke:#AAAAAA;stroke-width:1.5;" width="684" x="2177" y="1396.2793"/><text fill="#000000" font-family="Verdana" font-size="30" lengthAdjust="spacing" textLength="664" x="2187" y="1436.4404">Systemnahe Programmierung (unter Linux)</text><path d="M2127,1195.1294 L2137,1195.1294 C2152,1195.1294 2152,1424.5093 2167,1424.5093 L2177,1424.5093 " fill="none" style="stroke:#000000;stroke-width:3.0;"/><path d="M1805,736.3696 L1815,736.3696 C1830,736.3696 1830,1195.1294 1845,1195.1294 L1855,1195.1294 " fill="none" style="stroke:#000000;stroke-width:3.0;"/><rect fill="#C180FF" filter="url(#fazeoo9rv5jzv)" height="56.46" rx="12.5" ry="12.5" style="stroke:#AAAAAA;stroke-width:1.5;" width="511" x="1058" y="593.4497"/><text fill="#000000" font-family="Verdana" font-size="30" lengthAdjust="spacing" textLength="491" x="1068" y="633.6108">Netzwerke / Telekommunikation</text><rect fill="#C180FF" filter="url(#fazeoo9rv5jzv)" height="56.46" rx="12.5" ry="12.5" style="stroke:#AAAAAA;stroke-width:1.5;" width="658" x="350" y="136.46"/><text fill="#000000" font-family="Verdana" font-size="30" lengthAdjust="spacing" textLength="638" x="360" y="176.6211">Architektur / Konzepte verteilter Systeme</text><path d="M1058,621.6797 L1048,621.6797 C1033,621.6797 1033,164.6899 1018,164.6899 L1008,164.6899 " fill="none" style="stroke:#000000;stroke-width:3.0;"/><rect fill="#C180FF" filter="url(#fazeoo9rv5jzv)" height="92.9199" rx="12.5" ry="12.5" style="stroke:#AAAAAA;stroke-width:1.5;" width="631" x="377" y="212.9199"/><text fill="#000000" font-family="Verdana" font-size="30" lengthAdjust="spacing" textLength="600" x="387" y="253.0811">Netzwerk- und Systemarchitekturen im</text><text fill="#000000" font-family="Verdana" font-size="30" lengthAdjust="spacing" textLength="606" x="387" y="289.541">Telekommunikationsbereich (Mobilfunk)</text><path d="M1058,621.6797 L1048,621.6797 C1033,621.6797 1033,259.3799 1018,259.3799 L1008,259.3799 " fill="none" style="stroke:#000000;stroke-width:3.0;"/><rect fill="#C180FF" filter="url(#fazeoo9rv5jzv)" height="56.46" rx="12.5" ry="12.5" style="stroke:#AAAAAA;stroke-width:1.5;" width="169" x="839" y="478.7598"/><text fill="#000000" font-family="Verdana" font-size="30" lengthAdjust="spacing" textLength="149" x="849" y="518.9209">Protokolle</text><rect fill="#9C33FF" filter="url(#fazeoo9rv5jzv)" height="56.46" rx="12.5" ry="12.5" style="stroke:#AAAAAA;stroke-width:1.5;" width="122" x="667" y="325.8398"/><text fill="#000000" font-family="Verdana" font-size="30" lengthAdjust="spacing" textLength="102" x="677" y="366.001">TCP/IP</text><path d="M839,506.9897 L829,506.9897 C814,506.9897 814,354.0698 799,354.0698 L789,354.0698 " fill="none" style="stroke:#000000;stroke-width:3.0;"/><rect fill="#C180FF" filter="url(#fazeoo9rv5jzv)" height="56.46" rx="12.5" ry="12.5" style="stroke:#AAAAAA;stroke-width:1.5;" width="86" x="703" y="402.2998"/><text fill="#000000" font-family="Verdana" font-size="30" lengthAdjust="spacing" textLength="66" x="713" y="442.4609">DNS</text><path d="M839,506.9897 L829,506.9897 C814,506.9897 814,430.5298 799,430.5298 L789,430.5298 " fill="none" style="stroke:#000000;stroke-width:3.0;"/><rect fill="#C180FF" filter="url(#fazeoo9rv5jzv)" height="56.46" rx="12.5" ry="12.5" style="stroke:#AAAAAA;stroke-width:1.5;" width="146" x="643" y="478.7598"/><text fill="#000000" font-family="Verdana" font-size="30" lengthAdjust="spacing" textLength="126" x="653" y="518.9209">HTTP(S)</text><path d="M839,506.9897 L829,506.9897 C814,506.9897 814,506.9897 799,506.9897 L789,506.9897 " fill="none" style="stroke:#000000;stroke-width:3.0;"/><rect fill="#C180FF" filter="url(#fazeoo9rv5jzv)" height="56.46" rx="12.5" ry="12.5" style="stroke:#AAAAAA;stroke-width:1.5;" width="159" x="630" y="555.2197"/><text fill="#000000" font-family="Verdana" font-size="30" lengthAdjust="spacing" textLength="139" x="640" y="595.3809">Diameter</text><path d="M839,506.9897 L829,506.9897 C814,506.9897 814,583.4497 799,583.4497 L789,583.4497 " fill="none" style="stroke:#000000;stroke-width:3.0;"/><rect fill="#E6CCFF" filter="url(#fazeoo9rv5jzv)" height="56.46" rx="12.5" ry="12.5" style="stroke:#AAAAAA;stroke-width:1.5;" width="99" x="690" y="631.6797"/><text fill="#000000" font-family="Verdana" font-size="30" lengthAdjust="spacing" textLength="79" x="700" y="671.8408">LDAP</text><path d="M839,506.9897 L829,506.9897 C814,506.9897 814,659.9097 799,659.9097 L789,659.9097 " fill="none" style="stroke:#000000;stroke-width:3.0;"/><path d="M1058,621.6797 L1048,621.6797 C1033,621.6797 1033,506.9897 1018,506.9897 L1008,506.9897 " fill="none" style="stroke:#000000;stroke-width:3.0;"/><rect fill="#9C33FF" filter="url(#fazeoo9rv5jzv)" height="92.9199" rx="12.5" ry="12.5" style="stroke:#AAAAAA;stroke-width:1.5;" width="863" x="145" y="708.1396"/><text fill="#000000" font-family="Verdana" font-size="30" lengthAdjust="spacing" textLength="832" x="155" y="748.3008">Debugging-Tools: tcpdump, Wireshark, netcat / socat,</text><text fill="#000000" font-family="Verdana" font-size="30" lengthAdjust="spacing" textLength="427" x="155" y="784.7607">mmap, curl, mitmproxy, dig</text><path d="M1058,621.6797 L1048,621.6797 C1033,621.6797 1033,754.5996 1018,754.5996 L1008,754.5996 " fill="none" style="stroke:#000000;stroke-width:3.0;"/><rect fill="#C180FF" filter="url(#fazeoo9rv5jzv)" height="56.46" rx="12.5" ry="12.5" style="stroke:#AAAAAA;stroke-width:1.5;" width="911" x="97" y="821.0596"/><text fill="#000000" font-family="Verdana" font-size="30" lengthAdjust="spacing" textLength="891" x="107" y="861.2207">Netzwerkprogrammierung (Sockets, CORBA, SOAP, REST)</text><path d="M1058,621.6797 L1048,621.6797 C1033,621.6797 1033,849.2896 1018,849.2896 L1008,849.2896 " fill="none" style="stroke:#000000;stroke-width:3.0;"/><rect fill="#E6CCFF" filter="url(#fazeoo9rv5jzv)" height="56.46" rx="12.5" ry="12.5" style="stroke:#AAAAAA;stroke-width:1.5;" width="639" x="369" y="897.5195"/><text fill="#000000" font-family="Verdana" font-size="30" lengthAdjust="spacing" textLength="619" x="379" y="937.6807">Implementierung von Protokoll-Software</text><path d="M1058,621.6797 L1048,621.6797 C1033,621.6797 1033,925.7495 1018,925.7495 L1008,925.7495 " fill="none" style="stroke:#000000;stroke-width:3.0;"/><rect fill="#E6CCFF" filter="url(#fazeoo9rv5jzv)" height="56.46" rx="12.5" ry="12.5" style="stroke:#AAAAAA;stroke-width:1.5;" width="998" x="10" y="973.9795"/><text fill="#000000" font-family="Verdana" font-size="30" lengthAdjust="spacing" textLength="978" x="20" y="1014.1406">Betrieb von Server Software: Apache, Postfix, Samba / Winbind</text><path d="M1058,621.6797 L1048,621.6797 C1033,621.6797 1033,1002.2095 1018,1002.2095 L1008,1002.2095 " fill="none" style="stroke:#000000;stroke-width:3.0;"/><rect fill="#E6CCFF" filter="url(#fazeoo9rv5jzv)" height="56.46" rx="12.5" ry="12.5" style="stroke:#AAAAAA;stroke-width:1.5;" width="955" x="53" y="1050.4395"/><text fill="#000000" font-family="Verdana" font-size="30" lengthAdjust="spacing" textLength="935" x="63" y="1090.6006">Benutzerverwaltung mit Active Directory, LDAP und Kerberos</text><path d="M1058,621.6797 L1048,621.6797 C1033,621.6797 1033,1078.6694 1018,1078.6694 L1008,1078.6694 " fill="none" style="stroke:#000000;stroke-width:3.0;"/><path d="M1619,736.3696 L1609,736.3696 C1594,736.3696 1594,621.6797 1579,621.6797 L1569,621.6797 " fill="none" style="stroke:#000000;stroke-width:3.0;"/><rect fill="#FFCC99" filter="url(#fazeoo9rv5jzv)" height="56.46" rx="12.5" ry="12.5" style="stroke:#AAAAAA;stroke-width:1.5;" width="217" x="1352" y="1203.3594"/><text fill="#000000" font-family="Verdana" font-size="30" lengthAdjust="spacing" textLength="197" x="1362" y="1243.5205">IT-Sicherheit</text><rect fill="#FFCC99" filter="url(#fazeoo9rv5jzv)" height="56.46" rx="12.5" ry="12.5" style="stroke:#AAAAAA;stroke-width:1.5;" width="578" x="724" y="1126.8994"/><text fill="#000000" font-family="Verdana" font-size="30" lengthAdjust="spacing" textLength="558" x="734" y="1167.0605">Angriffsmethoden / Angriffsvektoren</text><path d="M1352,1231.5894 L1342,1231.5894 C1327,1231.5894 1327,1155.1294 1312,1155.1294 L1302,1155.1294 " fill="none" style="stroke:#000000;stroke-width:3.0;"/><rect fill="#FFCC99" filter="url(#fazeoo9rv5jzv)" height="56.46" rx="12.5" ry="12.5" style="stroke:#AAAAAA;stroke-width:1.5;" width="666" x="636" y="1203.3594"/><text fill="#000000" font-family="Verdana" font-size="30" lengthAdjust="spacing" textLength="646" x="646" y="1243.5205">Härten von Systemen (unter Unix / Linux)</text><path d="M1352,1231.5894 L1342,1231.5894 C1327,1231.5894 1327,1231.5894 1312,1231.5894 L1302,1231.5894 " fill="none" style="stroke:#000000;stroke-width:3.0;"/><rect fill="#FFCC99" filter="url(#fazeoo9rv5jzv)" height="56.46" rx="12.5" ry="12.5" style="stroke:#AAAAAA;stroke-width:1.5;" width="920" x="382" y="1279.8193"/><text fill="#000000" font-family="Verdana" font-size="30" lengthAdjust="spacing" textLength="900" x="392" y="1319.9805">Konzepte / Konfiguration von Firewalls (netfilter / iptables)</text><path d="M1352,1231.5894 L1342,1231.5894 C1327,1231.5894 1327,1308.0493 1312,1308.0493 L1302,1308.0493 " fill="none" style="stroke:#000000;stroke-width:3.0;"/><path d="M1619,736.3696 L1609,736.3696 C1594,736.3696 1594,1231.5894 1579,1231.5894 L1569,1231.5894 " fill="none" style="stroke:#000000;stroke-width:3.0;"/><!--MD5=[c740de9a691433187a27e5ebf857e67b]
@startmindmap
!theme reddress-lightblue
<style>
mindmapDiagram {
  node {
    FontSize 30
  }
  arrow {
      LineThickness 3
  }
}
</style>

+ Kenntnisse

++[#80dfff] Software-Entwicklung
+++[#ccf2ff] Objektorientiertes Design, Design Patterns
+++[#ccf2ff] Architektur von Enterprise-Anwendungen

+++[#80dfff] Sprachen
++++[#00bfff] Python
++++[#00bfff] SQL
++++[#80dfff] C
++++[#ccf2ff] C++
++++[#ccf2ff] Assembler (Intel x86)

+++[#80dfff] Datenformate: XML, JSON, ASN.1

+++[#80dfff] Tools
++++[#80dfff] Versionsverwaltung: Git / GitHub, Subversion
++++[#80dfff] Build / CI / CD: make, Jenkins
++++[#80dfff] Dokumentation: Markdown, AsciiDoc, PlantUML
++++[#ccf2ff] Debugging: gdb / pwndbg, strace / ltrace


++[#66cc99] Betriebssysteme
+++[#66cc99] Desgin / Konzepte
+++[#39ac73] Unix Power User (Shell, Tools)

+++[#66cc99] Systemadministration
++++[#39ac73] Server: Linux, Solaris
++++[#39ac73] Monitoring: Nagios / Icinga, Prometheus, Grafana
++++[#66cc99] Container / Container-Plattformen: Docker, Kubernetes, OpenShift
++++[#66cc99] Infrastructure as Code: Ansible

+++[#9fdfbf] Systemnahe Programmierung (unter Linux)


- -[#c180ff] Netzwerke / Telekommunikation
- - -[#c180ff] Architektur / Konzepte verteilter Systeme
- - -[#c180ff] Netzwerk- und Systemarchitekturen im \nTelekommunikationsbereich (Mobilfunk)

- - -[#c180ff] Protokolle
- - - -[#9c33ff] TCP/IP
- - - -[#c180ff] DNS
- - - -[#c180ff] HTTP(S)
- - - -[#c180ff] Diameter
- - - -[#e6ccff] LDAP

- - -[#9c33ff] Debugging-Tools: tcpdump, Wireshark, netcat / socat, \nmmap, curl, mitmproxy, dig
- - -[#c180ff] Netzwerkprogrammierung (Sockets, CORBA, SOAP, REST)
- - -[#e6ccff] Implementierung von Protokoll-Software
- - -[#e6ccff] Betrieb von Server Software: Apache, Postfix, Samba / Winbind
- - -[#e6ccff] Benutzerverwaltung mit Active Directory, LDAP und Kerberos


- -[#ffcc99] IT-Sicherheit
- - -[#ffcc99] Angriffsmethoden / Angriffsvektoren
- - -[#ffcc99] Härten von Systemen (unter Unix / Linux)
- - -[#ffcc99] Konzepte / Konfiguration von Firewalls (netfilter / iptables)
@endmindmap

@startmindmap



skinparam stereotypeCBackgroundColor 1a66c2
skinparam backgroundColor fff







skinparam circledCharacter {
  radius 8
  fontSize 11
  fontName Verdana
}

skinparam class {
    backgroundColor ccc
  borderColor aaa
    fontColor 000
  fontName Verdana
  fontSize 11
  stereotypeFontColor 333
  stereotypeFontSize 11
    arrowColor 000
  arrowFontName Verdana
  arrowFontColor 333
  arrowFontSize 11

  attributeFontColor 333
  attributeFontSize 11
  attributeIconSize 11
}


skinparam actor {
    backgroundColor 2a86e2
  borderColor 1a66c2
    fontColor 000
  fontName Verdana
  fontSize 11
  stereotypeFontColor 333
  stereotypeFontSize 11
}

skinparam participant {
    backgroundColor ccc
  borderColor aaa
    fontColor 000
  fontName Verdana
  fontSize 11
  stereotypeFontColor 333
  stereotypeFontSize 11
}

skinparam collections {
    backgroundColor ccc
  borderColor aaa
    fontColor 000
  fontName Verdana
  fontSize 11
  stereotypeFontColor 333
  stereotypeFontSize 11
}

skinparam SequenceBox{
    backgroundColor e0e0e0
  borderColor cccccc
    fontColor 000
  fontName Verdana
  fontSize 11
  stereotypeFontColor 333
  stereotypeFontSize 11
}


skinparam interface {
    backgroundColor 2a86e2
  borderColor 1a66c2
    fontColor 000
  fontName Verdana
  fontSize 11
  stereotypeFontColor 333
  stereotypeFontSize 11
}

skinparam component {
    backgroundColor ccc
  borderColor aaa
    fontColor 000
  fontName Verdana
  fontSize 11
  stereotypeFontColor 333
  stereotypeFontSize 11
}

skinparam node {
    backgroundColor ccc
  borderColor aaa
    fontColor 000
  fontName Verdana
  fontSize 11
  stereotypeFontColor 333
  stereotypeFontSize 11
}

skinparam database {
    backgroundColor ccc
  borderColor aaa
    fontColor 000
  fontName Verdana
  fontSize 11
  stereotypeFontColor 333
  stereotypeFontSize 11
}

skinparam queue {
    backgroundColor ccc
  borderColor aaa
    fontColor 000
  fontName Verdana
  fontSize 11
  stereotypeFontColor 333
  stereotypeFontSize 11
}


skinparam usecase {
    backgroundColor ccc
  borderColor aaa
    fontColor 000
  fontName Verdana
  fontSize 11
  stereotypeFontColor 333
  stereotypeFontSize 11
    arrowColor 000
  arrowFontName Verdana
  arrowFontColor 333
  arrowFontSize 11
}

skinparam activity {
    backgroundColor ccc
  borderColor aaa
    fontColor 000
  fontName Verdana
  fontSize 11
  stereotypeFontColor 333
  stereotypeFontSize 11
    arrowColor 000
  arrowFontName Verdana
  arrowFontColor 333
  arrowFontSize 11
}

skinparam sequence {
    fontColor 000
  fontName Verdana
  fontSize 11
  stereotypeFontColor 333
  stereotypeFontSize 11
    arrowColor 000
  arrowFontName Verdana
  arrowFontColor 333
  arrowFontSize 11

  lifeLineBorderColor 2a86e2
  lifeLineBackgroundColor e0e0e0
}

skinparam boundary {
    backgroundColor 2a86e2
  borderColor 1a66c2
    fontColor 000
  fontName Verdana
  fontSize 11
  stereotypeFontColor 333
  stereotypeFontSize 11
}

skinparam control {
    backgroundColor 2a86e2
  borderColor 1a66c2
    fontColor 000
  fontName Verdana
  fontSize 11
  stereotypeFontColor 333
  stereotypeFontSize 11
}

skinparam entity {
    backgroundColor 2a86e2
  borderColor 1a66c2
    fontColor 000
  fontName Verdana
  fontSize 11
  stereotypeFontColor 333
  stereotypeFontSize 11
}


skinparam state {
    backgroundColor ccc
  borderColor aaa
    fontColor 000
  fontName Verdana
  fontSize 11
  stereotypeFontColor 333
  stereotypeFontSize 11
    arrowColor 000
  arrowFontName Verdana
  arrowFontColor 333
  arrowFontSize 11
  startColor 2a86e2
  endColor 1a66c2
}


skinparam object {
    backgroundColor ccc
  borderColor aaa
    fontColor 000
  fontName Verdana
  fontSize 11
  stereotypeFontColor 333
  stereotypeFontSize 11
    arrowColor 000
  arrowFontName Verdana
  arrowFontColor 333
  arrowFontSize 11
}


skinparam note {
    backgroundColor 2a86e2
  borderColor 1a66c2
    fontColor 000
  fontName Verdana
  fontSize 11
  stereotypeFontColor 333
  stereotypeFontSize 11
}

skinparam cloud {
    backgroundColor ccc
  borderColor aaa
    fontColor 000
  fontName Verdana
  fontSize 11
  stereotypeFontColor 333
  stereotypeFontSize 11
    arrowColor 000
  arrowFontName Verdana
  arrowFontColor 333
  arrowFontSize 11
}

skinparam rectangle {
    backgroundColor ccc
  borderColor aaa
    fontColor 000
  fontName Verdana
  fontSize 11
  stereotypeFontColor 333
  stereotypeFontSize 11
}

skinparam storage {
    backgroundColor ccc
  borderColor aaa
    fontColor 000
  fontName Verdana
  fontSize 11
  stereotypeFontColor 333
  stereotypeFontSize 11
}
<style>
mindmapDiagram {
  node {
    FontSize 30
  }
  arrow {
      LineThickness 3
  }
}
</style>

+ Kenntnisse

++[#80dfff] Software-Entwicklung
+++[#ccf2ff] Objektorientiertes Design, Design Patterns
+++[#ccf2ff] Architektur von Enterprise-Anwendungen

+++[#80dfff] Sprachen
++++[#00bfff] Python
++++[#00bfff] SQL
++++[#80dfff] C
++++[#ccf2ff] C++
++++[#ccf2ff] Assembler (Intel x86)

+++[#80dfff] Datenformate: XML, JSON, ASN.1

+++[#80dfff] Tools
++++[#80dfff] Versionsverwaltung: Git / GitHub, Subversion
++++[#80dfff] Build / CI / CD: make, Jenkins
++++[#80dfff] Dokumentation: Markdown, AsciiDoc, PlantUML
++++[#ccf2ff] Debugging: gdb / pwndbg, strace / ltrace


++[#66cc99] Betriebssysteme
+++[#66cc99] Desgin / Konzepte
+++[#39ac73] Unix Power User (Shell, Tools)

+++[#66cc99] Systemadministration
++++[#39ac73] Server: Linux, Solaris
++++[#39ac73] Monitoring: Nagios / Icinga, Prometheus, Grafana
++++[#66cc99] Container / Container-Plattformen: Docker, Kubernetes, OpenShift
++++[#66cc99] Infrastructure as Code: Ansible

+++[#9fdfbf] Systemnahe Programmierung (unter Linux)


- -[#c180ff] Netzwerke / Telekommunikation
- - -[#c180ff] Architektur / Konzepte verteilter Systeme
- - -[#c180ff] Netzwerk- und Systemarchitekturen im \nTelekommunikationsbereich (Mobilfunk)

- - -[#c180ff] Protokolle
- - - -[#9c33ff] TCP/IP
- - - -[#c180ff] DNS
- - - -[#c180ff] HTTP(S)
- - - -[#c180ff] Diameter
- - - -[#e6ccff] LDAP

- - -[#9c33ff] Debugging-Tools: tcpdump, Wireshark, netcat / socat, \nmmap, curl, mitmproxy, dig
- - -[#c180ff] Netzwerkprogrammierung (Sockets, CORBA, SOAP, REST)
- - -[#e6ccff] Implementierung von Protokoll-Software
- - -[#e6ccff] Betrieb von Server Software: Apache, Postfix, Samba / Winbind
- - -[#e6ccff] Benutzerverwaltung mit Active Directory, LDAP und Kerberos


- -[#ffcc99] IT-Sicherheit
- - -[#ffcc99] Angriffsmethoden / Angriffsvektoren
- - -[#ffcc99] Härten von Systemen (unter Unix / Linux)
- - -[#ffcc99] Konzepte / Konfiguration von Firewalls (netfilter / iptables)
@endmindmap

PlantUML version 1.2021.16(Wed Dec 08 18:25:22 CET 2021)
(GPL source distribution)
Java Runtime: Java(TM) SE Runtime Environment
JVM: Java HotSpot(TM) 64-Bit Server VM
Default Encoding: UTF-8
Language: en
Country: DE
--></g></svg>